{"glyphs":{"a":{"x_min":0,"x_max":314,"ha":314,"o":"m 265 263 q 269 242 251 227 q 259 225 264 223 q 269 221 268 219 q 260 182 248 148 q 236 114 228 79 q 221 51 228 52 q 236 53 253 72 q 270 91 294 122 q 317 152 342 184 q 342 183 345 180 q 348 176 350 170 q 352 164 350 156 q 349 148 342 139 q 322 115 307 96 q 292 78 278 63 q 264 48 250 35 q 235 22 216 9 q 206 1 194 -1 q 181 -3 170 0 q 158 2 150 8 q 141 14 139 22 q 137 29 138 37 q 138 45 139 54 q 117 33 91 16 q 65 -1 42 -1 q 20 -1 7 8 q -6 17 -10 31 q -20 65 -9 111 q 2 157 30 198 q 57 240 100 268 q 142 297 195 296 q 220 296 240 288 q 261 280 265 263 z m 152 215 q 178 220 192 231 q 207 242 211 257 q 212 263 206 270 q 199 277 183 272 q 161 266 140 236 q 120 207 104 172 q 89 136 81 102 q 73 68 76 52 q 77 44 86 46 q 94 47 104 54 q 115 62 126 72 q 138 83 147 94 q 154 122 163 151 q 172 180 180 205 q 162 205 152 215 z"},"L":{"x_min":0,"x_max":497,"ha":497,"o":"m 611 -47 q 620 -64 614 -78 q 607 -91 592 -100 q 576 -109 554 -112 q 531 -116 507 -114 q 472 -111 442 -101 q 412 -91 385 -78 q 358 -65 332 -50 q 306 -36 281 -22 q 254 -39 219 -48 q 184 -58 139 -58 q 75 -57 41 -40 q 7 -22 3 -4 q 0 7 4 18 q 7 29 19 38 q 31 46 54 52 q 77 58 113 59 q 151 61 182 55 q 212 49 241 39 q 266 80 280 138 q 295 195 312 256 q 256 250 220 253 q 163 258 132 276 q 100 293 85 330 q 120 317 164 312 q 207 307 264 308 q 279 308 296 309 q 312 310 329 312 q 342 352 361 388 q 380 424 408 450 q 436 477 476 492 q 515 507 569 505 q 601 501 623 490 q 645 480 652 457 q 660 424 644 396 q 628 369 596 346 q 564 324 520 307 q 477 290 431 278 q 422 242 412 204 q 403 167 390 131 q 378 95 360 63 q 342 31 316 6 q 345 -8 375 -21 q 405 -34 440 -42 q 475 -51 517 -53 q 559 -55 611 -47 z m 575 469 q 548 469 528 458 q 507 448 492 430 q 477 412 466 388 q 455 363 446 334 q 481 343 512 355 q 543 367 566 382 q 589 397 601 414 q 613 431 611 451 q 610 458 600 464 q 589 469 575 469 z m 135 -25 q 161 -25 181 -16 q 201 -8 217 7 q 190 17 161 22 q 139 25 117 26 q 95 26 78 24 q 61 21 52 16 q 42 10 44 1 q 47 -10 72 -18 q 97 -25 135 -25 z"},"3":{"x_min":0,"x_max":1219,"ha":1219,"o":"m 876 781 l 739 657 l 775 471 l 615 565 l 450 471 l 489 652 l 351 781 l 537 801 l 615 972 l 690 802 z m 682 576 l 639 834 l 586 834 l 541 576 l 564 562 l 583 576 l 592 634 l 631 634 l 642 576 l 663 562 z m 628 672 l 598 672 l 612 774 z m 610 21 l 631 21 l 624 39 q 622 42 622 44 q 622 46 619 49 q 619 45 616 39 z m 352 -5 l 352 3 l 363 3 l 363 -5 z m 844 -5 l 844 58 l 852 58 l 852 1 l 883 1 l 883 -5 z m 787 -5 l 787 58 l 832 58 l 832 49 l 795 49 l 795 30 l 829 30 l 829 22 l 795 22 l 795 1 l 832 1 l 832 -5 z m 565 -5 l 565 21 l 541 58 l 552 58 l 564 39 q 567 30 570 28 q 571 30 572 33 q 574 36 577 39 l 589 58 l 598 58 l 573 21 l 573 -5 z m 376 -5 l 376 58 l 400 58 q 403 58 406 56 q 408 55 409 55 q 415 54 417 49 q 420 46 420 40 q 420 36 417 34 q 415 28 411 28 q 415 27 420 22 q 423 16 423 13 q 423 10 422 8 q 421 7 421 6 q 420 0 415 0 q 414 -3 412 -3 q 411 -3 409 -5 l 400 -5 z m 205 -5 l 187 58 l 196 58 l 205 16 q 207 12 207 9 q 207 6 208 3 q 210 10 210 15 l 222 58 l 232 58 l 241 25 q 243 18 244 14 q 246 9 246 3 q 247 6 247 9 q 247 12 249 16 l 259 58 l 267 58 l 249 -5 l 241 -5 l 229 42 q 228 46 228 49 q 226 46 226 42 l 213 -5 z m 123 -5 l 105 58 l 115 58 l 123 16 q 123 9 127 3 q 129 10 129 15 l 141 58 l 150 58 l 160 25 q 162 18 162 14 q 163 9 163 3 q 166 6 166 9 q 166 12 168 16 l 177 58 l 186 58 l 168 -5 l 160 -5 l 148 42 q 147 46 147 49 q 144 46 144 42 l 130 -5 z m 384 30 l 397 30 q 403 30 405 33 q 409 33 409 34 q 411 36 411 40 q 411 45 409 46 l 408 46 q 406 46 406 47 q 406 48 405 48 q 403 49 396 49 l 384 49 z m 285 -5 l 268 58 l 277 58 l 286 16 q 288 12 288 9 q 288 6 291 3 q 291 9 292 11 q 292 13 292 15 l 304 58 l 313 58 l 324 25 q 325 18 326 14 q 327 9 327 3 q 330 6 330 9 q 330 12 331 16 l 342 58 l 349 58 l 331 -5 l 324 -5 l 312 42 q 310 46 310 49 q 307 46 307 42 l 294 -5 z m 664 28 l 682 28 q 685 28 688 29 q 690 30 693 30 q 696 30 696 34 q 697 36 697 40 q 697 45 694 48 q 693 49 684 49 l 664 49 z m 384 1 l 400 1 q 403 1 405 3 l 409 3 q 411 6 414 7 l 414 13 q 414 16 411 19 q 411 22 408 22 l 397 22 l 384 22 z m 435 -5 l 435 58 l 442 58 l 442 -5 z m 985 25 q 985 12 990 7 q 996 1 1006 1 q 1017 1 1021 7 q 1027 12 1027 27 q 1027 34 1026 39 q 1023 46 1018 48 q 1014 49 1006 49 q 997 49 993 45 q 985 39 985 25 z m 976 25 q 976 42 985 49 q 991 58 1006 58 q 1011 58 1014 56 q 1018 55 1021 54 q 1026 52 1028 49 q 1030 46 1033 42 q 1035 39 1035 27 q 1035 13 1032 9 q 1027 1 1021 -3 q 1015 -6 1006 -6 q 1002 -6 998 -6 q 994 -5 990 -3 q 987 0 984 3 q 982 6 981 9 q 979 13 978 17 q 976 21 976 25 z m 592 -5 l 616 58 l 625 58 l 651 -5 l 642 -5 l 634 13 l 609 13 l 600 -5 z m 459 -5 l 459 58 l 466 58 l 466 1 l 495 1 l 495 -5 z m 892 -5 l 892 3 l 903 3 l 903 -5 z m 748 19 l 748 27 l 774 27 l 774 3 q 768 -3 762 -5 q 759 -5 755 -6 q 751 -6 748 -6 q 739 -6 733 -3 q 729 0 726 2 q 723 4 721 9 q 720 13 718 17 q 717 21 717 25 q 717 31 718 34 q 720 37 721 42 q 724 51 732 54 q 735 55 740 56 q 744 58 748 58 q 756 58 760 55 q 766 54 768 49 q 772 45 774 40 l 766 39 q 766 40 762 45 q 762 48 756 49 l 748 49 l 739 49 q 735 48 732 45 q 732 43 727 39 q 727 36 726 33 q 726 30 726 27 q 726 16 729 13 q 735 4 736 3 q 741 1 748 1 q 754 1 759 3 q 762 6 764 6 q 765 6 766 7 l 766 19 z m 657 -5 l 657 58 l 684 58 q 688 58 691 56 q 694 55 697 55 q 702 54 703 49 q 706 46 706 40 q 706 33 702 28 q 700 27 696 26 q 693 25 688 22 q 691 22 692 22 q 693 21 694 21 q 696 18 696 16 q 697 13 700 10 l 712 -5 l 702 -5 l 693 7 q 690 10 689 12 q 688 15 687 16 q 687 19 686 19 q 684 19 682 21 l 681 21 q 679 21 679 22 q 679 22 678 22 l 675 22 l 664 22 l 664 -5 z m 505 -5 l 505 58 l 514 58 l 514 1 l 544 1 l 544 -5 z m 961 16 l 969 15 q 966 3 960 0 q 954 -6 943 -6 q 934 -6 928 -3 q 924 0 922 3 q 921 6 918 9 q 915 21 915 27 q 915 33 918 45 q 925 52 928 54 q 933 55 936 56 q 939 58 943 58 q 948 58 952 56 q 957 55 960 54 q 963 51 965 48 q 967 45 969 40 l 960 39 q 960 45 954 48 q 951 49 943 49 q 934 49 931 48 q 928 46 928 44 q 927 42 924 39 q 924 36 923 33 q 922 30 922 27 q 922 18 927 13 q 927 10 928 8 q 930 6 931 3 q 936 1 943 1 q 951 1 955 6 q 960 10 961 16 z m 1047 -5 l 1047 58 l 1059 58 l 1074 13 q 1074 10 1076 8 q 1077 6 1077 3 q 1077 4 1080 13 l 1093 58 l 1105 58 l 1105 -5 l 1098 -5 l 1098 46 l 1080 -5 l 1072 -5 l 1054 48 l 1054 -5 z m 610 21 l 631 21 l 624 39 q 622 42 622 44 q 622 46 619 49 q 619 45 616 39 z m 352 -5 l 352 3 l 363 3 l 363 -5 z m 844 -5 l 844 58 l 852 58 l 852 1 l 883 1 l 883 -5 z m 787 -5 l 787 58 l 832 58 l 832 49 l 795 49 l 795 30 l 829 30 l 829 22 l 795 22 l 795 1 l 832 1 l 832 -5 z m 565 -5 l 565 21 l 541 58 l 552 58 l 564 39 q 567 30 570 28 q 571 30 572 33 q 574 36 577 39 l 589 58 l 598 58 l 573 21 l 573 -5 z m 376 -5 l 376 58 l 400 58 q 403 58 406 56 q 408 55 409 55 q 415 54 417 49 q 420 46 420 40 q 420 36 417 34 q 415 28 411 28 q 415 27 420 22 q 423 16 423 13 q 423 10 422 8 q 421 7 421 6 q 420 0 415 0 q 414 -3 412 -3 q 411 -3 409 -5 l 400 -5 z m 205 -5 l 187 58 l 196 58 l 205 16 q 207 12 207 9 q 207 6 208 3 q 210 10 210 15 l 222 58 l 232 58 l 241 25 q 243 18 244 14 q 246 9 246 3 q 247 6 247 9 q 247 12 249 16 l 259 58 l 267 58 l 249 -5 l 241 -5 l 229 42 q 228 46 228 49 q 226 46 226 42 l 213 -5 z m 123 -5 l 105 58 l 115 58 l 123 16 q 123 9 127 3 q 129 10 129 15 l 141 58 l 150 58 l 160 25 q 162 18 162 14 q 163 9 163 3 q 166 6 166 9 q 166 12 168 16 l 177 58 l 186 58 l 168 -5 l 160 -5 l 148 42 q 147 46 147 49 q 144 46 144 42 l 130 -5 z m 384 30 l 397 30 q 403 30 405 33 q 409 33 409 34 q 411 36 411 40 q 411 45 409 46 l 408 46 q 406 46 406 47 q 406 48 405 48 q 403 49 396 49 l 384 49 z m 285 -5 l 268 58 l 277 58 l 286 16 q 288 12 288 9 q 288 6 291 3 q 291 9 292 11 q 292 13 292 15 l 304 58 l 313 58 l 324 25 q 325 18 326 14 q 327 9 327 3 q 330 6 330 9 q 330 12 331 16 l 342 58 l 349 58 l 331 -5 l 324 -5 l 312 42 q 310 46 310 49 q 307 46 307 42 l 294 -5 z m 664 28 l 682 28 q 685 28 688 29 q 690 30 693 30 q 696 30 696 34 q 697 36 697 40 q 697 45 694 48 q 693 49 684 49 l 664 49 z m 384 1 l 400 1 q 403 1 405 3 l 409 3 q 411 6 414 7 l 414 13 q 414 16 411 19 q 411 22 408 22 l 397 22 l 384 22 z m 435 -5 l 435 58 l 442 58 l 442 -5 z m 985 25 q 985 12 990 7 q 996 1 1006 1 q 1017 1 1021 7 q 1027 12 1027 27 q 1027 34 1026 39 q 1023 46 1018 48 q 1014 49 1006 49 q 997 49 993 45 q 985 39 985 25 z m 976 25 q 976 42 985 49 q 991 58 1006 58 q 1011 58 1014 56 q 1018 55 1021 54 q 1026 52 1028 49 q 1030 46 1033 42 q 1035 39 1035 27 q 1035 13 1032 9 q 1027 1 1021 -3 q 1015 -6 1006 -6 q 1002 -6 998 -6 q 994 -5 990 -3 q 987 0 984 3 q 982 6 981 9 q 979 13 978 17 q 976 21 976 25 z m 592 -5 l 616 58 l 625 58 l 651 -5 l 642 -5 l 634 13 l 609 13 l 600 -5 z m 459 -5 l 459 58 l 466 58 l 466 1 l 495 1 l 495 -5 z m 892 -5 l 892 3 l 903 3 l 903 -5 z m 748 19 l 748 27 l 774 27 l 774 3 q 768 -3 762 -5 q 759 -5 755 -6 q 751 -6 748 -6 q 739 -6 733 -3 q 729 0 726 2 q 723 4 721 9 q 720 13 718 17 q 717 21 717 25 q 717 31 718 34 q 720 37 721 42 q 724 51 732 54 q 735 55 740 56 q 744 58 748 58 q 756 58 760 55 q 766 54 768 49 q 772 45 774 40 l 766 39 q 766 40 762 45 q 762 48 756 49 l 748 49 l 739 49 q 735 48 732 45 q 732 43 727 39 q 727 36 726 33 q 726 30 726 27 q 726 16 729 13 q 735 4 736 3 q 741 1 748 1 q 754 1 759 3 q 762 6 764 6 q 765 6 766 7 l 766 19 z m 657 -5 l 657 58 l 684 58 q 688 58 691 56 q 694 55 697 55 q 702 54 703 49 q 706 46 706 40 q 706 33 702 28 q 700 27 696 26 q 693 25 688 22 q 691 22 692 22 q 693 21 694 21 q 696 18 696 16 q 697 13 700 10 l 712 -5 l 702 -5 l 693 7 q 690 10 689 12 q 688 15 687 16 q 687 19 686 19 q 684 19 682 21 l 681 21 q 679 21 679 22 q 679 22 678 22 l 675 22 l 664 22 l 664 -5 z m 505 -5 l 505 58 l 514 58 l 514 1 l 544 1 l 544 -5 z m 961 16 l 969 15 q 966 3 960 0 q 954 -6 943 -6 q 934 -6 928 -3 q 924 0 922 3 q 921 6 918 9 q 915 21 915 27 q 915 33 918 45 q 925 52 928 54 q 933 55 936 56 q 939 58 943 58 q 948 58 952 56 q 957 55 960 54 q 963 51 965 48 q 967 45 969 40 l 960 39 q 960 45 954 48 q 951 49 943 49 q 934 49 931 48 q 928 46 928 44 q 927 42 924 39 q 924 36 923 33 q 922 30 922 27 q 922 18 927 13 q 927 10 928 8 q 930 6 931 3 q 936 1 943 1 q 951 1 955 6 q 960 10 961 16 z m 1047 -5 l 1047 58 l 1059 58 l 1074 13 q 1074 10 1076 8 q 1077 6 1077 3 q 1077 4 1080 13 l 1093 58 l 1105 58 l 1105 -5 l 1098 -5 l 1098 46 l 1080 -5 l 1072 -5 l 1054 48 l 1054 -5 z m 610 21 l 631 21 l 624 39 q 622 42 622 44 q 622 46 619 49 q 619 45 616 39 z m 352 -5 l 352 3 l 363 3 l 363 -5 z m 844 -5 l 844 58 l 852 58 l 852 1 l 883 1 l 883 -5 z m 787 -5 l 787 58 l 832 58 l 832 49 l 795 49 l 795 30 l 829 30 l 829 22 l 795 22 l 795 1 l 832 1 l 832 -5 z m 565 -5 l 565 21 l 541 58 l 552 58 l 564 39 q 567 30 570 28 q 571 30 572 33 q 574 36 577 39 l 589 58 l 598 58 l 573 21 l 573 -5 z m 376 -5 l 376 58 l 400 58 q 403 58 406 56 q 408 55 409 55 q 415 54 417 49 q 420 46 420 40 q 420 36 417 34 q 415 28 411 28 q 415 27 420 22 q 423 16 423 13 q 423 10 422 8 q 421 7 421 6 q 420 0 415 0 q 414 -3 412 -3 q 411 -3 409 -5 l 400 -5 z m 205 -5 l 187 58 l 196 58 l 205 16 q 207 12 207 9 q 207 6 208 3 q 210 10 210 15 l 222 58 l 232 58 l 241 25 q 243 18 244 14 q 246 9 246 3 q 247 6 247 9 q 247 12 249 16 l 259 58 l 267 58 l 249 -5 l 241 -5 l 229 42 q 228 46 228 49 q 226 46 226 42 l 213 -5 z m 123 -5 l 105 58 l 115 58 l 123 16 q 123 9 127 3 q 129 10 129 15 l 141 58 l 150 58 l 160 25 q 162 18 162 14 q 163 9 163 3 q 166 6 166 9 q 166 12 168 16 l 177 58 l 186 58 l 168 -5 l 160 -5 l 148 42 q 147 46 147 49 q 144 46 144 42 l 130 -5 z m 384 30 l 397 30 q 403 30 405 33 q 409 33 409 34 q 411 36 411 40 q 411 45 409 46 l 408 46 q 406 46 406 47 q 406 48 405 48 q 403 49 396 49 l 384 49 z m 285 -5 l 268 58 l 277 58 l 286 16 q 288 12 288 9 q 288 6 291 3 q 291 9 292 11 q 292 13 292 15 l 304 58 l 313 58 l 324 25 q 325 18 326 14 q 327 9 327 3 q 330 6 330 9 q 330 12 331 16 l 342 58 l 349 58 l 331 -5 l 324 -5 l 312 42 q 310 46 310 49 q 307 46 307 42 l 294 -5 z m 664 28 l 682 28 q 685 28 688 29 q 690 30 693 30 q 696 30 696 34 q 697 36 697 40 q 697 45 694 48 q 693 49 684 49 l 664 49 z m 384 1 l 400 1 q 403 1 405 3 l 409 3 q 411 6 414 7 l 414 13 q 414 16 411 19 q 411 22 408 22 l 397 22 l 384 22 z m 435 -5 l 435 58 l 442 58 l 442 -5 z m 985 25 q 985 12 990 7 q 996 1 1006 1 q 1017 1 1021 7 q 1027 12 1027 27 q 1027 34 1026 39 q 1023 46 1018 48 q 1014 49 1006 49 q 997 49 993 45 q 985 39 985 25 z m 976 25 q 976 42 985 49 q 991 58 1006 58 q 1011 58 1014 56 q 1018 55 1021 54 q 1026 52 1028 49 q 1030 46 1033 42 q 1035 39 1035 27 q 1035 13 1032 9 q 1027 1 1021 -3 q 1015 -6 1006 -6 q 1002 -6 998 -6 q 994 -5 990 -3 q 987 0 984 3 q 982 6 981 9 q 979 13 978 17 q 976 21 976 25 z m 592 -5 l 616 58 l 625 58 l 651 -5 l 642 -5 l 634 13 l 609 13 l 600 -5 z m 459 -5 l 459 58 l 466 58 l 466 1 l 495 1 l 495 -5 z m 892 -5 l 892 3 l 903 3 l 903 -5 z m 748 19 l 748 27 l 774 27 l 774 3 q 768 -3 762 -5 q 759 -5 755 -6 q 751 -6 748 -6 q 739 -6 733 -3 q 729 0 726 2 q 723 4 721 9 q 720 13 718 17 q 717 21 717 25 q 717 31 718 34 q 720 37 721 42 q 724 51 732 54 q 735 55 740 56 q 744 58 748 58 q 756 58 760 55 q 766 54 768 49 q 772 45 774 40 l 766 39 q 766 40 762 45 q 762 48 756 49 l 748 49 l 739 49 q 735 48 732 45 q 732 43 727 39 q 727 36 726 33 q 726 30 726 27 q 726 16 729 13 q 735 4 736 3 q 741 1 748 1 q 754 1 759 3 q 762 6 764 6 q 765 6 766 7 l 766 19 z m 657 -5 l 657 58 l 684 58 q 688 58 691 56 q 694 55 697 55 q 702 54 703 49 q 706 46 706 40 q 706 33 702 28 q 700 27 696 26 q 693 25 688 22 q 691 22 692 22 q 693 21 694 21 q 696 18 696 16 q 697 13 700 10 l 712 -5 l 702 -5 l 693 7 q 690 10 689 12 q 688 15 687 16 q 687 19 686 19 q 684 19 682 21 l 681 21 q 679 21 679 22 q 679 22 678 22 l 675 22 l 664 22 l 664 -5 z m 505 -5 l 505 58 l 514 58 l 514 1 l 544 1 l 544 -5 z m 961 16 l 969 15 q 966 3 960 0 q 954 -6 943 -6 q 934 -6 928 -3 q 924 0 922 3 q 921 6 918 9 q 915 21 915 27 q 915 33 918 45 q 925 52 928 54 q 933 55 936 56 q 939 58 943 58 q 948 58 952 56 q 957 55 960 54 q 963 51 965 48 q 967 45 969 40 l 960 39 q 960 45 954 48 q 951 49 943 49 q 934 49 931 48 q 928 46 928 44 q 927 42 924 39 q 924 36 923 33 q 922 30 922 27 q 922 18 927 13 q 927 10 928 8 q 930 6 931 3 q 936 1 943 1 q 951 1 955 6 q 960 10 961 16 z m 1047 -5 l 1047 58 l 1059 58 l 1074 13 q 1074 10 1076 8 q 1077 6 1077 3 q 1077 4 1080 13 l 1093 58 l 1105 58 l 1105 -5 l 1098 -5 l 1098 46 l 1080 -5 l 1072 -5 l 1054 48 l 1054 -5 z m 175 111 l 187 106 q 184 93 174 84 q 162 75 148 75 q 135 75 123 81 q 111 90 109 99 q 103 109 103 124 q 103 141 109 151 q 114 162 124 166 q 135 172 148 172 q 165 172 171 165 q 181 162 186 145 l 174 144 q 168 156 163 157 q 157 163 148 163 q 136 163 130 157 q 121 151 118 144 q 117 138 117 124 q 117 111 121 105 q 124 94 130 91 q 138 85 147 85 q 159 85 166 93 q 169 96 172 100 q 174 105 175 111 z m 199 123 q 199 135 202 144 q 205 153 213 159 q 219 166 227 169 q 235 172 244 172 q 258 172 268 166 q 277 162 285 150 q 291 135 291 124 q 291 117 290 111 q 288 105 285 99 q 277 87 267 81 q 255 75 244 75 q 237 75 232 76 q 226 78 220 81 q 210 87 205 99 q 199 109 199 123 z m 213 123 q 213 105 220 94 q 231 85 244 85 q 259 85 267 97 q 277 108 277 124 q 277 130 276 134 q 274 139 273 144 q 270 154 261 157 q 256 163 244 163 q 232 163 222 153 q 213 145 213 123 z m 306 78 l 306 171 l 324 171 l 346 105 q 351 96 351 91 q 354 94 357 106 l 381 171 l 396 171 l 396 78 l 384 78 l 384 156 l 357 78 l 345 78 l 318 157 l 318 78 z m 417 78 l 417 171 l 453 171 l 466 171 q 474 171 478 166 q 480 165 486 157 q 487 154 488 151 q 489 148 489 144 q 489 135 481 124 q 474 117 453 117 l 429 117 l 429 78 z m 429 126 l 454 126 q 468 126 469 132 q 475 133 475 144 q 475 151 474 153 q 468 159 463 159 q 462 162 453 162 l 429 162 z m 505 78 l 505 171 l 517 171 l 517 87 l 564 87 l 564 78 z m 579 78 l 579 171 l 648 171 l 648 162 l 591 162 l 591 132 l 643 132 l 643 120 l 591 120 l 591 87 l 649 87 l 649 78 z m 690 78 l 690 162 l 658 162 l 658 171 l 735 171 l 735 162 l 703 162 l 703 78 z m 748 78 l 748 171 l 817 171 l 817 162 l 760 162 l 760 132 l 813 132 l 813 120 l 760 120 l 760 87 l 819 87 l 819 78 z m 870 106 l 882 108 q 882 100 885 97 q 888 91 895 88 q 898 87 909 87 q 912 87 916 87 q 919 87 922 88 q 927 88 930 94 q 931 97 931 103 q 931 108 930 111 q 928 112 926 113 q 924 114 921 117 q 919 117 904 120 q 897 123 892 124 q 888 124 885 126 q 879 129 876 136 q 873 138 872 141 q 871 144 871 147 q 871 156 877 162 q 879 165 882 166 q 885 168 889 171 q 892 172 907 172 q 918 172 924 169 q 928 166 931 164 q 934 163 936 159 q 942 154 942 145 l 930 144 q 927 156 922 157 q 918 162 907 162 q 892 162 889 157 q 885 153 885 147 q 885 142 889 139 q 889 139 907 132 q 915 130 920 128 q 925 127 928 126 q 933 124 935 122 q 937 120 940 117 q 943 112 943 103 q 943 93 940 88 q 934 82 928 79 q 924 78 920 76 q 915 75 909 75 q 903 75 897 76 q 891 78 888 79 q 880 81 873 91 q 870 97 870 106 z m 961 78 l 961 171 l 1029 171 l 1029 162 l 975 162 l 975 132 l 1027 132 l 1027 120 l 975 120 l 975 87 l 1032 87 l 1032 78 z m 1074 78 l 1074 162 l 1044 162 l 1044 171 l 1117 171 l 1117 162 l 1086 162 l 1086 78 z m 112 190 l 112 283 l 150 283 l 163 283 q 166 283 175 280 q 177 279 179 276 q 181 273 183 270 q 186 267 186 259 q 186 246 177 237 q 172 229 150 229 l 127 229 l 127 190 z m 127 241 l 150 241 q 163 241 168 244 q 174 250 174 256 q 174 259 172 262 q 171 265 169 268 q 165 273 162 273 q 160 274 150 274 l 127 274 z m 201 190 l 201 283 l 268 283 l 268 274 l 214 274 l 214 244 l 265 244 l 265 234 l 214 234 l 214 202 l 271 202 l 271 190 z m 288 190 l 288 283 l 331 283 q 345 283 351 282 q 358 279 361 274 q 364 262 364 259 q 364 249 358 243 q 352 237 337 234 q 340 231 342 231 q 343 231 345 229 q 352 222 355 216 l 372 190 l 357 190 l 343 210 q 342 214 340 217 q 337 220 336 223 q 333 225 332 227 q 331 229 330 229 q 327 231 324 231 q 322 234 316 234 l 303 234 l 303 190 z m 303 243 l 327 243 q 339 243 342 244 q 346 249 349 250 q 351 253 351 259 q 351 265 346 270 q 342 274 331 274 l 303 274 z m 381 222 l 391 222 q 391 219 392 216 q 394 213 396 210 q 397 208 400 206 q 402 204 405 204 q 414 201 420 201 q 423 201 426 201 q 429 201 430 202 q 439 205 441 208 q 441 210 442 212 q 442 214 442 216 q 442 222 441 223 q 436 226 430 229 q 429 231 425 231 q 421 231 415 234 q 402 235 396 240 q 388 246 385 249 q 384 253 384 261 q 384 264 384 268 q 385 271 388 274 q 390 280 400 283 q 403 286 417 286 q 429 286 435 283 q 444 279 447 273 q 453 264 453 259 l 441 256 q 438 267 433 270 q 427 276 417 276 q 405 276 400 270 q 396 267 396 261 q 396 255 400 253 q 402 250 417 247 q 430 241 439 241 q 442 238 445 236 q 448 234 450 231 q 454 226 454 217 q 454 210 450 204 q 447 199 444 197 q 442 195 439 192 q 427 189 420 189 q 409 189 397 192 q 393 195 390 197 q 387 199 384 204 q 382 208 382 212 q 381 216 381 222 z m 468 237 q 468 258 480 273 q 493 286 513 286 q 519 286 524 284 q 529 283 537 280 q 543 277 546 272 q 549 268 552 262 q 558 252 558 237 q 558 223 552 211 q 546 201 537 195 q 525 189 513 189 q 499 189 489 196 q 475 204 474 214 q 468 222 468 237 z m 480 237 q 480 219 489 210 q 498 201 513 201 q 528 201 537 210 q 544 220 544 237 q 544 243 544 249 q 543 255 540 259 q 535 267 531 270 q 523 276 513 276 q 505 276 500 274 q 496 271 489 267 q 480 258 480 237 z m 573 190 l 573 283 l 586 283 l 636 211 l 636 283 l 648 283 l 648 190 l 636 190 l 585 264 l 585 190 z m 658 190 l 694 283 l 708 283 l 747 190 l 732 190 l 721 220 l 682 220 l 670 190 z m 684 229 l 717 229 l 708 255 q 705 261 704 266 q 702 271 700 274 q 700 270 698 266 q 697 261 696 256 z m 754 190 l 754 283 l 768 283 l 768 202 l 814 202 l 814 190 z m 922 283 l 934 283 l 934 231 q 934 214 931 208 q 928 199 921 195 q 913 189 898 189 q 883 189 877 195 q 873 196 870 200 q 867 204 864 208 q 862 211 862 231 l 862 283 l 873 283 l 873 231 q 873 216 876 211 q 879 205 883 204 q 886 202 889 202 q 892 201 897 201 q 909 201 916 205 q 922 211 922 231 z m 951 222 l 963 222 q 963 219 964 216 q 966 213 967 210 q 969 208 971 206 q 973 204 976 204 q 985 201 990 201 q 1000 201 1005 202 q 1008 204 1012 208 q 1014 210 1014 216 q 1014 222 1012 223 q 1009 225 1008 226 q 1008 228 1005 229 q 1002 231 998 231 q 993 231 987 234 q 981 235 976 236 q 970 237 969 240 q 961 243 960 249 q 955 253 955 261 q 955 267 960 274 q 961 280 970 283 q 976 286 988 286 q 993 286 998 286 q 1003 286 1006 283 q 1015 279 1020 273 q 1021 270 1022 266 q 1024 262 1024 259 l 1012 256 q 1009 261 1008 264 q 1008 268 1005 270 q 1000 276 988 276 q 975 276 973 270 q 967 268 967 261 q 967 256 970 253 q 973 250 988 247 q 1005 241 1009 241 q 1014 238 1017 236 q 1020 234 1021 231 q 1026 228 1026 217 q 1026 208 1021 204 q 1018 199 1016 197 q 1014 195 1009 192 q 1000 189 993 189 q 985 189 980 190 q 975 190 970 192 q 967 195 964 197 q 960 199 957 204 q 954 208 952 212 q 951 216 951 222 z m 1044 190 l 1044 283 l 1111 283 l 1111 274 l 1057 274 l 1057 244 l 1107 244 l 1107 234 l 1057 234 l 1057 202 l 1113 202 l 1113 190 z m 307 388 q 307 403 285 406 q 282 406 278 407 q 273 408 267 408 l 258 397 l 234 372 q 228 364 222 358 q 217 352 210 348 q 219 345 232 343 q 235 343 240 343 q 246 343 250 345 q 273 346 285 357 q 307 375 307 388 z m 324 433 q 324 439 316 439 q 313 439 291 432 l 274 417 q 271 414 268 408 l 294 412 q 300 412 310 420 q 324 429 324 433 z m 343 460 q 343 457 339 457 q 336 457 335 458 q 334 459 331 459 q 316 456 297 436 q 300 439 304 440 q 307 442 310 444 q 321 445 330 444 q 336 444 336 436 l 336 430 q 328 417 294 409 q 321 406 321 391 q 321 373 292 354 q 282 348 270 344 q 259 340 247 339 q 228 334 217 336 q 208 336 198 340 q 189 334 181 334 l 178 334 q 169 337 163 339 l 168 339 q 180 339 187 345 l 187 346 q 177 340 165 340 q 148 340 139 349 q 124 360 124 381 q 124 387 126 392 q 127 397 130 405 q 141 427 166 444 q 174 451 182 454 q 190 456 198 457 q 214 457 220 451 q 213 456 205 456 q 196 456 186 450 q 171 444 169 441 q 154 433 139 415 q 126 394 126 379 q 126 372 128 368 q 129 363 132 358 q 138 349 148 346 q 153 345 156 344 q 159 343 162 343 q 168 343 172 344 q 177 346 183 349 q 166 361 166 382 q 169 402 190 417 l 187 412 q 184 412 181 406 q 172 397 172 387 q 172 367 195 354 q 207 361 207 363 q 210 367 213 370 q 216 373 219 376 q 222 379 222 384 q 223 388 226 393 l 226 391 q 226 384 225 379 l 243 400 q 289 453 319 462 q 306 466 298 466 q 279 465 256 453 q 229 439 229 420 q 229 414 234 409 q 235 408 235 406 q 226 412 226 421 q 226 438 246 454 q 270 472 297 469 q 306 469 324 463 l 330 463 q 337 463 342 460 z m 346 363 q 345 357 334 346 q 324 340 316 340 q 309 340 309 349 q 309 357 318 369 l 316 369 q 315 367 310 367 q 310 367 309 369 q 313 369 324 379 l 325 379 l 330 385 q 334 390 334 393 l 339 393 q 343 393 343 391 q 343 385 334 375 l 324 364 q 315 351 315 346 q 315 342 321 342 q 328 342 339 357 q 340 358 342 359 q 343 360 346 363 z m 354 405 q 348 396 339 396 q 334 396 328 400 l 333 400 q 343 400 346 411 l 346 414 l 354 411 q 355 409 354 405 z m 406 433 q 406 426 360 370 l 358 370 q 345 354 345 345 q 345 340 349 340 q 358 340 369 355 q 370 357 372 358 q 373 358 375 361 q 375 354 363 345 q 355 339 346 339 q 337 340 337 348 q 336 355 367 394 l 385 417 l 394 426 q 399 432 402 441 q 406 438 406 433 z m 432 433 q 432 427 384 370 q 369 352 369 345 q 369 340 375 340 q 381 340 394 355 l 400 361 q 399 354 387 345 q 379 339 370 339 q 361 340 361 348 q 361 357 391 394 l 409 417 l 418 426 q 426 435 427 441 q 432 438 432 433 z m 403 333 q 379 328 366 315 q 355 301 355 298 q 355 292 361 292 q 363 291 372 294 q 375 297 378 300 q 382 304 387 309 z m 447 430 q 444 409 427 393 q 427 391 426 391 q 426 391 426 390 q 421 384 416 378 q 411 373 406 366 q 403 363 403 360 q 402 363 405 369 q 396 355 396 348 q 396 343 400 343 q 402 343 408 346 q 430 364 439 397 l 439 393 l 439 388 q 442 385 442 381 q 442 378 435 366 l 423 346 l 409 328 q 414 331 426 337 l 424 336 q 421 333 416 329 q 411 325 406 318 l 394 303 l 388 295 q 379 286 369 283 q 360 283 355 289 q 346 292 352 303 q 354 304 356 307 q 357 310 360 313 l 361 315 l 351 313 q 376 331 393 333 q 394 333 396 334 q 397 334 399 334 l 400 334 l 403 334 l 412 348 q 406 342 402 341 q 397 340 394 340 q 387 340 387 348 q 387 366 418 394 l 421 396 l 436 411 q 439 417 442 422 q 445 426 447 430 z m 618 453 q 609 456 603 456 q 588 456 575 452 q 562 448 549 441 q 543 438 539 434 q 535 430 531 427 q 549 426 579 408 q 612 441 636 450 z m 649 447 q 643 445 636 443 q 630 441 622 433 q 618 430 600 412 l 589 402 l 604 393 q 607 397 613 404 q 619 411 627 420 z m 663 472 q 663 471 661 469 q 661 459 657 448 l 658 447 l 657 447 q 649 429 637 417 l 613 388 q 616 387 618 387 q 619 387 622 385 q 622 382 621 382 q 618 382 616 383 q 615 384 612 385 q 594 366 592 349 q 589 343 589 340 q 589 334 595 334 q 607 334 621 354 l 627 363 q 642 384 646 400 l 646 405 q 646 403 648 402 l 648 400 q 645 379 633 361 l 613 322 q 613 328 618 342 q 600 328 591 328 q 577 328 580 346 q 580 355 586 366 q 592 378 601 391 l 586 399 l 573 385 q 568 379 560 370 q 552 361 540 346 q 516 322 498 322 l 493 322 q 489 322 480 327 q 480 327 483 327 q 496 324 510 337 q 498 331 481 331 q 465 331 454 339 l 456 339 q 441 349 441 370 q 441 385 447 393 q 456 417 481 433 q 490 441 498 443 q 507 445 516 447 q 531 447 537 441 l 535 441 q 532 444 522 444 q 507 444 484 430 q 468 418 456 405 q 442 384 442 367 q 442 343 465 336 q 474 333 478 333 q 510 334 547 375 l 576 405 q 553 418 525 418 l 523 418 q 520 412 520 405 q 522 405 528 396 q 517 402 517 411 q 517 415 519 418 q 504 415 499 412 q 472 402 475 381 q 475 367 484 357 l 487 354 q 469 372 469 385 q 469 405 487 418 q 502 429 525 429 q 546 453 577 457 q 585 459 601 459 q 609 459 624 456 l 642 451 l 651 451 l 652 450 q 658 460 661 475 l 663 475 z m 682 375 q 682 370 681 367 q 673 360 668 354 q 663 348 658 340 l 660 340 l 661 340 q 660 339 658 339 q 657 339 657 337 q 649 337 649 340 q 649 346 663 360 q 673 373 673 376 q 675 381 669 385 q 651 360 637 354 l 631 351 l 628 352 q 634 352 648 367 q 661 379 666 387 q 666 388 665 388 q 664 388 664 390 q 664 391 675 400 q 675 402 676 402 l 678 400 q 678 399 670 388 q 682 384 682 375 z m 726 379 q 726 388 720 385 q 714 385 711 382 q 706 379 697 367 q 688 355 688 348 q 687 345 691 345 q 700 348 706 355 q 712 367 712 372 q 712 375 711 375 q 717 375 717 367 l 715 364 q 718 367 720 371 q 723 375 726 378 z m 754 393 q 748 393 741 385 q 735 378 729 369 q 723 360 715 348 q 708 333 702 324 q 696 316 694 313 q 675 289 664 289 q 655 288 651 295 q 651 303 651 303 q 651 310 657 316 q 654 315 649 315 q 664 330 682 334 q 684 334 684 335 q 685 336 688 336 l 690 334 q 661 325 655 307 q 654 304 654 300 q 654 298 655 297 q 655 295 657 295 q 669 294 685 318 l 696 333 l 702 342 q 697 340 694 340 q 682 340 682 352 q 682 366 702 384 q 711 393 718 393 q 729 393 729 381 l 730 381 l 738 390 q 745 397 751 397 q 756 397 759 393 z m 781 382 q 781 373 765 364 q 763 363 762 363 l 760 363 q 756 363 751 370 q 754 367 759 367 q 769 373 772 384 l 772 387 l 772 388 l 772 390 q 766 390 753 376 l 753 375 q 748 369 748 365 q 747 361 747 358 q 745 360 745 367 q 742 361 741 357 q 738 351 738 346 q 738 345 739 343 q 739 340 745 340 q 760 346 771 355 q 774 358 778 361 q 775 357 772 353 q 769 349 762 345 q 750 337 741 340 q 741 339 739 340 q 730 340 730 349 q 730 364 747 379 q 756 393 771 393 q 774 393 775 391 q 781 387 781 382 z m 841 433 q 841 427 793 370 q 780 354 780 345 q 780 340 784 340 q 793 340 804 355 q 805 357 806 358 q 808 358 810 361 q 810 354 798 345 q 790 339 780 339 q 772 342 772 348 q 772 360 801 394 l 819 417 l 828 426 q 837 435 837 441 q 841 438 841 433 z m 922 387 q 897 396 895 415 q 888 411 880 407 q 873 403 868 399 q 840 372 840 349 q 840 340 844 339 l 847 339 l 850 339 q 873 339 892 354 q 898 360 906 368 q 915 375 922 387 z m 952 430 l 940 430 q 922 429 897 417 q 900 396 925 391 l 936 405 z m 979 457 q 960 457 944 454 q 928 451 916 444 q 924 451 935 456 q 946 460 960 463 q 930 465 907 445 q 903 442 897 430 q 907 433 917 434 q 927 436 939 435 q 942 435 946 435 q 951 435 958 433 q 961 438 966 444 q 972 450 979 457 z m 1074 459 q 1071 454 1067 450 q 1063 447 1056 444 q 1044 436 1033 436 l 1030 436 q 1029 436 1027 438 q 1029 439 1029 440 q 1029 442 1032 445 q 1018 456 994 456 l 988 448 l 973 430 q 985 429 996 428 q 1006 426 1015 426 q 1036 426 1044 430 q 1038 424 1021 421 q 1008 418 994 423 l 970 427 q 964 420 959 414 q 954 409 951 403 l 940 388 l 948 388 q 985 391 991 406 l 993 406 q 988 397 973 390 q 966 387 959 386 q 952 384 946 384 l 939 384 q 928 372 922 363 q 915 354 909 348 q 889 327 873 327 q 865 328 856 328 q 871 328 888 343 q 867 334 855 334 l 846 336 l 858 324 q 846 330 838 337 q 837 337 831 340 q 813 354 811 375 q 811 382 811 388 q 811 394 814 400 q 819 414 826 424 q 834 433 844 444 q 870 466 889 466 q 900 466 907 460 l 906 459 q 901 463 892 463 q 873 460 852 444 q 834 429 825 414 q 813 393 813 375 q 816 348 837 340 q 834 349 835 358 q 838 381 852 397 q 868 418 897 430 q 900 433 900 439 l 913 453 q 933 469 964 469 q 972 469 977 469 q 982 469 990 468 l 991 468 q 1002 475 1010 479 q 1018 483 1027 481 q 1033 481 1036 478 q 1020 475 1020 475 q 1017 474 1013 472 q 1009 471 1005 468 q 1011 466 1017 466 q 1023 465 1030 462 q 1045 457 1054 457 q 1068 457 1074 459 z m 982 354 q 978 358 978 364 q 978 367 978 370 q 979 372 979 375 q 964 355 966 346 q 966 343 969 343 q 972 343 982 354 z m 1002 385 q 1002 388 999 388 q 996 388 993 387 q 991 385 988 379 q 981 364 981 360 q 981 355 982 354 l 987 358 l 987 360 l 987 358 q 988 360 988 360 q 988 361 990 363 q 993 372 993 375 q 993 376 991 378 q 994 372 994 370 q 999 375 1002 385 z m 1008 381 q 1008 373 997 358 q 984 345 978 340 l 966 340 q 957 340 957 348 q 957 360 973 379 q 984 393 997 393 q 1008 393 1008 381 z m 1057 384 q 1059 381 1051 367 q 1042 355 1039 352 l 1021 336 q 1011 325 1008 313 q 1009 331 1021 345 q 1027 351 1030 356 q 1033 360 1036 366 q 1038 367 1039 372 l 1039 367 q 1039 367 1038 364 q 1041 367 1047 379 q 1047 381 1048 382 q 1048 382 1048 384 q 1048 391 1041 388 q 1041 388 1029 379 q 1026 372 1020 366 q 1015 361 1009 354 q 1002 345 1000 340 q 999 339 993 327 q 993 330 992 334 q 991 337 993 340 q 996 351 1006 361 l 1015 372 q 1023 382 1023 388 q 1023 390 1022 392 q 1021 393 1021 394 q 1030 391 1030 385 q 1039 393 1050 393 q 1056 390 1057 384 z m 1116 405 l 1093 405 q 1092 402 1084 393 q 1075 384 1063 367 q 1060 367 1057 360 q 1051 352 1051 345 q 1051 340 1054 340 q 1062 340 1075 355 l 1077 357 q 1078 358 1078 359 q 1078 360 1080 361 q 1080 354 1069 345 q 1062 339 1051 339 q 1044 342 1042 348 q 1042 351 1048 363 l 1066 384 l 1083 405 l 1057 408 q 1051 409 1042 409 l 1029 409 q 1011 409 993 402 l 991 402 q 1006 417 1038 417 q 1039 417 1050 414 q 1062 412 1083 409 l 1087 408 q 1092 415 1096 420 q 1099 426 1102 430 q 1105 429 1105 423 q 1105 418 1102 415 l 1096 406 l 1108 405 l 1117 405 l 1119 405 l 1123 405 z m 1126 385 q 1126 381 1116 376 l 1114 375 q 1119 379 1119 387 l 1119 393 l 1114 393 q 1107 393 1105 387 q 1105 384 1110 361 q 1111 340 1086 340 q 1072 340 1069 349 q 1068 351 1068 354 q 1068 366 1086 369 l 1092 367 l 1089 367 q 1083 367 1080 364 q 1075 357 1075 354 q 1075 342 1087 342 q 1099 342 1099 358 q 1099 366 1098 370 q 1096 375 1096 381 q 1096 396 1110 396 q 1113 396 1114 395 q 1116 394 1119 394 q 1125 391 1125 390 q 1126 388 1126 385 z"},"J":{"x_min":0,"x_max":535,"ha":535,"o":"m 572 445 q 571 435 565 394 q 559 352 544 295 q 528 238 500 173 q 473 108 430 52 q 386 -5 324 -45 q 262 -85 178 -92 q 98 -99 56 -78 q 15 -58 4 -26 q -7 6 9 42 q 25 78 60 104 q 96 129 146 136 q 197 142 256 115 q 223 122 193 110 q 163 97 141 75 q 119 53 107 26 q 95 -1 96 -23 q 98 -45 116 -57 q 134 -69 173 -62 q 214 -55 250 -24 q 286 6 317 51 q 348 96 374 151 q 400 206 421 262 q 442 319 458 374 q 474 428 486 472 q 434 463 400 446 q 366 429 347 407 q 328 385 322 360 q 315 334 318 310 q 320 286 330 264 q 339 242 353 226 q 309 229 277 241 q 245 253 226 271 q 207 289 201 312 q 195 334 204 357 q 225 414 302 452 q 380 490 498 499 q 529 502 546 495 q 563 488 567 480 q 572 472 572 462 q 573 453 572 445 z"},"V":{"x_min":0,"x_max":506,"ha":506,"o":"m 183 -32 q 135 -33 109 -13 q 83 7 73 38 q 63 68 67 104 q 71 141 82 173 q 93 208 108 247 q 123 286 138 325 q 153 364 166 401 q 180 438 188 468 q 111 455 73 424 q 35 392 24 356 q 14 319 24 282 q 35 246 55 223 q 12 225 -20 237 q -52 249 -71 267 q -90 285 -96 308 q -102 330 -93 353 q -71 410 6 448 q 83 486 200 496 q 216 497 232 496 q 248 496 262 494 q 276 491 286 488 q 297 484 302 478 q 308 470 308 460 q 308 451 306 443 q 299 414 280 374 q 262 334 240 288 q 217 243 196 196 q 174 150 161 109 q 153 83 153 64 q 153 46 159 34 q 165 22 176 16 q 186 11 198 11 q 230 11 259 37 q 288 63 314 104 q 341 145 368 196 q 394 246 422 296 q 451 347 483 391 q 515 435 552 464 q 598 500 642 498 q 686 497 722 479 q 671 449 626 400 q 582 351 541 294 q 500 238 460 180 q 420 123 377 76 q 334 29 286 -1 q 239 -31 183 -32 z"},"7":{"x_min":0,"x_max":1219,"ha":1219,"o":"m 876 781 l 739 657 l 775 471 l 615 565 l 450 471 l 489 652 l 351 781 l 537 801 l 615 972 l 690 802 z m 682 576 l 639 834 l 586 834 l 541 576 l 564 562 l 583 576 l 592 634 l 631 634 l 642 576 l 663 562 z m 628 672 l 598 672 l 612 774 z m 610 21 l 631 21 l 624 39 q 622 42 622 44 q 622 46 619 49 q 619 45 616 39 z m 352 -5 l 352 3 l 363 3 l 363 -5 z m 844 -5 l 844 58 l 852 58 l 852 1 l 883 1 l 883 -5 z m 787 -5 l 787 58 l 832 58 l 832 49 l 795 49 l 795 30 l 829 30 l 829 22 l 795 22 l 795 1 l 832 1 l 832 -5 z m 565 -5 l 565 21 l 541 58 l 552 58 l 564 39 q 567 30 570 28 q 571 30 572 33 q 574 36 577 39 l 589 58 l 598 58 l 573 21 l 573 -5 z m 376 -5 l 376 58 l 400 58 q 403 58 406 56 q 408 55 409 55 q 415 54 417 49 q 420 46 420 40 q 420 36 417 34 q 415 28 411 28 q 415 27 420 22 q 423 16 423 13 q 423 10 422 8 q 421 7 421 6 q 420 0 415 0 q 414 -3 412 -3 q 411 -3 409 -5 l 400 -5 z m 205 -5 l 187 58 l 196 58 l 205 16 q 207 12 207 9 q 207 6 208 3 q 210 10 210 15 l 222 58 l 232 58 l 241 25 q 243 18 244 14 q 246 9 246 3 q 247 6 247 9 q 247 12 249 16 l 259 58 l 267 58 l 249 -5 l 241 -5 l 229 42 q 228 46 228 49 q 226 46 226 42 l 213 -5 z m 123 -5 l 105 58 l 115 58 l 123 16 q 123 9 127 3 q 129 10 129 15 l 141 58 l 150 58 l 160 25 q 162 18 162 14 q 163 9 163 3 q 166 6 166 9 q 166 12 168 16 l 177 58 l 186 58 l 168 -5 l 160 -5 l 148 42 q 147 46 147 49 q 144 46 144 42 l 130 -5 z m 384 30 l 397 30 q 403 30 405 33 q 409 33 409 34 q 411 36 411 40 q 411 45 409 46 l 408 46 q 406 46 406 47 q 406 48 405 48 q 403 49 396 49 l 384 49 z m 285 -5 l 268 58 l 277 58 l 286 16 q 288 12 288 9 q 288 6 291 3 q 291 9 292 11 q 292 13 292 15 l 304 58 l 313 58 l 324 25 q 325 18 326 14 q 327 9 327 3 q 330 6 330 9 q 330 12 331 16 l 342 58 l 349 58 l 331 -5 l 324 -5 l 312 42 q 310 46 310 49 q 307 46 307 42 l 294 -5 z m 664 28 l 682 28 q 685 28 688 29 q 690 30 693 30 q 696 30 696 34 q 697 36 697 40 q 697 45 694 48 q 693 49 684 49 l 664 49 z m 384 1 l 400 1 q 403 1 405 3 l 409 3 q 411 6 414 7 l 414 13 q 414 16 411 19 q 411 22 408 22 l 397 22 l 384 22 z m 435 -5 l 435 58 l 442 58 l 442 -5 z m 985 25 q 985 12 990 7 q 996 1 1006 1 q 1017 1 1021 7 q 1027 12 1027 27 q 1027 34 1026 39 q 1023 46 1018 48 q 1014 49 1006 49 q 997 49 993 45 q 985 39 985 25 z m 976 25 q 976 42 985 49 q 991 58 1006 58 q 1011 58 1014 56 q 1018 55 1021 54 q 1026 52 1028 49 q 1030 46 1033 42 q 1035 39 1035 27 q 1035 13 1032 9 q 1027 1 1021 -3 q 1015 -6 1006 -6 q 1002 -6 998 -6 q 994 -5 990 -3 q 987 0 984 3 q 982 6 981 9 q 979 13 978 17 q 976 21 976 25 z m 592 -5 l 616 58 l 625 58 l 651 -5 l 642 -5 l 634 13 l 609 13 l 600 -5 z m 459 -5 l 459 58 l 466 58 l 466 1 l 495 1 l 495 -5 z m 892 -5 l 892 3 l 903 3 l 903 -5 z m 748 19 l 748 27 l 774 27 l 774 3 q 768 -3 762 -5 q 759 -5 755 -6 q 751 -6 748 -6 q 739 -6 733 -3 q 729 0 726 2 q 723 4 721 9 q 720 13 718 17 q 717 21 717 25 q 717 31 718 34 q 720 37 721 42 q 724 51 732 54 q 735 55 740 56 q 744 58 748 58 q 756 58 760 55 q 766 54 768 49 q 772 45 774 40 l 766 39 q 766 40 762 45 q 762 48 756 49 l 748 49 l 739 49 q 735 48 732 45 q 732 43 727 39 q 727 36 726 33 q 726 30 726 27 q 726 16 729 13 q 735 4 736 3 q 741 1 748 1 q 754 1 759 3 q 762 6 764 6 q 765 6 766 7 l 766 19 z m 657 -5 l 657 58 l 684 58 q 688 58 691 56 q 694 55 697 55 q 702 54 703 49 q 706 46 706 40 q 706 33 702 28 q 700 27 696 26 q 693 25 688 22 q 691 22 692 22 q 693 21 694 21 q 696 18 696 16 q 697 13 700 10 l 712 -5 l 702 -5 l 693 7 q 690 10 689 12 q 688 15 687 16 q 687 19 686 19 q 684 19 682 21 l 681 21 q 679 21 679 22 q 679 22 678 22 l 675 22 l 664 22 l 664 -5 z m 505 -5 l 505 58 l 514 58 l 514 1 l 544 1 l 544 -5 z m 961 16 l 969 15 q 966 3 960 0 q 954 -6 943 -6 q 934 -6 928 -3 q 924 0 922 3 q 921 6 918 9 q 915 21 915 27 q 915 33 918 45 q 925 52 928 54 q 933 55 936 56 q 939 58 943 58 q 948 58 952 56 q 957 55 960 54 q 963 51 965 48 q 967 45 969 40 l 960 39 q 960 45 954 48 q 951 49 943 49 q 934 49 931 48 q 928 46 928 44 q 927 42 924 39 q 924 36 923 33 q 922 30 922 27 q 922 18 927 13 q 927 10 928 8 q 930 6 931 3 q 936 1 943 1 q 951 1 955 6 q 960 10 961 16 z m 1047 -5 l 1047 58 l 1059 58 l 1074 13 q 1074 10 1076 8 q 1077 6 1077 3 q 1077 4 1080 13 l 1093 58 l 1105 58 l 1105 -5 l 1098 -5 l 1098 46 l 1080 -5 l 1072 -5 l 1054 48 l 1054 -5 z m 610 21 l 631 21 l 624 39 q 622 42 622 44 q 622 46 619 49 q 619 45 616 39 z m 352 -5 l 352 3 l 363 3 l 363 -5 z m 844 -5 l 844 58 l 852 58 l 852 1 l 883 1 l 883 -5 z m 787 -5 l 787 58 l 832 58 l 832 49 l 795 49 l 795 30 l 829 30 l 829 22 l 795 22 l 795 1 l 832 1 l 832 -5 z m 565 -5 l 565 21 l 541 58 l 552 58 l 564 39 q 567 30 570 28 q 571 30 572 33 q 574 36 577 39 l 589 58 l 598 58 l 573 21 l 573 -5 z m 376 -5 l 376 58 l 400 58 q 403 58 406 56 q 408 55 409 55 q 415 54 417 49 q 420 46 420 40 q 420 36 417 34 q 415 28 411 28 q 415 27 420 22 q 423 16 423 13 q 423 10 422 8 q 421 7 421 6 q 420 0 415 0 q 414 -3 412 -3 q 411 -3 409 -5 l 400 -5 z m 205 -5 l 187 58 l 196 58 l 205 16 q 207 12 207 9 q 207 6 208 3 q 210 10 210 15 l 222 58 l 232 58 l 241 25 q 243 18 244 14 q 246 9 246 3 q 247 6 247 9 q 247 12 249 16 l 259 58 l 267 58 l 249 -5 l 241 -5 l 229 42 q 228 46 228 49 q 226 46 226 42 l 213 -5 z m 123 -5 l 105 58 l 115 58 l 123 16 q 123 9 127 3 q 129 10 129 15 l 141 58 l 150 58 l 160 25 q 162 18 162 14 q 163 9 163 3 q 166 6 166 9 q 166 12 168 16 l 177 58 l 186 58 l 168 -5 l 160 -5 l 148 42 q 147 46 147 49 q 144 46 144 42 l 130 -5 z m 384 30 l 397 30 q 403 30 405 33 q 409 33 409 34 q 411 36 411 40 q 411 45 409 46 l 408 46 q 406 46 406 47 q 406 48 405 48 q 403 49 396 49 l 384 49 z m 285 -5 l 268 58 l 277 58 l 286 16 q 288 12 288 9 q 288 6 291 3 q 291 9 292 11 q 292 13 292 15 l 304 58 l 313 58 l 324 25 q 325 18 326 14 q 327 9 327 3 q 330 6 330 9 q 330 12 331 16 l 342 58 l 349 58 l 331 -5 l 324 -5 l 312 42 q 310 46 310 49 q 307 46 307 42 l 294 -5 z m 664 28 l 682 28 q 685 28 688 29 q 690 30 693 30 q 696 30 696 34 q 697 36 697 40 q 697 45 694 48 q 693 49 684 49 l 664 49 z m 384 1 l 400 1 q 403 1 405 3 l 409 3 q 411 6 414 7 l 414 13 q 414 16 411 19 q 411 22 408 22 l 397 22 l 384 22 z m 435 -5 l 435 58 l 442 58 l 442 -5 z m 985 25 q 985 12 990 7 q 996 1 1006 1 q 1017 1 1021 7 q 1027 12 1027 27 q 1027 34 1026 39 q 1023 46 1018 48 q 1014 49 1006 49 q 997 49 993 45 q 985 39 985 25 z m 976 25 q 976 42 985 49 q 991 58 1006 58 q 1011 58 1014 56 q 1018 55 1021 54 q 1026 52 1028 49 q 1030 46 1033 42 q 1035 39 1035 27 q 1035 13 1032 9 q 1027 1 1021 -3 q 1015 -6 1006 -6 q 1002 -6 998 -6 q 994 -5 990 -3 q 987 0 984 3 q 982 6 981 9 q 979 13 978 17 q 976 21 976 25 z m 592 -5 l 616 58 l 625 58 l 651 -5 l 642 -5 l 634 13 l 609 13 l 600 -5 z m 459 -5 l 459 58 l 466 58 l 466 1 l 495 1 l 495 -5 z m 892 -5 l 892 3 l 903 3 l 903 -5 z m 748 19 l 748 27 l 774 27 l 774 3 q 768 -3 762 -5 q 759 -5 755 -6 q 751 -6 748 -6 q 739 -6 733 -3 q 729 0 726 2 q 723 4 721 9 q 720 13 718 17 q 717 21 717 25 q 717 31 718 34 q 720 37 721 42 q 724 51 732 54 q 735 55 740 56 q 744 58 748 58 q 756 58 760 55 q 766 54 768 49 q 772 45 774 40 l 766 39 q 766 40 762 45 q 762 48 756 49 l 748 49 l 739 49 q 735 48 732 45 q 732 43 727 39 q 727 36 726 33 q 726 30 726 27 q 726 16 729 13 q 735 4 736 3 q 741 1 748 1 q 754 1 759 3 q 762 6 764 6 q 765 6 766 7 l 766 19 z m 657 -5 l 657 58 l 684 58 q 688 58 691 56 q 694 55 697 55 q 702 54 703 49 q 706 46 706 40 q 706 33 702 28 q 700 27 696 26 q 693 25 688 22 q 691 22 692 22 q 693 21 694 21 q 696 18 696 16 q 697 13 700 10 l 712 -5 l 702 -5 l 693 7 q 690 10 689 12 q 688 15 687 16 q 687 19 686 19 q 684 19 682 21 l 681 21 q 679 21 679 22 q 679 22 678 22 l 675 22 l 664 22 l 664 -5 z m 505 -5 l 505 58 l 514 58 l 514 1 l 544 1 l 544 -5 z m 961 16 l 969 15 q 966 3 960 0 q 954 -6 943 -6 q 934 -6 928 -3 q 924 0 922 3 q 921 6 918 9 q 915 21 915 27 q 915 33 918 45 q 925 52 928 54 q 933 55 936 56 q 939 58 943 58 q 948 58 952 56 q 957 55 960 54 q 963 51 965 48 q 967 45 969 40 l 960 39 q 960 45 954 48 q 951 49 943 49 q 934 49 931 48 q 928 46 928 44 q 927 42 924 39 q 924 36 923 33 q 922 30 922 27 q 922 18 927 13 q 927 10 928 8 q 930 6 931 3 q 936 1 943 1 q 951 1 955 6 q 960 10 961 16 z m 1047 -5 l 1047 58 l 1059 58 l 1074 13 q 1074 10 1076 8 q 1077 6 1077 3 q 1077 4 1080 13 l 1093 58 l 1105 58 l 1105 -5 l 1098 -5 l 1098 46 l 1080 -5 l 1072 -5 l 1054 48 l 1054 -5 z m 610 21 l 631 21 l 624 39 q 622 42 622 44 q 622 46 619 49 q 619 45 616 39 z m 352 -5 l 352 3 l 363 3 l 363 -5 z m 844 -5 l 844 58 l 852 58 l 852 1 l 883 1 l 883 -5 z m 787 -5 l 787 58 l 832 58 l 832 49 l 795 49 l 795 30 l 829 30 l 829 22 l 795 22 l 795 1 l 832 1 l 832 -5 z m 565 -5 l 565 21 l 541 58 l 552 58 l 564 39 q 567 30 570 28 q 571 30 572 33 q 574 36 577 39 l 589 58 l 598 58 l 573 21 l 573 -5 z m 376 -5 l 376 58 l 400 58 q 403 58 406 56 q 408 55 409 55 q 415 54 417 49 q 420 46 420 40 q 420 36 417 34 q 415 28 411 28 q 415 27 420 22 q 423 16 423 13 q 423 10 422 8 q 421 7 421 6 q 420 0 415 0 q 414 -3 412 -3 q 411 -3 409 -5 l 400 -5 z m 205 -5 l 187 58 l 196 58 l 205 16 q 207 12 207 9 q 207 6 208 3 q 210 10 210 15 l 222 58 l 232 58 l 241 25 q 243 18 244 14 q 246 9 246 3 q 247 6 247 9 q 247 12 249 16 l 259 58 l 267 58 l 249 -5 l 241 -5 l 229 42 q 228 46 228 49 q 226 46 226 42 l 213 -5 z m 123 -5 l 105 58 l 115 58 l 123 16 q 123 9 127 3 q 129 10 129 15 l 141 58 l 150 58 l 160 25 q 162 18 162 14 q 163 9 163 3 q 166 6 166 9 q 166 12 168 16 l 177 58 l 186 58 l 168 -5 l 160 -5 l 148 42 q 147 46 147 49 q 144 46 144 42 l 130 -5 z m 384 30 l 397 30 q 403 30 405 33 q 409 33 409 34 q 411 36 411 40 q 411 45 409 46 l 408 46 q 406 46 406 47 q 406 48 405 48 q 403 49 396 49 l 384 49 z m 285 -5 l 268 58 l 277 58 l 286 16 q 288 12 288 9 q 288 6 291 3 q 291 9 292 11 q 292 13 292 15 l 304 58 l 313 58 l 324 25 q 325 18 326 14 q 327 9 327 3 q 330 6 330 9 q 330 12 331 16 l 342 58 l 349 58 l 331 -5 l 324 -5 l 312 42 q 310 46 310 49 q 307 46 307 42 l 294 -5 z m 664 28 l 682 28 q 685 28 688 29 q 690 30 693 30 q 696 30 696 34 q 697 36 697 40 q 697 45 694 48 q 693 49 684 49 l 664 49 z m 384 1 l 400 1 q 403 1 405 3 l 409 3 q 411 6 414 7 l 414 13 q 414 16 411 19 q 411 22 408 22 l 397 22 l 384 22 z m 435 -5 l 435 58 l 442 58 l 442 -5 z m 985 25 q 985 12 990 7 q 996 1 1006 1 q 1017 1 1021 7 q 1027 12 1027 27 q 1027 34 1026 39 q 1023 46 1018 48 q 1014 49 1006 49 q 997 49 993 45 q 985 39 985 25 z m 976 25 q 976 42 985 49 q 991 58 1006 58 q 1011 58 1014 56 q 1018 55 1021 54 q 1026 52 1028 49 q 1030 46 1033 42 q 1035 39 1035 27 q 1035 13 1032 9 q 1027 1 1021 -3 q 1015 -6 1006 -6 q 1002 -6 998 -6 q 994 -5 990 -3 q 987 0 984 3 q 982 6 981 9 q 979 13 978 17 q 976 21 976 25 z m 592 -5 l 616 58 l 625 58 l 651 -5 l 642 -5 l 634 13 l 609 13 l 600 -5 z m 459 -5 l 459 58 l 466 58 l 466 1 l 495 1 l 495 -5 z m 892 -5 l 892 3 l 903 3 l 903 -5 z m 748 19 l 748 27 l 774 27 l 774 3 q 768 -3 762 -5 q 759 -5 755 -6 q 751 -6 748 -6 q 739 -6 733 -3 q 729 0 726 2 q 723 4 721 9 q 720 13 718 17 q 717 21 717 25 q 717 31 718 34 q 720 37 721 42 q 724 51 732 54 q 735 55 740 56 q 744 58 748 58 q 756 58 760 55 q 766 54 768 49 q 772 45 774 40 l 766 39 q 766 40 762 45 q 762 48 756 49 l 748 49 l 739 49 q 735 48 732 45 q 732 43 727 39 q 727 36 726 33 q 726 30 726 27 q 726 16 729 13 q 735 4 736 3 q 741 1 748 1 q 754 1 759 3 q 762 6 764 6 q 765 6 766 7 l 766 19 z m 657 -5 l 657 58 l 684 58 q 688 58 691 56 q 694 55 697 55 q 702 54 703 49 q 706 46 706 40 q 706 33 702 28 q 700 27 696 26 q 693 25 688 22 q 691 22 692 22 q 693 21 694 21 q 696 18 696 16 q 697 13 700 10 l 712 -5 l 702 -5 l 693 7 q 690 10 689 12 q 688 15 687 16 q 687 19 686 19 q 684 19 682 21 l 681 21 q 679 21 679 22 q 679 22 678 22 l 675 22 l 664 22 l 664 -5 z m 505 -5 l 505 58 l 514 58 l 514 1 l 544 1 l 544 -5 z m 961 16 l 969 15 q 966 3 960 0 q 954 -6 943 -6 q 934 -6 928 -3 q 924 0 922 3 q 921 6 918 9 q 915 21 915 27 q 915 33 918 45 q 925 52 928 54 q 933 55 936 56 q 939 58 943 58 q 948 58 952 56 q 957 55 960 54 q 963 51 965 48 q 967 45 969 40 l 960 39 q 960 45 954 48 q 951 49 943 49 q 934 49 931 48 q 928 46 928 44 q 927 42 924 39 q 924 36 923 33 q 922 30 922 27 q 922 18 927 13 q 927 10 928 8 q 930 6 931 3 q 936 1 943 1 q 951 1 955 6 q 960 10 961 16 z m 1047 -5 l 1047 58 l 1059 58 l 1074 13 q 1074 10 1076 8 q 1077 6 1077 3 q 1077 4 1080 13 l 1093 58 l 1105 58 l 1105 -5 l 1098 -5 l 1098 46 l 1080 -5 l 1072 -5 l 1054 48 l 1054 -5 z m 175 111 l 187 106 q 184 93 174 84 q 162 75 148 75 q 135 75 123 81 q 111 90 109 99 q 103 109 103 124 q 103 141 109 151 q 114 162 124 166 q 135 172 148 172 q 165 172 171 165 q 181 162 186 145 l 174 144 q 168 156 163 157 q 157 163 148 163 q 136 163 130 157 q 121 151 118 144 q 117 138 117 124 q 117 111 121 105 q 124 94 130 91 q 138 85 147 85 q 159 85 166 93 q 169 96 172 100 q 174 105 175 111 z m 199 123 q 199 135 202 144 q 205 153 213 159 q 219 166 227 169 q 235 172 244 172 q 258 172 268 166 q 277 162 285 150 q 291 135 291 124 q 291 117 290 111 q 288 105 285 99 q 277 87 267 81 q 255 75 244 75 q 237 75 232 76 q 226 78 220 81 q 210 87 205 99 q 199 109 199 123 z m 213 123 q 213 105 220 94 q 231 85 244 85 q 259 85 267 97 q 277 108 277 124 q 277 130 276 134 q 274 139 273 144 q 270 154 261 157 q 256 163 244 163 q 232 163 222 153 q 213 145 213 123 z m 306 78 l 306 171 l 324 171 l 346 105 q 351 96 351 91 q 354 94 357 106 l 381 171 l 396 171 l 396 78 l 384 78 l 384 156 l 357 78 l 345 78 l 318 157 l 318 78 z m 417 78 l 417 171 l 453 171 l 466 171 q 474 171 478 166 q 480 165 486 157 q 487 154 488 151 q 489 148 489 144 q 489 135 481 124 q 474 117 453 117 l 429 117 l 429 78 z m 429 126 l 454 126 q 468 126 469 132 q 475 133 475 144 q 475 151 474 153 q 468 159 463 159 q 462 162 453 162 l 429 162 z m 505 78 l 505 171 l 517 171 l 517 87 l 564 87 l 564 78 z m 579 78 l 579 171 l 648 171 l 648 162 l 591 162 l 591 132 l 643 132 l 643 120 l 591 120 l 591 87 l 649 87 l 649 78 z m 690 78 l 690 162 l 658 162 l 658 171 l 735 171 l 735 162 l 703 162 l 703 78 z m 748 78 l 748 171 l 817 171 l 817 162 l 760 162 l 760 132 l 813 132 l 813 120 l 760 120 l 760 87 l 819 87 l 819 78 z m 870 106 l 882 108 q 882 100 885 97 q 888 91 895 88 q 898 87 909 87 q 912 87 916 87 q 919 87 922 88 q 927 88 930 94 q 931 97 931 103 q 931 108 930 111 q 928 112 926 113 q 924 114 921 117 q 919 117 904 120 q 897 123 892 124 q 888 124 885 126 q 879 129 876 136 q 873 138 872 141 q 871 144 871 147 q 871 156 877 162 q 879 165 882 166 q 885 168 889 171 q 892 172 907 172 q 918 172 924 169 q 928 166 931 164 q 934 163 936 159 q 942 154 942 145 l 930 144 q 927 156 922 157 q 918 162 907 162 q 892 162 889 157 q 885 153 885 147 q 885 142 889 139 q 889 139 907 132 q 915 130 920 128 q 925 127 928 126 q 933 124 935 122 q 937 120 940 117 q 943 112 943 103 q 943 93 940 88 q 934 82 928 79 q 924 78 920 76 q 915 75 909 75 q 903 75 897 76 q 891 78 888 79 q 880 81 873 91 q 870 97 870 106 z m 961 78 l 961 171 l 1029 171 l 1029 162 l 975 162 l 975 132 l 1027 132 l 1027 120 l 975 120 l 975 87 l 1032 87 l 1032 78 z m 1074 78 l 1074 162 l 1044 162 l 1044 171 l 1117 171 l 1117 162 l 1086 162 l 1086 78 z m 112 190 l 112 283 l 150 283 l 163 283 q 166 283 175 280 q 177 279 179 276 q 181 273 183 270 q 186 267 186 259 q 186 246 177 237 q 172 229 150 229 l 127 229 l 127 190 z m 127 241 l 150 241 q 163 241 168 244 q 174 250 174 256 q 174 259 172 262 q 171 265 169 268 q 165 273 162 273 q 160 274 150 274 l 127 274 z m 201 190 l 201 283 l 268 283 l 268 274 l 214 274 l 214 244 l 265 244 l 265 234 l 214 234 l 214 202 l 271 202 l 271 190 z m 288 190 l 288 283 l 331 283 q 345 283 351 282 q 358 279 361 274 q 364 262 364 259 q 364 249 358 243 q 352 237 337 234 q 340 231 342 231 q 343 231 345 229 q 352 222 355 216 l 372 190 l 357 190 l 343 210 q 342 214 340 217 q 337 220 336 223 q 333 225 332 227 q 331 229 330 229 q 327 231 324 231 q 322 234 316 234 l 303 234 l 303 190 z m 303 243 l 327 243 q 339 243 342 244 q 346 249 349 250 q 351 253 351 259 q 351 265 346 270 q 342 274 331 274 l 303 274 z m 381 222 l 391 222 q 391 219 392 216 q 394 213 396 210 q 397 208 400 206 q 402 204 405 204 q 414 201 420 201 q 423 201 426 201 q 429 201 430 202 q 439 205 441 208 q 441 210 442 212 q 442 214 442 216 q 442 222 441 223 q 436 226 430 229 q 429 231 425 231 q 421 231 415 234 q 402 235 396 240 q 388 246 385 249 q 384 253 384 261 q 384 264 384 268 q 385 271 388 274 q 390 280 400 283 q 403 286 417 286 q 429 286 435 283 q 444 279 447 273 q 453 264 453 259 l 441 256 q 438 267 433 270 q 427 276 417 276 q 405 276 400 270 q 396 267 396 261 q 396 255 400 253 q 402 250 417 247 q 430 241 439 241 q 442 238 445 236 q 448 234 450 231 q 454 226 454 217 q 454 210 450 204 q 447 199 444 197 q 442 195 439 192 q 427 189 420 189 q 409 189 397 192 q 393 195 390 197 q 387 199 384 204 q 382 208 382 212 q 381 216 381 222 z m 468 237 q 468 258 480 273 q 493 286 513 286 q 519 286 524 284 q 529 283 537 280 q 543 277 546 272 q 549 268 552 262 q 558 252 558 237 q 558 223 552 211 q 546 201 537 195 q 525 189 513 189 q 499 189 489 196 q 475 204 474 214 q 468 222 468 237 z m 480 237 q 480 219 489 210 q 498 201 513 201 q 528 201 537 210 q 544 220 544 237 q 544 243 544 249 q 543 255 540 259 q 535 267 531 270 q 523 276 513 276 q 505 276 500 274 q 496 271 489 267 q 480 258 480 237 z m 573 190 l 573 283 l 586 283 l 636 211 l 636 283 l 648 283 l 648 190 l 636 190 l 585 264 l 585 190 z m 658 190 l 694 283 l 708 283 l 747 190 l 732 190 l 721 220 l 682 220 l 670 190 z m 684 229 l 717 229 l 708 255 q 705 261 704 266 q 702 271 700 274 q 700 270 698 266 q 697 261 696 256 z m 754 190 l 754 283 l 768 283 l 768 202 l 814 202 l 814 190 z m 922 283 l 934 283 l 934 231 q 934 214 931 208 q 928 199 921 195 q 913 189 898 189 q 883 189 877 195 q 873 196 870 200 q 867 204 864 208 q 862 211 862 231 l 862 283 l 873 283 l 873 231 q 873 216 876 211 q 879 205 883 204 q 886 202 889 202 q 892 201 897 201 q 909 201 916 205 q 922 211 922 231 z m 951 222 l 963 222 q 963 219 964 216 q 966 213 967 210 q 969 208 971 206 q 973 204 976 204 q 985 201 990 201 q 1000 201 1005 202 q 1008 204 1012 208 q 1014 210 1014 216 q 1014 222 1012 223 q 1009 225 1008 226 q 1008 228 1005 229 q 1002 231 998 231 q 993 231 987 234 q 981 235 976 236 q 970 237 969 240 q 961 243 960 249 q 955 253 955 261 q 955 267 960 274 q 961 280 970 283 q 976 286 988 286 q 993 286 998 286 q 1003 286 1006 283 q 1015 279 1020 273 q 1021 270 1022 266 q 1024 262 1024 259 l 1012 256 q 1009 261 1008 264 q 1008 268 1005 270 q 1000 276 988 276 q 975 276 973 270 q 967 268 967 261 q 967 256 970 253 q 973 250 988 247 q 1005 241 1009 241 q 1014 238 1017 236 q 1020 234 1021 231 q 1026 228 1026 217 q 1026 208 1021 204 q 1018 199 1016 197 q 1014 195 1009 192 q 1000 189 993 189 q 985 189 980 190 q 975 190 970 192 q 967 195 964 197 q 960 199 957 204 q 954 208 952 212 q 951 216 951 222 z m 1044 190 l 1044 283 l 1111 283 l 1111 274 l 1057 274 l 1057 244 l 1107 244 l 1107 234 l 1057 234 l 1057 202 l 1113 202 l 1113 190 z m 307 388 q 307 403 285 406 q 282 406 278 407 q 273 408 267 408 l 258 397 l 234 372 q 228 364 222 358 q 217 352 210 348 q 219 345 232 343 q 235 343 240 343 q 246 343 250 345 q 273 346 285 357 q 307 375 307 388 z m 324 433 q 324 439 316 439 q 313 439 291 432 l 274 417 q 271 414 268 408 l 294 412 q 300 412 310 420 q 324 429 324 433 z m 343 460 q 343 457 339 457 q 336 457 335 458 q 334 459 331 459 q 316 456 297 436 q 300 439 304 440 q 307 442 310 444 q 321 445 330 444 q 336 444 336 436 l 336 430 q 328 417 294 409 q 321 406 321 391 q 321 373 292 354 q 282 348 270 344 q 259 340 247 339 q 228 334 217 336 q 208 336 198 340 q 189 334 181 334 l 178 334 q 169 337 163 339 l 168 339 q 180 339 187 345 l 187 346 q 177 340 165 340 q 148 340 139 349 q 124 360 124 381 q 124 387 126 392 q 127 397 130 405 q 141 427 166 444 q 174 451 182 454 q 190 456 198 457 q 214 457 220 451 q 213 456 205 456 q 196 456 186 450 q 171 444 169 441 q 154 433 139 415 q 126 394 126 379 q 126 372 128 368 q 129 363 132 358 q 138 349 148 346 q 153 345 156 344 q 159 343 162 343 q 168 343 172 344 q 177 346 183 349 q 166 361 166 382 q 169 402 190 417 l 187 412 q 184 412 181 406 q 172 397 172 387 q 172 367 195 354 q 207 361 207 363 q 210 367 213 370 q 216 373 219 376 q 222 379 222 384 q 223 388 226 393 l 226 391 q 226 384 225 379 l 243 400 q 289 453 319 462 q 306 466 298 466 q 279 465 256 453 q 229 439 229 420 q 229 414 234 409 q 235 408 235 406 q 226 412 226 421 q 226 438 246 454 q 270 472 297 469 q 306 469 324 463 l 330 463 q 337 463 342 460 z m 346 363 q 345 357 334 346 q 324 340 316 340 q 309 340 309 349 q 309 357 318 369 l 316 369 q 315 367 310 367 q 310 367 309 369 q 313 369 324 379 l 325 379 l 330 385 q 334 390 334 393 l 339 393 q 343 393 343 391 q 343 385 334 375 l 324 364 q 315 351 315 346 q 315 342 321 342 q 328 342 339 357 q 340 358 342 359 q 343 360 346 363 z m 354 405 q 348 396 339 396 q 334 396 328 400 l 333 400 q 343 400 346 411 l 346 414 l 354 411 q 355 409 354 405 z m 406 433 q 406 426 360 370 l 358 370 q 345 354 345 345 q 345 340 349 340 q 358 340 369 355 q 370 357 372 358 q 373 358 375 361 q 375 354 363 345 q 355 339 346 339 q 337 340 337 348 q 336 355 367 394 l 385 417 l 394 426 q 399 432 402 441 q 406 438 406 433 z m 432 433 q 432 427 384 370 q 369 352 369 345 q 369 340 375 340 q 381 340 394 355 l 400 361 q 399 354 387 345 q 379 339 370 339 q 361 340 361 348 q 361 357 391 394 l 409 417 l 418 426 q 426 435 427 441 q 432 438 432 433 z m 403 333 q 379 328 366 315 q 355 301 355 298 q 355 292 361 292 q 363 291 372 294 q 375 297 378 300 q 382 304 387 309 z m 447 430 q 444 409 427 393 q 427 391 426 391 q 426 391 426 390 q 421 384 416 378 q 411 373 406 366 q 403 363 403 360 q 402 363 405 369 q 396 355 396 348 q 396 343 400 343 q 402 343 408 346 q 430 364 439 397 l 439 393 l 439 388 q 442 385 442 381 q 442 378 435 366 l 423 346 l 409 328 q 414 331 426 337 l 424 336 q 421 333 416 329 q 411 325 406 318 l 394 303 l 388 295 q 379 286 369 283 q 360 283 355 289 q 346 292 352 303 q 354 304 356 307 q 357 310 360 313 l 361 315 l 351 313 q 376 331 393 333 q 394 333 396 334 q 397 334 399 334 l 400 334 l 403 334 l 412 348 q 406 342 402 341 q 397 340 394 340 q 387 340 387 348 q 387 366 418 394 l 421 396 l 436 411 q 439 417 442 422 q 445 426 447 430 z m 618 453 q 609 456 603 456 q 588 456 575 452 q 562 448 549 441 q 543 438 539 434 q 535 430 531 427 q 549 426 579 408 q 612 441 636 450 z m 649 447 q 643 445 636 443 q 630 441 622 433 q 618 430 600 412 l 589 402 l 604 393 q 607 397 613 404 q 619 411 627 420 z m 663 472 q 663 471 661 469 q 661 459 657 448 l 658 447 l 657 447 q 649 429 637 417 l 613 388 q 616 387 618 387 q 619 387 622 385 q 622 382 621 382 q 618 382 616 383 q 615 384 612 385 q 594 366 592 349 q 589 343 589 340 q 589 334 595 334 q 607 334 621 354 l 627 363 q 642 384 646 400 l 646 405 q 646 403 648 402 l 648 400 q 645 379 633 361 l 613 322 q 613 328 618 342 q 600 328 591 328 q 577 328 580 346 q 580 355 586 366 q 592 378 601 391 l 586 399 l 573 385 q 568 379 560 370 q 552 361 540 346 q 516 322 498 322 l 493 322 q 489 322 480 327 q 480 327 483 327 q 496 324 510 337 q 498 331 481 331 q 465 331 454 339 l 456 339 q 441 349 441 370 q 441 385 447 393 q 456 417 481 433 q 490 441 498 443 q 507 445 516 447 q 531 447 537 441 l 535 441 q 532 444 522 444 q 507 444 484 430 q 468 418 456 405 q 442 384 442 367 q 442 343 465 336 q 474 333 478 333 q 510 334 547 375 l 576 405 q 553 418 525 418 l 523 418 q 520 412 520 405 q 522 405 528 396 q 517 402 517 411 q 517 415 519 418 q 504 415 499 412 q 472 402 475 381 q 475 367 484 357 l 487 354 q 469 372 469 385 q 469 405 487 418 q 502 429 525 429 q 546 453 577 457 q 585 459 601 459 q 609 459 624 456 l 642 451 l 651 451 l 652 450 q 658 460 661 475 l 663 475 z m 682 375 q 682 370 681 367 q 673 360 668 354 q 663 348 658 340 l 660 340 l 661 340 q 660 339 658 339 q 657 339 657 337 q 649 337 649 340 q 649 346 663 360 q 673 373 673 376 q 675 381 669 385 q 651 360 637 354 l 631 351 l 628 352 q 634 352 648 367 q 661 379 666 387 q 666 388 665 388 q 664 388 664 390 q 664 391 675 400 q 675 402 676 402 l 678 400 q 678 399 670 388 q 682 384 682 375 z m 726 379 q 726 388 720 385 q 714 385 711 382 q 706 379 697 367 q 688 355 688 348 q 687 345 691 345 q 700 348 706 355 q 712 367 712 372 q 712 375 711 375 q 717 375 717 367 l 715 364 q 718 367 720 371 q 723 375 726 378 z m 754 393 q 748 393 741 385 q 735 378 729 369 q 723 360 715 348 q 708 333 702 324 q 696 316 694 313 q 675 289 664 289 q 655 288 651 295 q 651 303 651 303 q 651 310 657 316 q 654 315 649 315 q 664 330 682 334 q 684 334 684 335 q 685 336 688 336 l 690 334 q 661 325 655 307 q 654 304 654 300 q 654 298 655 297 q 655 295 657 295 q 669 294 685 318 l 696 333 l 702 342 q 697 340 694 340 q 682 340 682 352 q 682 366 702 384 q 711 393 718 393 q 729 393 729 381 l 730 381 l 738 390 q 745 397 751 397 q 756 397 759 393 z m 781 382 q 781 373 765 364 q 763 363 762 363 l 760 363 q 756 363 751 370 q 754 367 759 367 q 769 373 772 384 l 772 387 l 772 388 l 772 390 q 766 390 753 376 l 753 375 q 748 369 748 365 q 747 361 747 358 q 745 360 745 367 q 742 361 741 357 q 738 351 738 346 q 738 345 739 343 q 739 340 745 340 q 760 346 771 355 q 774 358 778 361 q 775 357 772 353 q 769 349 762 345 q 750 337 741 340 q 741 339 739 340 q 730 340 730 349 q 730 364 747 379 q 756 393 771 393 q 774 393 775 391 q 781 387 781 382 z m 841 433 q 841 427 793 370 q 780 354 780 345 q 780 340 784 340 q 793 340 804 355 q 805 357 806 358 q 808 358 810 361 q 810 354 798 345 q 790 339 780 339 q 772 342 772 348 q 772 360 801 394 l 819 417 l 828 426 q 837 435 837 441 q 841 438 841 433 z m 922 387 q 897 396 895 415 q 888 411 880 407 q 873 403 868 399 q 840 372 840 349 q 840 340 844 339 l 847 339 l 850 339 q 873 339 892 354 q 898 360 906 368 q 915 375 922 387 z m 952 430 l 940 430 q 922 429 897 417 q 900 396 925 391 l 936 405 z m 979 457 q 960 457 944 454 q 928 451 916 444 q 924 451 935 456 q 946 460 960 463 q 930 465 907 445 q 903 442 897 430 q 907 433 917 434 q 927 436 939 435 q 942 435 946 435 q 951 435 958 433 q 961 438 966 444 q 972 450 979 457 z m 1074 459 q 1071 454 1067 450 q 1063 447 1056 444 q 1044 436 1033 436 l 1030 436 q 1029 436 1027 438 q 1029 439 1029 440 q 1029 442 1032 445 q 1018 456 994 456 l 988 448 l 973 430 q 985 429 996 428 q 1006 426 1015 426 q 1036 426 1044 430 q 1038 424 1021 421 q 1008 418 994 423 l 970 427 q 964 420 959 414 q 954 409 951 403 l 940 388 l 948 388 q 985 391 991 406 l 993 406 q 988 397 973 390 q 966 387 959 386 q 952 384 946 384 l 939 384 q 928 372 922 363 q 915 354 909 348 q 889 327 873 327 q 865 328 856 328 q 871 328 888 343 q 867 334 855 334 l 846 336 l 858 324 q 846 330 838 337 q 837 337 831 340 q 813 354 811 375 q 811 382 811 388 q 811 394 814 400 q 819 414 826 424 q 834 433 844 444 q 870 466 889 466 q 900 466 907 460 l 906 459 q 901 463 892 463 q 873 460 852 444 q 834 429 825 414 q 813 393 813 375 q 816 348 837 340 q 834 349 835 358 q 838 381 852 397 q 868 418 897 430 q 900 433 900 439 l 913 453 q 933 469 964 469 q 972 469 977 469 q 982 469 990 468 l 991 468 q 1002 475 1010 479 q 1018 483 1027 481 q 1033 481 1036 478 q 1020 475 1020 475 q 1017 474 1013 472 q 1009 471 1005 468 q 1011 466 1017 466 q 1023 465 1030 462 q 1045 457 1054 457 q 1068 457 1074 459 z m 982 354 q 978 358 978 364 q 978 367 978 370 q 979 372 979 375 q 964 355 966 346 q 966 343 969 343 q 972 343 982 354 z m 1002 385 q 1002 388 999 388 q 996 388 993 387 q 991 385 988 379 q 981 364 981 360 q 981 355 982 354 l 987 358 l 987 360 l 987 358 q 988 360 988 360 q 988 361 990 363 q 993 372 993 375 q 993 376 991 378 q 994 372 994 370 q 999 375 1002 385 z m 1008 381 q 1008 373 997 358 q 984 345 978 340 l 966 340 q 957 340 957 348 q 957 360 973 379 q 984 393 997 393 q 1008 393 1008 381 z m 1057 384 q 1059 381 1051 367 q 1042 355 1039 352 l 1021 336 q 1011 325 1008 313 q 1009 331 1021 345 q 1027 351 1030 356 q 1033 360 1036 366 q 1038 367 1039 372 l 1039 367 q 1039 367 1038 364 q 1041 367 1047 379 q 1047 381 1048 382 q 1048 382 1048 384 q 1048 391 1041 388 q 1041 388 1029 379 q 1026 372 1020 366 q 1015 361 1009 354 q 1002 345 1000 340 q 999 339 993 327 q 993 330 992 334 q 991 337 993 340 q 996 351 1006 361 l 1015 372 q 1023 382 1023 388 q 1023 390 1022 392 q 1021 393 1021 394 q 1030 391 1030 385 q 1039 393 1050 393 q 1056 390 1057 384 z m 1116 405 l 1093 405 q 1092 402 1084 393 q 1075 384 1063 367 q 1060 367 1057 360 q 1051 352 1051 345 q 1051 340 1054 340 q 1062 340 1075 355 l 1077 357 q 1078 358 1078 359 q 1078 360 1080 361 q 1080 354 1069 345 q 1062 339 1051 339 q 1044 342 1042 348 q 1042 351 1048 363 l 1066 384 l 1083 405 l 1057 408 q 1051 409 1042 409 l 1029 409 q 1011 409 993 402 l 991 402 q 1006 417 1038 417 q 1039 417 1050 414 q 1062 412 1083 409 l 1087 408 q 1092 415 1096 420 q 1099 426 1102 430 q 1105 429 1105 423 q 1105 418 1102 415 l 1096 406 l 1108 405 l 1117 405 l 1119 405 l 1123 405 z m 1126 385 q 1126 381 1116 376 l 1114 375 q 1119 379 1119 387 l 1119 393 l 1114 393 q 1107 393 1105 387 q 1105 384 1110 361 q 1111 340 1086 340 q 1072 340 1069 349 q 1068 351 1068 354 q 1068 366 1086 369 l 1092 367 l 1089 367 q 1083 367 1080 364 q 1075 357 1075 354 q 1075 342 1087 342 q 1099 342 1099 358 q 1099 366 1098 370 q 1096 375 1096 381 q 1096 396 1110 396 q 1113 396 1114 395 q 1116 394 1119 394 q 1125 391 1125 390 q 1126 388 1126 385 z"},"S":{"x_min":0,"x_max":403,"ha":403,"o":"m 247 313 q 268 323 286 336 q 305 349 319 363 q 333 377 340 391 q 348 405 348 419 q 347 442 335 459 q 323 476 285 478 q 252 479 220 467 q 188 455 164 436 q 140 417 126 392 q 113 368 117 343 q 120 323 136 304 q 153 286 176 268 q 200 249 227 230 q 254 211 278 191 q 303 171 320 148 q 338 125 342 100 q 347 71 332 46 q 318 22 290 4 q 263 -14 226 -24 q 189 -34 148 -34 q 63 -34 13 -5 q -37 24 -45 65 q -48 75 -46 88 q -44 101 -32 112 q -19 123 7 129 q 33 135 79 131 q 53 113 46 90 q 39 66 48 45 q 58 24 83 9 q 108 -6 148 -6 q 176 -6 196 0 q 216 7 228 18 q 241 29 246 44 q 252 58 251 74 q 250 93 234 110 q 218 128 195 145 q 172 162 144 180 q 117 198 92 218 q 68 239 50 263 q 31 287 25 317 q 18 353 36 386 q 54 420 92 446 q 129 472 182 488 q 236 504 301 505 q 369 506 404 485 q 439 464 448 418 q 452 396 438 369 q 425 342 397 322 q 369 303 330 298 q 292 292 247 313 z"},"Z":{"x_min":0,"x_max":570,"ha":570,"o":"m 125 373 q 107 407 113 430 q 119 453 136 467 q 154 481 176 487 q 199 493 213 493 q 271 495 315 486 q 359 477 398 470 q 438 463 478 464 q 517 464 567 484 q 575 487 587 486 q 599 485 608 480 q 617 474 619 466 q 621 458 610 448 q 603 430 572 394 q 542 358 499 314 q 456 269 406 222 q 355 175 308 135 q 261 95 222 68 q 184 41 165 36 q 204 48 249 46 q 294 44 340 42 q 385 41 428 46 q 472 51 508 78 q 519 56 515 36 q 511 15 496 0 q 482 -16 459 -24 q 436 -33 410 -32 q 365 -31 324 -24 q 284 -17 245 -10 q 206 -3 167 2 q 128 6 86 4 q 79 3 65 2 q 51 1 36 4 q 22 6 11 13 q 0 20 -1 35 q 19 44 56 68 q 92 93 137 126 q 182 159 233 198 q 284 238 334 278 q 383 318 428 356 q 473 394 507 425 q 470 417 430 417 q 390 417 352 420 q 313 422 278 424 q 242 427 212 424 q 182 420 160 409 q 137 398 125 373 z"},"x":{"x_min":0,"x_max":419,"ha":419,"o":"m 157 298 q 179 298 196 290 q 214 282 219 251 l 222 219 q 244 251 273 274 q 302 296 345 295 q 366 295 383 284 q 400 274 405 250 q 409 229 398 212 q 387 196 370 187 q 353 178 334 178 q 314 178 301 190 q 327 195 336 211 q 345 227 344 249 q 343 265 332 268 q 321 271 309 260 q 288 241 269 206 q 250 170 229 132 q 231 109 232 94 q 234 78 236 73 q 243 52 256 44 q 269 36 286 40 q 304 43 324 56 q 344 69 366 89 q 387 107 407 133 q 427 159 447 184 q 447 183 450 180 q 453 176 455 170 q 457 164 456 156 q 454 148 447 139 q 407 90 372 59 q 337 28 292 7 q 280 1 270 0 q 261 -2 250 -3 q 189 -6 167 41 q 148 21 125 10 q 102 -2 73 -2 q 50 -2 34 6 q 17 13 7 24 q -3 34 -6 48 q -9 61 -5 73 q -1 87 13 96 q 27 105 44 106 q 62 108 80 102 q 98 97 111 82 q 90 84 77 81 q 64 78 56 72 q 48 66 46 58 q 43 50 43 41 q 43 30 52 24 q 60 17 73 17 q 81 17 90 22 q 100 26 108 33 q 117 40 124 47 q 132 54 135 58 q 145 70 155 89 q 151 121 152 155 q 153 189 148 221 q 145 242 140 250 q 135 257 128 256 q 122 254 114 246 q 105 237 94 224 q 74 203 56 178 q 39 153 30 140 q 29 141 26 145 q 24 149 22 156 q 21 162 22 170 q 23 179 30 188 q 37 196 45 209 q 53 222 67 236 q 85 258 107 278 q 129 298 157 298 z"},"_":{"x_min":0,"x_max":369,"ha":369,"o":"m -43 -28 q -56 -26 -58 -22 q -60 -17 -54 -12 q -48 -8 -37 -4 q -26 0 -12 1 l 448 3 q 460 0 460 -4 q 461 -9 454 -14 q 448 -18 436 -22 q 425 -26 413 -29 z"},"v":{"x_min":0,"x_max":294,"ha":294,"o":"m 289 255 q 292 228 276 190 q 259 152 232 116 q 205 79 174 48 q 142 18 115 5 q 90 -6 66 1 q 43 8 35 34 q 30 52 26 80 q 23 109 23 142 q 23 175 26 210 q 30 244 39 273 q 42 285 54 290 q 67 294 80 293 q 93 292 104 288 q 114 284 114 280 q 108 254 104 222 q 101 191 100 162 q 100 133 101 110 q 102 86 104 76 q 110 49 116 50 q 122 50 139 68 q 151 81 164 101 q 176 121 186 144 q 197 168 204 192 q 211 216 212 238 q 214 259 208 276 q 203 292 188 299 q 205 303 222 302 q 240 301 254 295 q 268 289 278 278 q 287 268 289 255 z"},"O":{"x_min":0,"x_max":471,"ha":471,"o":"m 9 340 q 18 355 44 370 q 70 384 103 389 q 130 439 184 472 q 238 504 302 506 q 370 508 409 478 q 448 449 464 404 q 480 358 477 304 q 474 250 458 203 q 440 153 413 109 q 386 65 348 32 q 310 0 260 -19 q 211 -38 150 -36 q 89 -36 49 -13 q 9 10 -14 44 q -37 78 -44 117 q -52 156 -48 187 q -43 220 -30 262 q -17 303 9 340 z m 310 478 q 295 478 276 466 q 257 455 238 434 q 218 414 202 388 q 185 361 174 332 q 162 302 159 270 q 156 239 165 210 q 128 221 110 247 q 93 273 88 302 q 78 273 72 239 q 65 205 64 171 q 62 137 66 106 q 70 74 80 50 q 91 26 108 11 q 125 -4 151 -4 q 188 -4 220 16 q 253 37 280 70 q 307 104 328 148 q 349 191 362 236 q 376 282 380 325 q 385 368 379 402 q 373 436 356 457 q 339 478 310 478 z"},"C":{"x_min":0,"x_max":401,"ha":401,"o":"m 385 90 q 364 63 336 42 q 309 21 279 6 q 249 -9 218 -18 q 186 -27 157 -29 q 121 -32 81 -23 q 41 -14 8 10 q -25 34 -47 74 q -69 114 -70 173 q -72 225 -50 280 q -29 334 12 380 q 54 426 113 459 q 172 492 246 502 q 324 512 365 494 q 406 475 416 443 q 427 411 411 374 q 395 336 360 310 q 326 283 276 276 q 225 268 167 295 q 200 288 230 301 q 260 314 282 336 q 303 359 315 386 q 327 413 325 435 q 323 457 306 468 q 288 480 251 472 q 200 461 161 430 q 122 400 95 359 q 68 318 54 270 q 40 223 40 178 q 40 130 49 96 q 58 62 74 41 q 90 20 112 10 q 133 1 157 1 q 199 1 254 28 q 308 54 359 104 q 393 141 426 185 q 426 184 429 180 q 432 177 434 171 q 435 165 434 157 q 433 149 426 140 q 415 126 406 114 q 396 101 385 90 z"},"W":{"x_min":0,"x_max":760,"ha":760,"o":"m 335 27 q 333 31 332 34 q 330 38 328 42 q 294 10 258 -10 q 222 -31 183 -33 q 139 -35 113 -16 q 87 4 76 34 q 65 64 68 100 q 70 135 84 167 q 93 200 106 240 q 119 281 133 322 q 147 362 162 400 q 176 438 188 468 q 111 455 73 424 q 35 392 24 356 q 14 319 24 282 q 35 246 55 223 q 12 225 -20 237 q -52 249 -71 267 q -90 285 -96 308 q -102 330 -93 353 q -71 410 6 448 q 83 486 200 496 q 216 497 232 496 q 249 496 263 494 q 277 491 288 486 q 299 482 303 475 q 308 466 308 457 q 309 448 307 440 q 300 411 282 372 q 264 333 242 288 q 221 244 200 198 q 179 153 166 112 q 149 60 162 35 q 174 10 199 11 q 214 11 232 22 q 249 34 267 53 q 285 72 303 96 q 321 119 339 142 q 367 180 396 239 q 426 298 474 378 q 478 385 488 389 q 498 393 509 394 q 520 396 531 394 q 542 392 549 387 q 545 376 530 345 q 515 314 496 274 q 478 235 460 191 q 443 147 434 109 q 424 71 426 44 q 429 17 452 11 q 483 15 510 42 q 537 70 564 111 q 590 152 616 202 q 642 252 670 300 q 698 349 729 392 q 760 436 796 464 q 843 500 887 498 q 931 497 967 479 q 916 450 873 401 q 830 352 790 296 q 751 240 714 182 q 676 125 636 78 q 597 31 553 0 q 509 -30 457 -32 l 458 -33 l 452 -33 q 403 -35 376 -18 q 348 -2 334 26 z"},"A":{"x_min":0,"x_max":711,"ha":711,"o":"m -19 64 q -16 82 -10 96 q -4 111 8 124 q 20 136 42 146 q 63 156 98 164 l 144 174 q 176 235 220 292 q 263 349 316 394 q 368 439 428 466 q 488 494 553 496 q 610 496 642 476 q 675 456 688 418 q 696 392 688 342 q 681 292 666 229 q 650 166 630 97 q 609 28 591 -35 q 565 -32 544 -26 q 522 -19 508 -8 q 493 3 488 19 q 484 35 492 58 q 503 85 515 114 q 527 144 538 174 q 458 170 384 158 q 311 145 241 128 q 221 80 207 37 q 193 -6 187 -38 q 147 -40 126 -30 q 105 -19 97 -4 q 89 11 90 28 q 91 44 94 55 q 97 65 100 74 q 104 84 108 94 q 76 86 44 78 q 12 71 -19 64 z m 570 460 q 524 461 482 439 q 440 417 402 380 q 364 343 332 295 q 299 247 273 196 q 304 200 336 204 q 368 207 402 209 q 436 211 473 212 q 510 214 553 214 q 571 261 585 305 q 599 349 604 384 q 609 418 602 438 q 594 459 570 460 z"},"f":{"x_min":0,"x_max":196,"ha":196,"o":"m 184 430 q 208 431 228 422 q 248 413 251 394 q 254 380 246 370 q 239 359 225 353 q 211 347 194 346 q 176 344 159 348 q 185 353 194 365 q 204 377 206 388 q 207 398 202 404 q 197 410 189 410 q 181 409 171 400 q 161 390 154 369 q 146 346 137 320 q 128 294 121 271 l 63 60 q 101 71 141 99 q 181 127 223 184 q 223 183 226 180 q 229 176 231 170 q 233 164 232 156 q 230 147 222 138 q 190 94 144 68 q 99 41 55 30 l 25 -80 q 19 -101 12 -114 q 5 -128 -3 -135 q -11 -142 -20 -144 q -28 -146 -37 -146 q -57 -145 -65 -134 q -73 -123 -66 -103 l -27 25 q -38 30 -37 40 q -36 49 -19 51 l 66 336 q 79 380 106 404 q 133 428 184 430 z"},"Q":{"x_min":0,"x_max":506,"ha":506,"o":"m 367 -49 q 335 -48 310 -39 q 284 -30 261 -19 q 210 -37 150 -36 q 89 -36 49 -13 q 9 10 -14 44 q -37 78 -44 117 q -52 156 -48 187 q -43 220 -30 262 q -17 303 9 340 q 18 355 44 370 q 70 384 103 389 q 130 439 184 472 q 238 504 302 506 q 370 508 409 478 q 448 449 464 404 q 480 358 477 304 q 474 250 458 203 q 438 146 404 96 q 371 46 323 13 q 350 5 380 4 q 410 2 444 10 q 436 -22 417 -36 q 398 -50 367 -49 z m 310 478 q 295 478 276 466 q 257 455 238 434 q 218 414 202 388 q 185 361 174 332 q 162 302 159 270 q 156 239 165 210 q 128 221 110 247 q 93 273 88 302 q 78 273 72 239 q 65 205 64 171 q 62 137 66 106 q 70 74 80 50 q 91 26 108 11 q 125 -4 151 -4 q 181 -4 206 9 q 188 17 168 20 q 149 24 126 22 q 155 50 185 50 q 215 49 249 38 q 282 67 308 112 q 334 156 352 204 q 369 253 377 302 q 385 351 380 390 q 376 429 359 454 q 342 478 310 478 z"},"w":{"x_min":0,"x_max":438,"ha":438,"o":"m 427 255 q 430 228 414 190 q 397 152 370 116 q 344 79 312 48 q 281 18 254 5 q 241 -1 227 -2 q 213 -4 201 0 q 189 3 180 12 q 171 20 168 35 q 165 49 165 72 q 165 94 169 120 q 153 100 140 85 q 127 70 115 57 q 103 44 90 32 q 76 21 58 9 q 48 1 34 0 q 20 -1 8 3 q -4 7 -12 16 q -20 25 -19 37 q -16 94 5 156 q 26 217 51 273 q 56 285 69 289 q 82 293 96 292 q 109 292 118 288 q 128 284 127 280 l 67 79 q 60 52 68 52 q 75 52 92 70 q 108 88 132 118 q 155 147 179 178 q 190 228 207 274 q 211 286 224 290 q 236 295 249 294 q 262 293 272 289 q 282 285 282 281 q 276 255 268 224 q 260 192 254 162 q 248 133 244 109 q 241 85 243 75 q 248 48 254 49 q 260 50 277 68 q 296 87 314 122 q 333 156 344 192 q 354 228 352 258 q 349 288 327 299 q 344 303 361 302 q 378 301 392 295 q 407 289 416 278 q 426 268 427 255 z"},"E":{"x_min":0,"x_max":474,"ha":474,"o":"m 461 89 q 416 37 352 4 q 288 -29 211 -37 q 163 -42 123 -36 q 83 -30 54 -16 q 25 -3 8 16 q -8 35 -9 57 q -10 73 2 92 q 14 110 36 126 q 57 142 88 154 q 118 167 154 173 q 107 183 75 204 q 43 225 25 250 q 7 274 2 300 q -2 327 6 349 q 19 383 46 412 q 74 442 113 463 q 152 484 200 495 q 248 506 301 505 q 369 503 416 483 q 462 463 474 420 q 479 402 467 375 q 455 348 429 327 q 403 306 366 299 q 328 292 283 313 q 320 336 344 365 q 368 394 367 421 q 366 444 352 461 q 339 478 301 478 q 251 478 210 460 q 168 442 140 412 q 132 404 124 386 q 117 369 114 348 q 112 327 118 304 q 124 281 143 261 q 162 241 197 226 q 232 212 289 208 q 295 208 292 200 q 289 193 282 184 q 275 175 266 167 q 258 159 252 156 q 226 153 196 144 q 167 134 142 120 q 118 105 104 86 q 89 68 94 49 q 99 26 131 10 q 163 -5 218 -1 q 243 1 272 9 q 300 17 328 30 q 357 44 384 62 q 412 81 435 104 q 451 122 468 142 q 486 163 502 184 q 502 183 504 180 q 507 176 508 170 q 510 164 509 156 q 508 148 501 139 q 491 125 481 112 q 471 100 461 89 z"},"s":{"x_min":0,"x_max":263,"ha":263,"o":"m 58 44 q 62 33 72 28 q 81 23 89 23 q 106 22 118 30 q 130 38 135 47 q 145 60 138 72 q 131 84 116 96 q 101 108 80 120 q 60 133 43 146 q 26 160 16 175 q 6 190 11 208 q 22 247 58 272 q 93 296 149 297 q 199 298 226 284 q 253 269 261 241 q 267 218 254 200 q 240 182 218 172 q 197 162 172 164 q 148 166 132 184 q 158 189 172 210 q 187 230 190 250 q 191 269 181 272 q 171 274 156 267 q 142 260 127 248 q 112 235 105 225 q 94 211 98 200 q 101 189 113 180 q 125 170 142 160 q 159 151 175 140 q 191 129 203 115 q 215 101 216 83 q 219 48 188 24 q 156 -1 98 -1 q 71 -1 49 4 q 27 10 12 20 q -3 31 -10 45 q -16 59 -11 74 q -7 89 8 99 q 22 109 40 112 q 59 114 78 108 q 98 102 112 85 q 86 80 70 70 q 53 59 58 44 z"},"l":{"x_min":0,"x_max":162,"ha":162,"o":"m 71 79 q 64 51 72 52 q 80 53 98 72 q 115 91 140 122 q 164 152 189 184 q 189 183 192 180 q 195 176 197 170 q 199 164 198 156 q 196 148 189 139 q 169 115 154 96 q 139 78 125 63 q 111 48 96 35 q 82 22 63 9 q 53 1 39 0 q 25 -1 13 3 q 1 7 -8 16 q -16 25 -15 37 q -13 60 -8 85 q -3 110 5 139 q 15 176 26 214 q 38 252 49 287 q 60 322 70 352 q 81 381 89 401 q 94 413 107 417 q 120 421 133 420 q 146 420 156 416 q 165 412 164 408 z"},"8":{"x_min":0,"x_max":1219,"ha":1219,"o":"m 876 781 l 739 657 l 775 471 l 615 565 l 450 471 l 489 652 l 351 781 l 537 801 l 615 972 l 690 802 z m 682 576 l 639 834 l 586 834 l 541 576 l 564 562 l 583 576 l 592 634 l 631 634 l 642 576 l 663 562 z m 628 672 l 598 672 l 612 774 z m 610 21 l 631 21 l 624 39 q 622 42 622 44 q 622 46 619 49 q 619 45 616 39 z m 352 -5 l 352 3 l 363 3 l 363 -5 z m 844 -5 l 844 58 l 852 58 l 852 1 l 883 1 l 883 -5 z m 787 -5 l 787 58 l 832 58 l 832 49 l 795 49 l 795 30 l 829 30 l 829 22 l 795 22 l 795 1 l 832 1 l 832 -5 z m 565 -5 l 565 21 l 541 58 l 552 58 l 564 39 q 567 30 570 28 q 571 30 572 33 q 574 36 577 39 l 589 58 l 598 58 l 573 21 l 573 -5 z m 376 -5 l 376 58 l 400 58 q 403 58 406 56 q 408 55 409 55 q 415 54 417 49 q 420 46 420 40 q 420 36 417 34 q 415 28 411 28 q 415 27 420 22 q 423 16 423 13 q 423 10 422 8 q 421 7 421 6 q 420 0 415 0 q 414 -3 412 -3 q 411 -3 409 -5 l 400 -5 z m 205 -5 l 187 58 l 196 58 l 205 16 q 207 12 207 9 q 207 6 208 3 q 210 10 210 15 l 222 58 l 232 58 l 241 25 q 243 18 244 14 q 246 9 246 3 q 247 6 247 9 q 247 12 249 16 l 259 58 l 267 58 l 249 -5 l 241 -5 l 229 42 q 228 46 228 49 q 226 46 226 42 l 213 -5 z m 123 -5 l 105 58 l 115 58 l 123 16 q 123 9 127 3 q 129 10 129 15 l 141 58 l 150 58 l 160 25 q 162 18 162 14 q 163 9 163 3 q 166 6 166 9 q 166 12 168 16 l 177 58 l 186 58 l 168 -5 l 160 -5 l 148 42 q 147 46 147 49 q 144 46 144 42 l 130 -5 z m 384 30 l 397 30 q 403 30 405 33 q 409 33 409 34 q 411 36 411 40 q 411 45 409 46 l 408 46 q 406 46 406 47 q 406 48 405 48 q 403 49 396 49 l 384 49 z m 285 -5 l 268 58 l 277 58 l 286 16 q 288 12 288 9 q 288 6 291 3 q 291 9 292 11 q 292 13 292 15 l 304 58 l 313 58 l 324 25 q 325 18 326 14 q 327 9 327 3 q 330 6 330 9 q 330 12 331 16 l 342 58 l 349 58 l 331 -5 l 324 -5 l 312 42 q 310 46 310 49 q 307 46 307 42 l 294 -5 z m 664 28 l 682 28 q 685 28 688 29 q 690 30 693 30 q 696 30 696 34 q 697 36 697 40 q 697 45 694 48 q 693 49 684 49 l 664 49 z m 384 1 l 400 1 q 403 1 405 3 l 409 3 q 411 6 414 7 l 414 13 q 414 16 411 19 q 411 22 408 22 l 397 22 l 384 22 z m 435 -5 l 435 58 l 442 58 l 442 -5 z m 985 25 q 985 12 990 7 q 996 1 1006 1 q 1017 1 1021 7 q 1027 12 1027 27 q 1027 34 1026 39 q 1023 46 1018 48 q 1014 49 1006 49 q 997 49 993 45 q 985 39 985 25 z m 976 25 q 976 42 985 49 q 991 58 1006 58 q 1011 58 1014 56 q 1018 55 1021 54 q 1026 52 1028 49 q 1030 46 1033 42 q 1035 39 1035 27 q 1035 13 1032 9 q 1027 1 1021 -3 q 1015 -6 1006 -6 q 1002 -6 998 -6 q 994 -5 990 -3 q 987 0 984 3 q 982 6 981 9 q 979 13 978 17 q 976 21 976 25 z m 592 -5 l 616 58 l 625 58 l 651 -5 l 642 -5 l 634 13 l 609 13 l 600 -5 z m 459 -5 l 459 58 l 466 58 l 466 1 l 495 1 l 495 -5 z m 892 -5 l 892 3 l 903 3 l 903 -5 z m 748 19 l 748 27 l 774 27 l 774 3 q 768 -3 762 -5 q 759 -5 755 -6 q 751 -6 748 -6 q 739 -6 733 -3 q 729 0 726 2 q 723 4 721 9 q 720 13 718 17 q 717 21 717 25 q 717 31 718 34 q 720 37 721 42 q 724 51 732 54 q 735 55 740 56 q 744 58 748 58 q 756 58 760 55 q 766 54 768 49 q 772 45 774 40 l 766 39 q 766 40 762 45 q 762 48 756 49 l 748 49 l 739 49 q 735 48 732 45 q 732 43 727 39 q 727 36 726 33 q 726 30 726 27 q 726 16 729 13 q 735 4 736 3 q 741 1 748 1 q 754 1 759 3 q 762 6 764 6 q 765 6 766 7 l 766 19 z m 657 -5 l 657 58 l 684 58 q 688 58 691 56 q 694 55 697 55 q 702 54 703 49 q 706 46 706 40 q 706 33 702 28 q 700 27 696 26 q 693 25 688 22 q 691 22 692 22 q 693 21 694 21 q 696 18 696 16 q 697 13 700 10 l 712 -5 l 702 -5 l 693 7 q 690 10 689 12 q 688 15 687 16 q 687 19 686 19 q 684 19 682 21 l 681 21 q 679 21 679 22 q 679 22 678 22 l 675 22 l 664 22 l 664 -5 z m 505 -5 l 505 58 l 514 58 l 514 1 l 544 1 l 544 -5 z m 961 16 l 969 15 q 966 3 960 0 q 954 -6 943 -6 q 934 -6 928 -3 q 924 0 922 3 q 921 6 918 9 q 915 21 915 27 q 915 33 918 45 q 925 52 928 54 q 933 55 936 56 q 939 58 943 58 q 948 58 952 56 q 957 55 960 54 q 963 51 965 48 q 967 45 969 40 l 960 39 q 960 45 954 48 q 951 49 943 49 q 934 49 931 48 q 928 46 928 44 q 927 42 924 39 q 924 36 923 33 q 922 30 922 27 q 922 18 927 13 q 927 10 928 8 q 930 6 931 3 q 936 1 943 1 q 951 1 955 6 q 960 10 961 16 z m 1047 -5 l 1047 58 l 1059 58 l 1074 13 q 1074 10 1076 8 q 1077 6 1077 3 q 1077 4 1080 13 l 1093 58 l 1105 58 l 1105 -5 l 1098 -5 l 1098 46 l 1080 -5 l 1072 -5 l 1054 48 l 1054 -5 z m 610 21 l 631 21 l 624 39 q 622 42 622 44 q 622 46 619 49 q 619 45 616 39 z m 352 -5 l 352 3 l 363 3 l 363 -5 z m 844 -5 l 844 58 l 852 58 l 852 1 l 883 1 l 883 -5 z m 787 -5 l 787 58 l 832 58 l 832 49 l 795 49 l 795 30 l 829 30 l 829 22 l 795 22 l 795 1 l 832 1 l 832 -5 z m 565 -5 l 565 21 l 541 58 l 552 58 l 564 39 q 567 30 570 28 q 571 30 572 33 q 574 36 577 39 l 589 58 l 598 58 l 573 21 l 573 -5 z m 376 -5 l 376 58 l 400 58 q 403 58 406 56 q 408 55 409 55 q 415 54 417 49 q 420 46 420 40 q 420 36 417 34 q 415 28 411 28 q 415 27 420 22 q 423 16 423 13 q 423 10 422 8 q 421 7 421 6 q 420 0 415 0 q 414 -3 412 -3 q 411 -3 409 -5 l 400 -5 z m 205 -5 l 187 58 l 196 58 l 205 16 q 207 12 207 9 q 207 6 208 3 q 210 10 210 15 l 222 58 l 232 58 l 241 25 q 243 18 244 14 q 246 9 246 3 q 247 6 247 9 q 247 12 249 16 l 259 58 l 267 58 l 249 -5 l 241 -5 l 229 42 q 228 46 228 49 q 226 46 226 42 l 213 -5 z m 123 -5 l 105 58 l 115 58 l 123 16 q 123 9 127 3 q 129 10 129 15 l 141 58 l 150 58 l 160 25 q 162 18 162 14 q 163 9 163 3 q 166 6 166 9 q 166 12 168 16 l 177 58 l 186 58 l 168 -5 l 160 -5 l 148 42 q 147 46 147 49 q 144 46 144 42 l 130 -5 z m 384 30 l 397 30 q 403 30 405 33 q 409 33 409 34 q 411 36 411 40 q 411 45 409 46 l 408 46 q 406 46 406 47 q 406 48 405 48 q 403 49 396 49 l 384 49 z m 285 -5 l 268 58 l 277 58 l 286 16 q 288 12 288 9 q 288 6 291 3 q 291 9 292 11 q 292 13 292 15 l 304 58 l 313 58 l 324 25 q 325 18 326 14 q 327 9 327 3 q 330 6 330 9 q 330 12 331 16 l 342 58 l 349 58 l 331 -5 l 324 -5 l 312 42 q 310 46 310 49 q 307 46 307 42 l 294 -5 z m 664 28 l 682 28 q 685 28 688 29 q 690 30 693 30 q 696 30 696 34 q 697 36 697 40 q 697 45 694 48 q 693 49 684 49 l 664 49 z m 384 1 l 400 1 q 403 1 405 3 l 409 3 q 411 6 414 7 l 414 13 q 414 16 411 19 q 411 22 408 22 l 397 22 l 384 22 z m 435 -5 l 435 58 l 442 58 l 442 -5 z m 985 25 q 985 12 990 7 q 996 1 1006 1 q 1017 1 1021 7 q 1027 12 1027 27 q 1027 34 1026 39 q 1023 46 1018 48 q 1014 49 1006 49 q 997 49 993 45 q 985 39 985 25 z m 976 25 q 976 42 985 49 q 991 58 1006 58 q 1011 58 1014 56 q 1018 55 1021 54 q 1026 52 1028 49 q 1030 46 1033 42 q 1035 39 1035 27 q 1035 13 1032 9 q 1027 1 1021 -3 q 1015 -6 1006 -6 q 1002 -6 998 -6 q 994 -5 990 -3 q 987 0 984 3 q 982 6 981 9 q 979 13 978 17 q 976 21 976 25 z m 592 -5 l 616 58 l 625 58 l 651 -5 l 642 -5 l 634 13 l 609 13 l 600 -5 z m 459 -5 l 459 58 l 466 58 l 466 1 l 495 1 l 495 -5 z m 892 -5 l 892 3 l 903 3 l 903 -5 z m 748 19 l 748 27 l 774 27 l 774 3 q 768 -3 762 -5 q 759 -5 755 -6 q 751 -6 748 -6 q 739 -6 733 -3 q 729 0 726 2 q 723 4 721 9 q 720 13 718 17 q 717 21 717 25 q 717 31 718 34 q 720 37 721 42 q 724 51 732 54 q 735 55 740 56 q 744 58 748 58 q 756 58 760 55 q 766 54 768 49 q 772 45 774 40 l 766 39 q 766 40 762 45 q 762 48 756 49 l 748 49 l 739 49 q 735 48 732 45 q 732 43 727 39 q 727 36 726 33 q 726 30 726 27 q 726 16 729 13 q 735 4 736 3 q 741 1 748 1 q 754 1 759 3 q 762 6 764 6 q 765 6 766 7 l 766 19 z m 657 -5 l 657 58 l 684 58 q 688 58 691 56 q 694 55 697 55 q 702 54 703 49 q 706 46 706 40 q 706 33 702 28 q 700 27 696 26 q 693 25 688 22 q 691 22 692 22 q 693 21 694 21 q 696 18 696 16 q 697 13 700 10 l 712 -5 l 702 -5 l 693 7 q 690 10 689 12 q 688 15 687 16 q 687 19 686 19 q 684 19 682 21 l 681 21 q 679 21 679 22 q 679 22 678 22 l 675 22 l 664 22 l 664 -5 z m 505 -5 l 505 58 l 514 58 l 514 1 l 544 1 l 544 -5 z m 961 16 l 969 15 q 966 3 960 0 q 954 -6 943 -6 q 934 -6 928 -3 q 924 0 922 3 q 921 6 918 9 q 915 21 915 27 q 915 33 918 45 q 925 52 928 54 q 933 55 936 56 q 939 58 943 58 q 948 58 952 56 q 957 55 960 54 q 963 51 965 48 q 967 45 969 40 l 960 39 q 960 45 954 48 q 951 49 943 49 q 934 49 931 48 q 928 46 928 44 q 927 42 924 39 q 924 36 923 33 q 922 30 922 27 q 922 18 927 13 q 927 10 928 8 q 930 6 931 3 q 936 1 943 1 q 951 1 955 6 q 960 10 961 16 z m 1047 -5 l 1047 58 l 1059 58 l 1074 13 q 1074 10 1076 8 q 1077 6 1077 3 q 1077 4 1080 13 l 1093 58 l 1105 58 l 1105 -5 l 1098 -5 l 1098 46 l 1080 -5 l 1072 -5 l 1054 48 l 1054 -5 z m 610 21 l 631 21 l 624 39 q 622 42 622 44 q 622 46 619 49 q 619 45 616 39 z m 352 -5 l 352 3 l 363 3 l 363 -5 z m 844 -5 l 844 58 l 852 58 l 852 1 l 883 1 l 883 -5 z m 787 -5 l 787 58 l 832 58 l 832 49 l 795 49 l 795 30 l 829 30 l 829 22 l 795 22 l 795 1 l 832 1 l 832 -5 z m 565 -5 l 565 21 l 541 58 l 552 58 l 564 39 q 567 30 570 28 q 571 30 572 33 q 574 36 577 39 l 589 58 l 598 58 l 573 21 l 573 -5 z m 376 -5 l 376 58 l 400 58 q 403 58 406 56 q 408 55 409 55 q 415 54 417 49 q 420 46 420 40 q 420 36 417 34 q 415 28 411 28 q 415 27 420 22 q 423 16 423 13 q 423 10 422 8 q 421 7 421 6 q 420 0 415 0 q 414 -3 412 -3 q 411 -3 409 -5 l 400 -5 z m 205 -5 l 187 58 l 196 58 l 205 16 q 207 12 207 9 q 207 6 208 3 q 210 10 210 15 l 222 58 l 232 58 l 241 25 q 243 18 244 14 q 246 9 246 3 q 247 6 247 9 q 247 12 249 16 l 259 58 l 267 58 l 249 -5 l 241 -5 l 229 42 q 228 46 228 49 q 226 46 226 42 l 213 -5 z m 123 -5 l 105 58 l 115 58 l 123 16 q 123 9 127 3 q 129 10 129 15 l 141 58 l 150 58 l 160 25 q 162 18 162 14 q 163 9 163 3 q 166 6 166 9 q 166 12 168 16 l 177 58 l 186 58 l 168 -5 l 160 -5 l 148 42 q 147 46 147 49 q 144 46 144 42 l 130 -5 z m 384 30 l 397 30 q 403 30 405 33 q 409 33 409 34 q 411 36 411 40 q 411 45 409 46 l 408 46 q 406 46 406 47 q 406 48 405 48 q 403 49 396 49 l 384 49 z m 285 -5 l 268 58 l 277 58 l 286 16 q 288 12 288 9 q 288 6 291 3 q 291 9 292 11 q 292 13 292 15 l 304 58 l 313 58 l 324 25 q 325 18 326 14 q 327 9 327 3 q 330 6 330 9 q 330 12 331 16 l 342 58 l 349 58 l 331 -5 l 324 -5 l 312 42 q 310 46 310 49 q 307 46 307 42 l 294 -5 z m 664 28 l 682 28 q 685 28 688 29 q 690 30 693 30 q 696 30 696 34 q 697 36 697 40 q 697 45 694 48 q 693 49 684 49 l 664 49 z m 384 1 l 400 1 q 403 1 405 3 l 409 3 q 411 6 414 7 l 414 13 q 414 16 411 19 q 411 22 408 22 l 397 22 l 384 22 z m 435 -5 l 435 58 l 442 58 l 442 -5 z m 985 25 q 985 12 990 7 q 996 1 1006 1 q 1017 1 1021 7 q 1027 12 1027 27 q 1027 34 1026 39 q 1023 46 1018 48 q 1014 49 1006 49 q 997 49 993 45 q 985 39 985 25 z m 976 25 q 976 42 985 49 q 991 58 1006 58 q 1011 58 1014 56 q 1018 55 1021 54 q 1026 52 1028 49 q 1030 46 1033 42 q 1035 39 1035 27 q 1035 13 1032 9 q 1027 1 1021 -3 q 1015 -6 1006 -6 q 1002 -6 998 -6 q 994 -5 990 -3 q 987 0 984 3 q 982 6 981 9 q 979 13 978 17 q 976 21 976 25 z m 592 -5 l 616 58 l 625 58 l 651 -5 l 642 -5 l 634 13 l 609 13 l 600 -5 z m 459 -5 l 459 58 l 466 58 l 466 1 l 495 1 l 495 -5 z m 892 -5 l 892 3 l 903 3 l 903 -5 z m 748 19 l 748 27 l 774 27 l 774 3 q 768 -3 762 -5 q 759 -5 755 -6 q 751 -6 748 -6 q 739 -6 733 -3 q 729 0 726 2 q 723 4 721 9 q 720 13 718 17 q 717 21 717 25 q 717 31 718 34 q 720 37 721 42 q 724 51 732 54 q 735 55 740 56 q 744 58 748 58 q 756 58 760 55 q 766 54 768 49 q 772 45 774 40 l 766 39 q 766 40 762 45 q 762 48 756 49 l 748 49 l 739 49 q 735 48 732 45 q 732 43 727 39 q 727 36 726 33 q 726 30 726 27 q 726 16 729 13 q 735 4 736 3 q 741 1 748 1 q 754 1 759 3 q 762 6 764 6 q 765 6 766 7 l 766 19 z m 657 -5 l 657 58 l 684 58 q 688 58 691 56 q 694 55 697 55 q 702 54 703 49 q 706 46 706 40 q 706 33 702 28 q 700 27 696 26 q 693 25 688 22 q 691 22 692 22 q 693 21 694 21 q 696 18 696 16 q 697 13 700 10 l 712 -5 l 702 -5 l 693 7 q 690 10 689 12 q 688 15 687 16 q 687 19 686 19 q 684 19 682 21 l 681 21 q 679 21 679 22 q 679 22 678 22 l 675 22 l 664 22 l 664 -5 z m 505 -5 l 505 58 l 514 58 l 514 1 l 544 1 l 544 -5 z m 961 16 l 969 15 q 966 3 960 0 q 954 -6 943 -6 q 934 -6 928 -3 q 924 0 922 3 q 921 6 918 9 q 915 21 915 27 q 915 33 918 45 q 925 52 928 54 q 933 55 936 56 q 939 58 943 58 q 948 58 952 56 q 957 55 960 54 q 963 51 965 48 q 967 45 969 40 l 960 39 q 960 45 954 48 q 951 49 943 49 q 934 49 931 48 q 928 46 928 44 q 927 42 924 39 q 924 36 923 33 q 922 30 922 27 q 922 18 927 13 q 927 10 928 8 q 930 6 931 3 q 936 1 943 1 q 951 1 955 6 q 960 10 961 16 z m 1047 -5 l 1047 58 l 1059 58 l 1074 13 q 1074 10 1076 8 q 1077 6 1077 3 q 1077 4 1080 13 l 1093 58 l 1105 58 l 1105 -5 l 1098 -5 l 1098 46 l 1080 -5 l 1072 -5 l 1054 48 l 1054 -5 z m 175 111 l 187 106 q 184 93 174 84 q 162 75 148 75 q 135 75 123 81 q 111 90 109 99 q 103 109 103 124 q 103 141 109 151 q 114 162 124 166 q 135 172 148 172 q 165 172 171 165 q 181 162 186 145 l 174 144 q 168 156 163 157 q 157 163 148 163 q 136 163 130 157 q 121 151 118 144 q 117 138 117 124 q 117 111 121 105 q 124 94 130 91 q 138 85 147 85 q 159 85 166 93 q 169 96 172 100 q 174 105 175 111 z m 199 123 q 199 135 202 144 q 205 153 213 159 q 219 166 227 169 q 235 172 244 172 q 258 172 268 166 q 277 162 285 150 q 291 135 291 124 q 291 117 290 111 q 288 105 285 99 q 277 87 267 81 q 255 75 244 75 q 237 75 232 76 q 226 78 220 81 q 210 87 205 99 q 199 109 199 123 z m 213 123 q 213 105 220 94 q 231 85 244 85 q 259 85 267 97 q 277 108 277 124 q 277 130 276 134 q 274 139 273 144 q 270 154 261 157 q 256 163 244 163 q 232 163 222 153 q 213 145 213 123 z m 306 78 l 306 171 l 324 171 l 346 105 q 351 96 351 91 q 354 94 357 106 l 381 171 l 396 171 l 396 78 l 384 78 l 384 156 l 357 78 l 345 78 l 318 157 l 318 78 z m 417 78 l 417 171 l 453 171 l 466 171 q 474 171 478 166 q 480 165 486 157 q 487 154 488 151 q 489 148 489 144 q 489 135 481 124 q 474 117 453 117 l 429 117 l 429 78 z m 429 126 l 454 126 q 468 126 469 132 q 475 133 475 144 q 475 151 474 153 q 468 159 463 159 q 462 162 453 162 l 429 162 z m 505 78 l 505 171 l 517 171 l 517 87 l 564 87 l 564 78 z m 579 78 l 579 171 l 648 171 l 648 162 l 591 162 l 591 132 l 643 132 l 643 120 l 591 120 l 591 87 l 649 87 l 649 78 z m 690 78 l 690 162 l 658 162 l 658 171 l 735 171 l 735 162 l 703 162 l 703 78 z m 748 78 l 748 171 l 817 171 l 817 162 l 760 162 l 760 132 l 813 132 l 813 120 l 760 120 l 760 87 l 819 87 l 819 78 z m 870 106 l 882 108 q 882 100 885 97 q 888 91 895 88 q 898 87 909 87 q 912 87 916 87 q 919 87 922 88 q 927 88 930 94 q 931 97 931 103 q 931 108 930 111 q 928 112 926 113 q 924 114 921 117 q 919 117 904 120 q 897 123 892 124 q 888 124 885 126 q 879 129 876 136 q 873 138 872 141 q 871 144 871 147 q 871 156 877 162 q 879 165 882 166 q 885 168 889 171 q 892 172 907 172 q 918 172 924 169 q 928 166 931 164 q 934 163 936 159 q 942 154 942 145 l 930 144 q 927 156 922 157 q 918 162 907 162 q 892 162 889 157 q 885 153 885 147 q 885 142 889 139 q 889 139 907 132 q 915 130 920 128 q 925 127 928 126 q 933 124 935 122 q 937 120 940 117 q 943 112 943 103 q 943 93 940 88 q 934 82 928 79 q 924 78 920 76 q 915 75 909 75 q 903 75 897 76 q 891 78 888 79 q 880 81 873 91 q 870 97 870 106 z m 961 78 l 961 171 l 1029 171 l 1029 162 l 975 162 l 975 132 l 1027 132 l 1027 120 l 975 120 l 975 87 l 1032 87 l 1032 78 z m 1074 78 l 1074 162 l 1044 162 l 1044 171 l 1117 171 l 1117 162 l 1086 162 l 1086 78 z m 112 190 l 112 283 l 150 283 l 163 283 q 166 283 175 280 q 177 279 179 276 q 181 273 183 270 q 186 267 186 259 q 186 246 177 237 q 172 229 150 229 l 127 229 l 127 190 z m 127 241 l 150 241 q 163 241 168 244 q 174 250 174 256 q 174 259 172 262 q 171 265 169 268 q 165 273 162 273 q 160 274 150 274 l 127 274 z m 201 190 l 201 283 l 268 283 l 268 274 l 214 274 l 214 244 l 265 244 l 265 234 l 214 234 l 214 202 l 271 202 l 271 190 z m 288 190 l 288 283 l 331 283 q 345 283 351 282 q 358 279 361 274 q 364 262 364 259 q 364 249 358 243 q 352 237 337 234 q 340 231 342 231 q 343 231 345 229 q 352 222 355 216 l 372 190 l 357 190 l 343 210 q 342 214 340 217 q 337 220 336 223 q 333 225 332 227 q 331 229 330 229 q 327 231 324 231 q 322 234 316 234 l 303 234 l 303 190 z m 303 243 l 327 243 q 339 243 342 244 q 346 249 349 250 q 351 253 351 259 q 351 265 346 270 q 342 274 331 274 l 303 274 z m 381 222 l 391 222 q 391 219 392 216 q 394 213 396 210 q 397 208 400 206 q 402 204 405 204 q 414 201 420 201 q 423 201 426 201 q 429 201 430 202 q 439 205 441 208 q 441 210 442 212 q 442 214 442 216 q 442 222 441 223 q 436 226 430 229 q 429 231 425 231 q 421 231 415 234 q 402 235 396 240 q 388 246 385 249 q 384 253 384 261 q 384 264 384 268 q 385 271 388 274 q 390 280 400 283 q 403 286 417 286 q 429 286 435 283 q 444 279 447 273 q 453 264 453 259 l 441 256 q 438 267 433 270 q 427 276 417 276 q 405 276 400 270 q 396 267 396 261 q 396 255 400 253 q 402 250 417 247 q 430 241 439 241 q 442 238 445 236 q 448 234 450 231 q 454 226 454 217 q 454 210 450 204 q 447 199 444 197 q 442 195 439 192 q 427 189 420 189 q 409 189 397 192 q 393 195 390 197 q 387 199 384 204 q 382 208 382 212 q 381 216 381 222 z m 468 237 q 468 258 480 273 q 493 286 513 286 q 519 286 524 284 q 529 283 537 280 q 543 277 546 272 q 549 268 552 262 q 558 252 558 237 q 558 223 552 211 q 546 201 537 195 q 525 189 513 189 q 499 189 489 196 q 475 204 474 214 q 468 222 468 237 z m 480 237 q 480 219 489 210 q 498 201 513 201 q 528 201 537 210 q 544 220 544 237 q 544 243 544 249 q 543 255 540 259 q 535 267 531 270 q 523 276 513 276 q 505 276 500 274 q 496 271 489 267 q 480 258 480 237 z m 573 190 l 573 283 l 586 283 l 636 211 l 636 283 l 648 283 l 648 190 l 636 190 l 585 264 l 585 190 z m 658 190 l 694 283 l 708 283 l 747 190 l 732 190 l 721 220 l 682 220 l 670 190 z m 684 229 l 717 229 l 708 255 q 705 261 704 266 q 702 271 700 274 q 700 270 698 266 q 697 261 696 256 z m 754 190 l 754 283 l 768 283 l 768 202 l 814 202 l 814 190 z m 922 283 l 934 283 l 934 231 q 934 214 931 208 q 928 199 921 195 q 913 189 898 189 q 883 189 877 195 q 873 196 870 200 q 867 204 864 208 q 862 211 862 231 l 862 283 l 873 283 l 873 231 q 873 216 876 211 q 879 205 883 204 q 886 202 889 202 q 892 201 897 201 q 909 201 916 205 q 922 211 922 231 z m 951 222 l 963 222 q 963 219 964 216 q 966 213 967 210 q 969 208 971 206 q 973 204 976 204 q 985 201 990 201 q 1000 201 1005 202 q 1008 204 1012 208 q 1014 210 1014 216 q 1014 222 1012 223 q 1009 225 1008 226 q 1008 228 1005 229 q 1002 231 998 231 q 993 231 987 234 q 981 235 976 236 q 970 237 969 240 q 961 243 960 249 q 955 253 955 261 q 955 267 960 274 q 961 280 970 283 q 976 286 988 286 q 993 286 998 286 q 1003 286 1006 283 q 1015 279 1020 273 q 1021 270 1022 266 q 1024 262 1024 259 l 1012 256 q 1009 261 1008 264 q 1008 268 1005 270 q 1000 276 988 276 q 975 276 973 270 q 967 268 967 261 q 967 256 970 253 q 973 250 988 247 q 1005 241 1009 241 q 1014 238 1017 236 q 1020 234 1021 231 q 1026 228 1026 217 q 1026 208 1021 204 q 1018 199 1016 197 q 1014 195 1009 192 q 1000 189 993 189 q 985 189 980 190 q 975 190 970 192 q 967 195 964 197 q 960 199 957 204 q 954 208 952 212 q 951 216 951 222 z m 1044 190 l 1044 283 l 1111 283 l 1111 274 l 1057 274 l 1057 244 l 1107 244 l 1107 234 l 1057 234 l 1057 202 l 1113 202 l 1113 190 z m 307 388 q 307 403 285 406 q 282 406 278 407 q 273 408 267 408 l 258 397 l 234 372 q 228 364 222 358 q 217 352 210 348 q 219 345 232 343 q 235 343 240 343 q 246 343 250 345 q 273 346 285 357 q 307 375 307 388 z m 324 433 q 324 439 316 439 q 313 439 291 432 l 274 417 q 271 414 268 408 l 294 412 q 300 412 310 420 q 324 429 324 433 z m 343 460 q 343 457 339 457 q 336 457 335 458 q 334 459 331 459 q 316 456 297 436 q 300 439 304 440 q 307 442 310 444 q 321 445 330 444 q 336 444 336 436 l 336 430 q 328 417 294 409 q 321 406 321 391 q 321 373 292 354 q 282 348 270 344 q 259 340 247 339 q 228 334 217 336 q 208 336 198 340 q 189 334 181 334 l 178 334 q 169 337 163 339 l 168 339 q 180 339 187 345 l 187 346 q 177 340 165 340 q 148 340 139 349 q 124 360 124 381 q 124 387 126 392 q 127 397 130 405 q 141 427 166 444 q 174 451 182 454 q 190 456 198 457 q 214 457 220 451 q 213 456 205 456 q 196 456 186 450 q 171 444 169 441 q 154 433 139 415 q 126 394 126 379 q 126 372 128 368 q 129 363 132 358 q 138 349 148 346 q 153 345 156 344 q 159 343 162 343 q 168 343 172 344 q 177 346 183 349 q 166 361 166 382 q 169 402 190 417 l 187 412 q 184 412 181 406 q 172 397 172 387 q 172 367 195 354 q 207 361 207 363 q 210 367 213 370 q 216 373 219 376 q 222 379 222 384 q 223 388 226 393 l 226 391 q 226 384 225 379 l 243 400 q 289 453 319 462 q 306 466 298 466 q 279 465 256 453 q 229 439 229 420 q 229 414 234 409 q 235 408 235 406 q 226 412 226 421 q 226 438 246 454 q 270 472 297 469 q 306 469 324 463 l 330 463 q 337 463 342 460 z m 346 363 q 345 357 334 346 q 324 340 316 340 q 309 340 309 349 q 309 357 318 369 l 316 369 q 315 367 310 367 q 310 367 309 369 q 313 369 324 379 l 325 379 l 330 385 q 334 390 334 393 l 339 393 q 343 393 343 391 q 343 385 334 375 l 324 364 q 315 351 315 346 q 315 342 321 342 q 328 342 339 357 q 340 358 342 359 q 343 360 346 363 z m 354 405 q 348 396 339 396 q 334 396 328 400 l 333 400 q 343 400 346 411 l 346 414 l 354 411 q 355 409 354 405 z m 406 433 q 406 426 360 370 l 358 370 q 345 354 345 345 q 345 340 349 340 q 358 340 369 355 q 370 357 372 358 q 373 358 375 361 q 375 354 363 345 q 355 339 346 339 q 337 340 337 348 q 336 355 367 394 l 385 417 l 394 426 q 399 432 402 441 q 406 438 406 433 z m 432 433 q 432 427 384 370 q 369 352 369 345 q 369 340 375 340 q 381 340 394 355 l 400 361 q 399 354 387 345 q 379 339 370 339 q 361 340 361 348 q 361 357 391 394 l 409 417 l 418 426 q 426 435 427 441 q 432 438 432 433 z m 403 333 q 379 328 366 315 q 355 301 355 298 q 355 292 361 292 q 363 291 372 294 q 375 297 378 300 q 382 304 387 309 z m 447 430 q 444 409 427 393 q 427 391 426 391 q 426 391 426 390 q 421 384 416 378 q 411 373 406 366 q 403 363 403 360 q 402 363 405 369 q 396 355 396 348 q 396 343 400 343 q 402 343 408 346 q 430 364 439 397 l 439 393 l 439 388 q 442 385 442 381 q 442 378 435 366 l 423 346 l 409 328 q 414 331 426 337 l 424 336 q 421 333 416 329 q 411 325 406 318 l 394 303 l 388 295 q 379 286 369 283 q 360 283 355 289 q 346 292 352 303 q 354 304 356 307 q 357 310 360 313 l 361 315 l 351 313 q 376 331 393 333 q 394 333 396 334 q 397 334 399 334 l 400 334 l 403 334 l 412 348 q 406 342 402 341 q 397 340 394 340 q 387 340 387 348 q 387 366 418 394 l 421 396 l 436 411 q 439 417 442 422 q 445 426 447 430 z m 618 453 q 609 456 603 456 q 588 456 575 452 q 562 448 549 441 q 543 438 539 434 q 535 430 531 427 q 549 426 579 408 q 612 441 636 450 z m 649 447 q 643 445 636 443 q 630 441 622 433 q 618 430 600 412 l 589 402 l 604 393 q 607 397 613 404 q 619 411 627 420 z m 663 472 q 663 471 661 469 q 661 459 657 448 l 658 447 l 657 447 q 649 429 637 417 l 613 388 q 616 387 618 387 q 619 387 622 385 q 622 382 621 382 q 618 382 616 383 q 615 384 612 385 q 594 366 592 349 q 589 343 589 340 q 589 334 595 334 q 607 334 621 354 l 627 363 q 642 384 646 400 l 646 405 q 646 403 648 402 l 648 400 q 645 379 633 361 l 613 322 q 613 328 618 342 q 600 328 591 328 q 577 328 580 346 q 580 355 586 366 q 592 378 601 391 l 586 399 l 573 385 q 568 379 560 370 q 552 361 540 346 q 516 322 498 322 l 493 322 q 489 322 480 327 q 480 327 483 327 q 496 324 510 337 q 498 331 481 331 q 465 331 454 339 l 456 339 q 441 349 441 370 q 441 385 447 393 q 456 417 481 433 q 490 441 498 443 q 507 445 516 447 q 531 447 537 441 l 535 441 q 532 444 522 444 q 507 444 484 430 q 468 418 456 405 q 442 384 442 367 q 442 343 465 336 q 474 333 478 333 q 510 334 547 375 l 576 405 q 553 418 525 418 l 523 418 q 520 412 520 405 q 522 405 528 396 q 517 402 517 411 q 517 415 519 418 q 504 415 499 412 q 472 402 475 381 q 475 367 484 357 l 487 354 q 469 372 469 385 q 469 405 487 418 q 502 429 525 429 q 546 453 577 457 q 585 459 601 459 q 609 459 624 456 l 642 451 l 651 451 l 652 450 q 658 460 661 475 l 663 475 z m 682 375 q 682 370 681 367 q 673 360 668 354 q 663 348 658 340 l 660 340 l 661 340 q 660 339 658 339 q 657 339 657 337 q 649 337 649 340 q 649 346 663 360 q 673 373 673 376 q 675 381 669 385 q 651 360 637 354 l 631 351 l 628 352 q 634 352 648 367 q 661 379 666 387 q 666 388 665 388 q 664 388 664 390 q 664 391 675 400 q 675 402 676 402 l 678 400 q 678 399 670 388 q 682 384 682 375 z m 726 379 q 726 388 720 385 q 714 385 711 382 q 706 379 697 367 q 688 355 688 348 q 687 345 691 345 q 700 348 706 355 q 712 367 712 372 q 712 375 711 375 q 717 375 717 367 l 715 364 q 718 367 720 371 q 723 375 726 378 z m 754 393 q 748 393 741 385 q 735 378 729 369 q 723 360 715 348 q 708 333 702 324 q 696 316 694 313 q 675 289 664 289 q 655 288 651 295 q 651 303 651 303 q 651 310 657 316 q 654 315 649 315 q 664 330 682 334 q 684 334 684 335 q 685 336 688 336 l 690 334 q 661 325 655 307 q 654 304 654 300 q 654 298 655 297 q 655 295 657 295 q 669 294 685 318 l 696 333 l 702 342 q 697 340 694 340 q 682 340 682 352 q 682 366 702 384 q 711 393 718 393 q 729 393 729 381 l 730 381 l 738 390 q 745 397 751 397 q 756 397 759 393 z m 781 382 q 781 373 765 364 q 763 363 762 363 l 760 363 q 756 363 751 370 q 754 367 759 367 q 769 373 772 384 l 772 387 l 772 388 l 772 390 q 766 390 753 376 l 753 375 q 748 369 748 365 q 747 361 747 358 q 745 360 745 367 q 742 361 741 357 q 738 351 738 346 q 738 345 739 343 q 739 340 745 340 q 760 346 771 355 q 774 358 778 361 q 775 357 772 353 q 769 349 762 345 q 750 337 741 340 q 741 339 739 340 q 730 340 730 349 q 730 364 747 379 q 756 393 771 393 q 774 393 775 391 q 781 387 781 382 z m 841 433 q 841 427 793 370 q 780 354 780 345 q 780 340 784 340 q 793 340 804 355 q 805 357 806 358 q 808 358 810 361 q 810 354 798 345 q 790 339 780 339 q 772 342 772 348 q 772 360 801 394 l 819 417 l 828 426 q 837 435 837 441 q 841 438 841 433 z m 922 387 q 897 396 895 415 q 888 411 880 407 q 873 403 868 399 q 840 372 840 349 q 840 340 844 339 l 847 339 l 850 339 q 873 339 892 354 q 898 360 906 368 q 915 375 922 387 z m 952 430 l 940 430 q 922 429 897 417 q 900 396 925 391 l 936 405 z m 979 457 q 960 457 944 454 q 928 451 916 444 q 924 451 935 456 q 946 460 960 463 q 930 465 907 445 q 903 442 897 430 q 907 433 917 434 q 927 436 939 435 q 942 435 946 435 q 951 435 958 433 q 961 438 966 444 q 972 450 979 457 z m 1074 459 q 1071 454 1067 450 q 1063 447 1056 444 q 1044 436 1033 436 l 1030 436 q 1029 436 1027 438 q 1029 439 1029 440 q 1029 442 1032 445 q 1018 456 994 456 l 988 448 l 973 430 q 985 429 996 428 q 1006 426 1015 426 q 1036 426 1044 430 q 1038 424 1021 421 q 1008 418 994 423 l 970 427 q 964 420 959 414 q 954 409 951 403 l 940 388 l 948 388 q 985 391 991 406 l 993 406 q 988 397 973 390 q 966 387 959 386 q 952 384 946 384 l 939 384 q 928 372 922 363 q 915 354 909 348 q 889 327 873 327 q 865 328 856 328 q 871 328 888 343 q 867 334 855 334 l 846 336 l 858 324 q 846 330 838 337 q 837 337 831 340 q 813 354 811 375 q 811 382 811 388 q 811 394 814 400 q 819 414 826 424 q 834 433 844 444 q 870 466 889 466 q 900 466 907 460 l 906 459 q 901 463 892 463 q 873 460 852 444 q 834 429 825 414 q 813 393 813 375 q 816 348 837 340 q 834 349 835 358 q 838 381 852 397 q 868 418 897 430 q 900 433 900 439 l 913 453 q 933 469 964 469 q 972 469 977 469 q 982 469 990 468 l 991 468 q 1002 475 1010 479 q 1018 483 1027 481 q 1033 481 1036 478 q 1020 475 1020 475 q 1017 474 1013 472 q 1009 471 1005 468 q 1011 466 1017 466 q 1023 465 1030 462 q 1045 457 1054 457 q 1068 457 1074 459 z m 982 354 q 978 358 978 364 q 978 367 978 370 q 979 372 979 375 q 964 355 966 346 q 966 343 969 343 q 972 343 982 354 z m 1002 385 q 1002 388 999 388 q 996 388 993 387 q 991 385 988 379 q 981 364 981 360 q 981 355 982 354 l 987 358 l 987 360 l 987 358 q 988 360 988 360 q 988 361 990 363 q 993 372 993 375 q 993 376 991 378 q 994 372 994 370 q 999 375 1002 385 z m 1008 381 q 1008 373 997 358 q 984 345 978 340 l 966 340 q 957 340 957 348 q 957 360 973 379 q 984 393 997 393 q 1008 393 1008 381 z m 1057 384 q 1059 381 1051 367 q 1042 355 1039 352 l 1021 336 q 1011 325 1008 313 q 1009 331 1021 345 q 1027 351 1030 356 q 1033 360 1036 366 q 1038 367 1039 372 l 1039 367 q 1039 367 1038 364 q 1041 367 1047 379 q 1047 381 1048 382 q 1048 382 1048 384 q 1048 391 1041 388 q 1041 388 1029 379 q 1026 372 1020 366 q 1015 361 1009 354 q 1002 345 1000 340 q 999 339 993 327 q 993 330 992 334 q 991 337 993 340 q 996 351 1006 361 l 1015 372 q 1023 382 1023 388 q 1023 390 1022 392 q 1021 393 1021 394 q 1030 391 1030 385 q 1039 393 1050 393 q 1056 390 1057 384 z m 1116 405 l 1093 405 q 1092 402 1084 393 q 1075 384 1063 367 q 1060 367 1057 360 q 1051 352 1051 345 q 1051 340 1054 340 q 1062 340 1075 355 l 1077 357 q 1078 358 1078 359 q 1078 360 1080 361 q 1080 354 1069 345 q 1062 339 1051 339 q 1044 342 1042 348 q 1042 351 1048 363 l 1066 384 l 1083 405 l 1057 408 q 1051 409 1042 409 l 1029 409 q 1011 409 993 402 l 991 402 q 1006 417 1038 417 q 1039 417 1050 414 q 1062 412 1083 409 l 1087 408 q 1092 415 1096 420 q 1099 426 1102 430 q 1105 429 1105 423 q 1105 418 1102 415 l 1096 406 l 1108 405 l 1117 405 l 1119 405 l 1123 405 z m 1126 385 q 1126 381 1116 376 l 1114 375 q 1119 379 1119 387 l 1119 393 l 1114 393 q 1107 393 1105 387 q 1105 384 1110 361 q 1111 340 1086 340 q 1072 340 1069 349 q 1068 351 1068 354 q 1068 366 1086 369 l 1092 367 l 1089 367 q 1083 367 1080 364 q 1075 357 1075 354 q 1075 342 1087 342 q 1099 342 1099 358 q 1099 366 1098 370 q 1096 375 1096 381 q 1096 396 1110 396 q 1113 396 1114 395 q 1116 394 1119 394 q 1125 391 1125 390 q 1126 388 1126 385 z"},"e":{"x_min":0,"x_max":274,"ha":274,"o":"m 146 7 q 135 1 115 -2 q 95 -5 74 -2 q 52 2 32 15 q 12 28 2 55 q -11 90 0 134 q 11 179 40 216 q 69 254 114 277 q 158 300 212 293 q 246 288 257 272 q 268 257 270 247 q 274 221 256 196 q 237 170 208 151 q 179 132 144 124 q 110 115 82 122 q 74 87 80 64 q 86 43 100 36 q 115 30 134 35 q 154 40 176 54 q 199 69 221 89 q 241 107 261 133 q 281 159 301 184 q 301 183 304 180 q 307 176 309 170 q 311 164 310 156 q 308 148 301 139 q 261 90 226 59 q 191 28 146 7 z m 183 272 q 168 267 154 254 q 140 241 127 223 q 114 205 104 184 q 94 162 87 141 q 108 147 130 160 q 152 173 170 188 q 187 204 197 221 q 207 238 206 253 q 206 260 202 268 q 199 277 183 272 z"},"b":{"x_min":0,"x_max":291,"ha":291,"o":"m 121 259 l 129 266 q 165 294 212 296 q 244 297 258 276 q 271 254 271 220 q 271 187 258 148 q 245 110 224 76 q 203 43 175 21 q 147 -1 116 -1 q 96 0 81 12 q 66 24 58 38 q 48 12 36 6 q 23 -1 4 0 q -11 1 -20 10 q -28 19 -24 36 q -21 52 -14 80 q -6 108 4 142 q 13 176 24 214 q 35 252 46 287 q 58 322 68 352 q 79 382 88 401 q 93 413 106 417 q 118 421 132 420 q 145 420 154 416 q 164 412 163 408 z m 171 261 q 161 261 160 260 q 160 258 153 254 q 147 251 143 245 q 139 239 138 232 q 137 225 141 218 q 145 212 155 208 q 137 204 126 206 q 114 208 108 213 l 72 83 q 70 65 76 54 q 81 43 94 44 q 105 44 119 60 q 133 77 146 100 q 160 124 171 152 q 182 180 186 204 q 191 228 188 244 q 185 260 171 261 z"},"m":{"x_min":0,"x_max":421,"ha":421,"o":"m 246 265 q 248 259 245 236 q 242 213 235 181 l 274 245 q 275 247 280 255 q 285 263 293 272 q 301 281 312 288 q 323 294 336 294 q 350 293 362 286 q 373 279 376 265 q 379 254 377 239 q 375 224 369 202 q 363 181 354 151 q 344 121 332 79 q 325 51 333 52 q 341 53 358 72 q 376 91 400 122 q 425 152 450 184 q 450 183 453 180 q 456 176 458 170 q 460 164 458 156 q 457 148 450 139 q 430 115 415 96 q 400 78 386 63 q 372 48 358 35 q 343 22 324 9 q 313 1 300 0 q 286 -1 274 3 q 261 7 252 16 q 244 25 245 37 q 247 71 258 108 q 268 144 283 190 q 286 200 284 200 q 283 201 280 196 q 276 191 272 184 q 267 176 264 171 q 254 154 238 130 q 223 107 212 88 q 210 82 208 76 q 207 70 205 65 q 193 21 180 10 q 166 -1 143 0 q 109 2 110 36 q 112 70 124 107 q 137 144 152 190 q 155 200 152 200 q 150 200 146 195 q 142 190 137 182 q 132 174 130 169 q 119 150 100 124 q 82 97 70 78 l 67 65 q 55 21 41 10 q 27 -1 4 0 q -11 1 -20 10 q -28 19 -24 36 q -19 60 -12 90 q -5 119 4 151 q 14 183 25 214 q 36 246 49 275 q 54 287 66 292 q 79 296 92 295 q 106 294 116 290 q 125 286 124 282 l 93 164 l 142 245 q 144 247 149 255 q 154 263 162 272 q 170 281 180 288 q 191 294 204 294 q 236 292 246 265 z"},"n":{"x_min":0,"x_max":313,"ha":313,"o":"m 93 165 q 122 202 144 227 q 165 252 182 267 q 198 282 210 288 q 222 293 232 293 q 263 293 269 265 q 272 254 270 239 q 268 224 262 202 q 256 181 246 151 q 237 121 225 79 q 218 51 226 52 q 234 53 252 72 q 269 91 294 122 q 318 152 343 184 q 343 183 346 180 q 349 176 351 170 q 353 164 352 156 q 350 148 343 139 q 323 115 308 96 q 293 78 279 63 q 265 48 250 35 q 236 22 217 9 q 206 1 192 0 q 179 -1 166 3 q 154 7 146 16 q 137 25 138 37 q 140 69 150 106 q 159 144 173 185 q 177 198 172 201 q 166 204 155 193 q 139 177 116 151 q 94 125 77 103 l 67 65 q 55 21 41 10 q 27 -1 4 0 q -11 1 -20 10 q -28 19 -24 36 q -19 60 -12 90 q -5 119 4 151 q 14 183 25 214 q 36 246 49 275 q 54 287 66 292 q 79 296 92 295 q 106 294 116 290 q 125 286 124 282 z"},"h":{"x_min":0,"x_max":315,"ha":315,"o":"m 89 145 q 121 187 144 216 q 166 244 182 262 q 198 279 210 286 q 221 294 232 293 q 263 293 269 265 q 272 254 270 239 q 268 224 262 202 q 256 181 246 151 q 237 121 225 79 q 218 51 226 52 q 234 53 252 72 q 269 91 294 122 q 318 152 343 184 q 343 183 346 180 q 349 176 351 170 q 353 164 352 156 q 350 148 343 139 q 323 115 308 96 q 293 78 279 63 q 265 48 250 35 q 236 22 217 9 q 206 1 192 0 q 179 -1 166 3 q 154 7 146 16 q 137 25 138 37 q 140 69 150 102 q 159 135 173 177 q 177 189 172 192 q 166 195 156 184 q 146 175 134 161 q 122 147 110 132 q 99 117 88 103 q 78 89 71 79 l 67 65 q 55 21 41 10 q 27 -1 4 0 q -11 1 -20 10 q -28 19 -24 36 q -21 52 -14 80 q -6 108 4 142 q 13 176 24 214 q 35 252 46 287 q 58 322 68 352 q 79 382 88 401 q 93 413 106 417 q 118 421 132 420 q 145 420 154 416 q 164 412 163 408 z"},"z":{"x_min":0,"x_max":264,"ha":264,"o":"m -8 54 q -3 67 7 76 q 17 86 39 94 q 70 106 93 126 q 116 145 132 166 q 148 186 156 204 q 165 223 167 233 q 169 244 166 250 q 163 257 150 249 q 119 229 88 220 l 14 122 q 14 123 11 126 q 8 130 6 136 q 5 142 6 150 q 7 158 14 167 l 49 214 q 33 214 26 218 q 18 221 14 231 q 11 242 16 258 q 22 273 33 288 q 44 302 57 312 q 70 323 82 323 q 96 323 104 316 q 113 308 114 298 q 116 287 111 276 q 106 264 94 255 q 108 254 119 260 q 130 265 141 272 q 152 280 164 286 q 177 292 194 293 q 247 296 247 248 q 248 236 238 210 q 228 185 209 157 q 190 129 162 105 q 135 81 101 71 q 144 65 171 46 q 213 84 256 140 l 292 187 q 292 186 294 182 q 297 178 299 172 q 301 166 300 158 q 299 150 292 141 l 282 128 q 259 94 236 69 q 213 44 193 26 q 211 2 212 -28 q 213 -58 200 -84 q 187 -110 162 -128 q 136 -147 103 -148 q 89 -148 75 -144 q 61 -140 49 -132 q 37 -125 29 -114 q 21 -104 18 -92 q 14 -77 25 -63 q 36 -49 59 -35 q 96 -13 128 10 q 113 32 80 46 q 48 59 -8 54 z m 69 -113 q 87 -115 102 -107 q 116 -99 126 -84 q 136 -70 140 -52 q 143 -34 139 -16 q 123 -27 110 -34 q 97 -42 89 -49 q 72 -63 60 -74 q 49 -85 50 -94 q 50 -111 69 -113 z"},"B":{"x_min":0,"x_max":581,"ha":581,"o":"m 265 463 q 288 462 303 456 q 318 449 326 440 q 334 430 336 420 q 338 409 336 400 q 325 354 312 304 q 300 255 286 206 q 293 206 300 206 q 306 206 313 205 q 363 207 408 222 q 452 237 483 262 q 514 287 528 322 q 543 357 533 400 q 525 433 488 456 q 450 479 384 479 q 283 480 207 452 q 131 425 84 386 q 36 348 19 306 q 2 264 20 236 q -24 240 -50 254 q -76 268 -88 286 q -100 304 -98 324 q -97 344 -85 359 q -59 392 -10 418 q 38 445 101 464 q 164 482 237 492 q 310 503 386 504 q 438 505 487 497 q 536 489 574 472 q 612 455 634 428 q 656 400 655 361 q 654 325 632 296 q 610 266 576 244 q 541 221 500 206 q 458 192 418 186 q 467 171 499 146 q 531 120 530 83 q 529 57 512 36 q 494 15 464 0 q 433 -16 392 -26 q 350 -35 302 -37 q 242 -40 181 -32 q 120 -25 70 -8 q 21 10 -10 35 q -42 60 -43 91 q -43 104 -36 114 q -29 123 -18 128 q -6 133 8 134 q 23 136 37 133 q 33 105 48 79 q 62 53 91 34 q 120 14 162 4 q 204 -7 254 -4 q 299 -2 330 8 q 362 18 382 32 q 401 46 410 62 q 419 77 419 91 q 419 111 406 126 q 394 140 374 150 q 354 160 328 165 q 303 170 276 170 l 232 11 q 206 14 184 20 q 163 27 149 38 q 135 49 130 64 q 125 80 134 103 q 144 131 160 175 q 175 219 192 268 q 210 318 229 369 q 248 420 265 463 z"},"K":{"x_min":0,"x_max":525,"ha":525,"o":"m 200 496 q 232 498 249 491 q 266 484 269 476 q 275 467 276 458 q 276 450 274 442 q 262 391 242 324 q 223 256 201 187 q 266 209 312 236 q 357 264 390 298 q 424 332 448 374 q 473 415 496 465 q 517 460 532 448 q 547 435 554 418 q 561 402 560 384 q 558 366 548 351 q 512 294 454 252 q 396 210 315 178 q 323 123 370 80 q 416 37 502 2 q 496 -12 478 -21 q 460 -30 438 -32 q 415 -34 392 -30 q 368 -25 349 -12 q 322 7 305 27 q 288 47 278 68 q 267 89 262 111 q 257 133 254 156 l 184 135 q 167 81 153 36 q 139 -9 131 -35 q 105 -32 84 -26 q 62 -19 48 -8 q 34 2 29 18 q 24 34 33 57 q 42 82 60 132 q 79 182 102 241 q 124 300 147 360 q 170 421 188 468 q 111 455 73 424 q 35 392 24 356 q 14 319 24 282 q 35 246 55 223 q 12 225 -20 237 q -52 249 -71 267 q -90 285 -96 308 q -102 330 -93 353 q -71 410 6 448 q 83 486 200 496 z"},"R":{"x_min":0,"x_max":618,"ha":618,"o":"m 265 463 q 288 462 303 456 q 318 449 326 440 q 334 430 336 420 q 338 409 336 400 l 286 205 q 340 203 388 219 q 437 235 472 262 q 506 290 524 326 q 541 362 533 400 q 526 433 488 456 q 450 479 384 479 q 283 480 207 452 q 131 425 84 386 q 36 348 19 306 q 2 264 20 236 q -24 240 -50 254 q -76 268 -88 286 q -100 304 -98 324 q -97 344 -85 359 q -59 392 -10 418 q 38 445 101 464 q 164 482 237 492 q 310 503 386 504 q 438 505 486 496 q 535 488 572 470 q 609 453 631 428 q 653 402 652 369 q 652 331 628 300 q 603 270 566 248 q 529 226 484 212 q 440 198 400 192 q 403 76 588 2 q 582 -12 564 -21 q 546 -30 524 -32 q 501 -34 477 -30 q 453 -25 435 -12 q 403 10 384 34 q 366 58 356 83 q 346 108 342 134 q 339 161 337 188 q 319 190 306 193 q 293 196 286 203 l 221 -36 q 195 -33 173 -26 q 151 -20 137 -9 q 123 2 118 18 q 113 33 122 56 q 132 84 150 135 q 167 186 187 244 q 207 303 228 362 q 248 420 265 463 z"},"T":{"x_min":0,"x_max":387,"ha":387,"o":"m 508 493 q 559 482 579 467 q 599 452 602 437 q 514 452 442 455 q 370 458 310 451 q 327 440 332 426 q 338 412 336 400 q 324 350 308 288 q 291 227 274 166 q 257 106 242 54 q 227 1 218 -32 q 192 -29 170 -22 q 148 -16 134 -5 q 120 6 115 22 q 110 38 119 61 q 129 87 145 134 q 161 180 180 234 q 200 288 220 344 q 240 399 257 443 q 182 428 131 402 q 80 375 52 344 q 23 314 16 284 q 8 255 20 236 q -24 240 -50 254 q -76 268 -88 286 q -100 304 -98 324 q -97 344 -85 359 q -60 390 -4 422 q 53 454 132 476 q 211 499 307 506 q 403 512 508 493 z"},"P":{"x_min":0,"x_max":661,"ha":661,"o":"m 265 463 q 288 462 303 456 q 318 449 326 440 q 334 430 336 420 q 338 409 336 400 q 323 346 306 280 q 288 214 271 149 q 306 149 342 158 q 379 166 412 181 q 446 196 476 218 q 505 239 526 264 q 546 290 556 320 q 567 350 563 382 q 558 427 512 453 q 465 479 384 479 q 283 480 207 452 q 131 425 84 386 q 36 348 19 306 q 2 264 20 236 q -24 240 -50 254 q -76 268 -88 286 q -100 304 -98 324 q -97 344 -85 359 q -59 392 -10 419 q 38 446 100 465 q 163 484 236 494 q 310 505 386 504 q 446 504 502 493 q 557 482 600 462 q 642 441 666 411 q 690 381 687 343 q 683 303 656 270 q 629 238 589 213 q 549 188 501 171 q 453 154 408 146 q 363 137 326 136 q 289 136 270 145 l 221 -36 q 195 -33 173 -26 q 151 -20 137 -9 q 123 2 118 18 q 113 33 122 56 q 132 84 150 135 q 167 186 187 244 q 207 303 228 362 q 248 420 265 463 z"},"t":{"x_min":0,"x_max":161,"ha":161,"o":"m 148 353 l 198 353 q 209 354 214 351 q 219 348 218 344 q 217 340 211 336 q 205 333 193 332 l 142 332 l 71 79 q 64 51 72 52 q 80 53 98 72 q 115 91 140 122 q 164 152 189 184 q 189 183 192 180 q 195 176 197 170 q 199 164 198 156 q 196 148 189 139 q 169 115 154 96 q 139 78 125 63 q 111 48 96 35 q 82 22 63 9 q 53 1 39 0 q 25 -1 13 3 q 1 7 -8 16 q -16 25 -15 37 q -13 60 -8 85 q -3 110 5 139 q 19 188 34 239 q 50 290 64 332 l 57 332 q 37 332 36 342 q 35 352 61 353 l 71 353 q 80 381 89 401 q 94 413 107 417 q 120 421 133 420 q 146 420 156 416 q 165 412 164 408 z"},"M":{"x_min":0,"x_max":703,"ha":703,"o":"m 666 490 q 689 489 702 482 q 716 476 722 467 q 729 458 730 448 q 730 438 728 429 q 716 379 698 313 q 680 247 660 181 q 641 115 624 58 q 607 1 598 -32 q 572 -29 551 -22 q 530 -16 516 -6 q 503 5 498 21 q 494 37 503 60 q 511 81 525 118 q 539 156 556 202 q 573 248 592 298 q 611 348 628 393 q 597 359 558 310 q 518 260 479 208 q 440 155 407 106 q 374 57 356 24 l 344 -26 q 315 -13 294 32 q 273 78 259 136 q 245 194 236 254 q 227 315 221 359 q 203 316 183 256 q 163 197 144 138 q 126 80 110 31 q 94 -18 84 -40 q 61 -39 41 -32 q 21 -26 8 -14 q -5 -3 -8 13 q -11 29 -1 49 q 7 66 22 98 q 36 130 54 170 q 72 210 92 255 q 113 300 133 343 q 153 386 172 424 q 190 461 205 488 q 240 481 258 462 q 276 443 283 426 q 289 411 296 376 q 302 340 310 296 q 318 253 330 207 q 341 161 358 125 q 380 157 410 197 q 439 237 471 278 q 503 318 535 357 q 567 396 594 426 q 620 456 638 474 q 657 491 662 491 l 665 488 q 665 489 666 489 q 666 489 666 490 z m 340 -20 q 340 -20 341 -21 q 341 -20 340 -20 z"},"g":{"x_min":0,"x_max":316,"ha":316,"o":"m 210 38 q 230 55 254 79 q 277 103 306 138 q 316 149 324 161 q 331 173 341 184 q 341 183 344 180 q 347 176 349 170 q 351 164 350 156 q 349 148 342 139 l 331 127 q 293 79 259 47 q 225 15 196 -5 l 166 -100 q 153 -128 132 -140 q 111 -151 90 -151 q 68 -151 49 -142 q 30 -133 22 -118 q 15 -103 22 -86 q 29 -68 58 -52 q 84 -37 108 -27 l 129 45 q 108 26 85 12 q 62 -1 42 -1 q 20 -1 7 8 q -6 17 -10 31 q -20 65 -9 111 q 2 157 30 198 q 57 240 100 268 q 142 297 195 296 q 220 296 240 288 q 261 280 265 263 q 269 244 251 227 q 259 225 264 223 q 269 221 268 219 z m 152 215 q 178 220 192 231 q 207 242 211 257 q 212 263 206 270 q 199 277 183 272 q 161 266 140 236 q 120 207 104 172 q 89 136 81 102 q 73 68 76 52 q 77 44 84 45 q 91 46 101 52 q 111 59 122 68 q 133 78 142 88 q 158 143 180 205 q 162 205 152 215 z m 84 -103 q 88 -92 91 -81 q 94 -70 98 -59 l 88 -65 q 64 -80 58 -92 q 53 -105 58 -112 q 62 -119 70 -118 q 79 -117 84 -103 z"},"j":{"x_min":0,"x_max":156,"ha":156,"o":"m 51 35 q 71 52 95 77 q 119 102 149 138 q 159 149 167 161 q 175 173 184 184 q 184 183 187 180 q 190 176 192 170 q 194 164 193 156 q 192 148 185 139 l 175 127 q 136 78 102 46 q 67 14 38 -6 l 9 -100 q -4 -128 -24 -140 q -45 -151 -67 -151 q -89 -151 -108 -142 q -126 -133 -134 -118 q -141 -103 -134 -86 q -127 -68 -97 -52 q -83 -44 -72 -38 q -60 -33 -49 -27 q -27 48 -6 124 q 16 201 51 273 q 57 285 70 289 q 83 293 96 292 q 109 292 118 288 q 128 284 127 280 z m 94 359 q 102 373 120 378 q 138 383 155 377 q 172 370 176 356 q 181 342 172 328 q 163 314 145 309 q 127 304 111 310 q 94 317 90 331 q 85 345 94 359 z m -58 -60 q -62 -61 -68 -65 q -92 -80 -97 -92 q -102 -105 -98 -112 q -94 -119 -86 -118 q -77 -117 -72 -103 z"},"i":{"x_min":0,"x_max":157,"ha":157,"o":"m 94 359 q 102 373 120 378 q 138 383 155 377 q 172 370 176 356 q 181 342 172 328 q 163 314 145 309 q 127 304 111 310 q 94 317 90 331 q 85 345 94 359 z m -19 37 q -16 94 5 156 q 26 217 51 273 q 57 285 70 289 q 83 293 96 292 q 109 292 118 288 q 128 284 127 280 l 67 79 q 60 51 68 52 q 76 53 94 72 q 111 91 135 122 q 159 152 184 184 q 184 183 187 180 q 190 176 192 170 q 194 164 192 156 q 191 148 184 139 q 164 115 149 96 q 134 78 120 63 q 107 48 92 35 q 77 22 58 9 q 48 1 34 0 q 20 -1 8 3 q -4 7 -12 16 q -20 25 -19 37 z"},"y":{"x_min":0,"x_max":324,"ha":324,"o":"m 218 35 q 239 52 263 77 q 287 102 317 138 q 326 149 334 161 q 342 173 352 184 q 352 183 355 180 q 358 176 360 170 q 362 164 361 156 q 360 148 353 139 l 342 127 q 303 77 268 46 q 234 14 205 -6 l 176 -100 q 164 -128 143 -140 q 122 -151 100 -151 q 78 -151 60 -142 q 41 -133 33 -118 q 25 -103 32 -86 q 39 -68 69 -52 q 82 -45 94 -39 q 105 -33 116 -28 q 125 4 134 36 q 143 69 153 101 q 128 70 108 50 q 88 29 58 9 q 48 1 34 0 q 20 -1 8 3 q -4 7 -12 16 q -20 25 -19 37 q -16 94 5 156 q 26 217 51 273 q 56 285 69 289 q 82 293 96 292 q 109 292 118 288 q 128 284 127 280 l 67 79 q 60 52 68 52 q 75 52 92 70 q 108 87 131 116 q 154 146 178 177 q 187 202 197 226 q 207 250 219 273 q 225 285 238 289 q 250 293 263 292 q 276 292 286 288 q 295 284 294 280 z m 94 -103 q 97 -92 100 -82 q 104 -71 107 -60 q 105 -62 103 -62 q 101 -63 99 -65 q 75 -80 70 -92 q 64 -105 68 -112 q 72 -119 81 -118 q 90 -117 94 -103 z"},"p":{"x_min":0,"x_max":291,"ha":291,"o":"m 120 258 l 129 266 q 165 294 212 296 q 244 297 258 276 q 271 254 271 220 q 271 187 258 148 q 245 110 224 76 q 203 43 175 21 q 147 -1 116 -1 q 95 0 80 12 q 65 25 57 40 l 23 -80 q 17 -103 12 -116 q 6 -129 -2 -136 q -9 -142 -18 -144 q -27 -146 -39 -146 q -54 -146 -62 -136 q -71 -127 -67 -110 q -64 -94 -56 -64 q -48 -35 -38 2 q -27 38 -15 78 q -3 119 10 156 q 22 194 33 226 q 44 257 52 276 q 57 288 70 292 q 83 296 96 296 q 109 295 118 291 q 128 287 127 283 z m 171 261 q 161 261 160 260 q 160 258 153 254 q 147 251 143 245 q 139 239 138 232 q 137 225 141 218 q 145 212 155 208 q 136 204 124 206 q 113 209 107 214 l 74 98 q 69 74 74 58 q 78 43 94 44 q 105 44 119 60 q 133 77 146 100 q 160 124 171 152 q 182 180 186 204 q 191 228 188 244 q 185 260 171 261 z"},"X":{"x_min":0,"x_max":675,"ha":675,"o":"m 673 107 q 637 62 600 36 q 564 9 512 -13 q 492 -22 472 -24 q 452 -25 433 -26 q 329 -29 297 69 q 292 82 289 96 q 286 109 284 123 q 257 90 228 62 q 198 33 164 12 q 131 -9 94 -22 q 56 -34 14 -34 q -40 -34 -78 -20 q -116 -5 -137 16 q -158 38 -162 64 q -165 89 -149 112 q -133 134 -100 149 q -67 164 -28 168 q 10 173 48 165 q 86 157 111 133 q 64 138 34 132 q 3 126 -16 114 q -34 102 -42 86 q -49 69 -50 53 q -51 42 -46 34 q -40 25 -30 20 q -20 14 -7 11 q 6 8 20 8 q 61 8 95 26 q 129 44 159 74 q 189 105 216 144 q 243 183 271 225 q 268 260 265 294 q 262 329 256 362 q 252 387 248 411 q 244 435 238 451 q 235 460 228 464 q 222 467 213 467 q 204 467 194 464 q 185 461 176 458 q 131 437 110 405 q 89 373 85 338 q 81 304 92 272 q 103 239 121 218 q 77 220 46 232 q 14 244 -5 262 q -24 281 -30 304 q -36 326 -27 349 q -15 380 10 408 q 36 435 73 455 q 110 475 158 486 q 205 498 261 497 q 292 497 309 485 q 326 473 334 456 q 343 440 346 420 q 350 401 354 386 q 355 377 356 368 q 357 358 359 349 q 384 380 412 406 q 440 433 473 453 q 506 473 544 484 q 581 496 626 496 q 672 491 692 470 q 712 448 712 420 q 712 392 696 364 q 679 335 652 316 q 624 296 589 291 q 554 286 517 306 q 569 314 592 344 q 616 375 615 414 q 616 432 606 448 q 596 463 582 461 q 555 459 529 441 q 503 423 478 394 q 453 365 428 328 q 402 291 375 251 q 380 220 385 192 q 390 165 394 143 q 399 121 402 106 q 406 92 408 86 q 418 48 444 34 q 470 19 504 26 q 538 33 577 58 q 616 84 652 126 l 660 135 l 662 138 q 672 149 682 161 q 691 173 699 185 q 699 184 702 180 q 705 177 706 171 q 708 165 707 157 q 706 149 699 140 q 697 137 695 134 q 693 130 690 128 l 686 122 l 673 107 z"},"Y":{"x_min":0,"x_max":548,"ha":548,"o":"m 173 -62 q 214 -55 248 -26 q 283 2 312 44 q 342 86 367 138 q 392 189 413 244 q 382 197 345 167 q 308 137 253 139 q 189 142 160 168 q 131 193 124 228 q 117 263 126 301 q 134 339 144 367 q 152 390 164 416 q 177 442 191 468 q 140 459 106 442 q 72 425 53 403 q 34 381 27 356 q 20 331 22 306 q 25 282 34 260 q 44 238 58 223 q 14 225 -18 237 q -49 249 -68 267 q -88 285 -94 308 q -99 330 -90 353 q -68 410 9 448 q 86 486 202 496 q 234 498 250 491 q 266 484 270 476 q 276 467 278 458 q 279 450 277 442 q 271 416 268 403 q 265 390 262 379 q 259 368 255 354 q 251 341 243 315 q 237 294 232 272 q 227 249 228 230 q 228 211 238 198 q 247 184 270 183 q 292 181 320 201 q 348 221 375 253 q 402 285 426 324 q 451 363 468 401 q 476 426 484 449 q 492 472 500 492 q 524 490 539 484 q 554 477 562 468 q 570 459 572 448 q 574 438 571 429 q 566 398 556 349 q 546 300 528 244 q 509 189 480 132 q 451 75 409 28 q 367 -20 310 -53 q 253 -86 178 -92 q 98 -99 56 -78 q 15 -58 4 -26 q -7 6 9 42 q 25 78 60 104 q 96 129 146 136 q 197 142 256 115 q 223 122 193 110 q 163 97 141 75 q 119 53 107 26 q 95 -1 96 -23 q 98 -45 116 -57 q 134 -69 173 -62 z"},"c":{"x_min":0,"x_max":274,"ha":274,"o":"m 146 7 q 135 1 115 -2 q 95 -5 74 -2 q 52 2 32 15 q 12 28 2 55 q -11 90 0 134 q 11 179 40 216 q 69 254 114 277 q 158 300 212 293 q 246 288 257 272 q 268 257 270 247 q 274 225 260 206 q 247 186 226 176 q 205 165 182 166 q 159 166 144 184 q 156 187 168 194 q 179 201 188 210 q 197 220 202 231 q 207 242 206 253 q 206 260 202 268 q 199 277 183 272 q 161 266 140 240 q 119 215 104 183 q 88 151 81 118 q 74 86 80 64 q 86 43 100 36 q 115 30 134 35 q 154 40 176 54 q 199 69 221 89 q 241 107 261 133 q 281 159 301 184 q 301 183 304 180 q 307 176 309 170 q 311 164 310 156 q 308 148 301 139 q 261 90 226 59 q 191 28 146 7 z"},"6":{"x_min":0,"x_max":1219,"ha":1219,"o":"m 876 781 l 739 657 l 775 471 l 615 565 l 450 471 l 489 652 l 351 781 l 537 801 l 615 972 l 690 802 z m 682 576 l 639 834 l 586 834 l 541 576 l 564 562 l 583 576 l 592 634 l 631 634 l 642 576 l 663 562 z m 628 672 l 598 672 l 612 774 z m 610 21 l 631 21 l 624 39 q 622 42 622 44 q 622 46 619 49 q 619 45 616 39 z m 352 -5 l 352 3 l 363 3 l 363 -5 z m 844 -5 l 844 58 l 852 58 l 852 1 l 883 1 l 883 -5 z m 787 -5 l 787 58 l 832 58 l 832 49 l 795 49 l 795 30 l 829 30 l 829 22 l 795 22 l 795 1 l 832 1 l 832 -5 z m 565 -5 l 565 21 l 541 58 l 552 58 l 564 39 q 567 30 570 28 q 571 30 572 33 q 574 36 577 39 l 589 58 l 598 58 l 573 21 l 573 -5 z m 376 -5 l 376 58 l 400 58 q 403 58 406 56 q 408 55 409 55 q 415 54 417 49 q 420 46 420 40 q 420 36 417 34 q 415 28 411 28 q 415 27 420 22 q 423 16 423 13 q 423 10 422 8 q 421 7 421 6 q 420 0 415 0 q 414 -3 412 -3 q 411 -3 409 -5 l 400 -5 z m 205 -5 l 187 58 l 196 58 l 205 16 q 207 12 207 9 q 207 6 208 3 q 210 10 210 15 l 222 58 l 232 58 l 241 25 q 243 18 244 14 q 246 9 246 3 q 247 6 247 9 q 247 12 249 16 l 259 58 l 267 58 l 249 -5 l 241 -5 l 229 42 q 228 46 228 49 q 226 46 226 42 l 213 -5 z m 123 -5 l 105 58 l 115 58 l 123 16 q 123 9 127 3 q 129 10 129 15 l 141 58 l 150 58 l 160 25 q 162 18 162 14 q 163 9 163 3 q 166 6 166 9 q 166 12 168 16 l 177 58 l 186 58 l 168 -5 l 160 -5 l 148 42 q 147 46 147 49 q 144 46 144 42 l 130 -5 z m 384 30 l 397 30 q 403 30 405 33 q 409 33 409 34 q 411 36 411 40 q 411 45 409 46 l 408 46 q 406 46 406 47 q 406 48 405 48 q 403 49 396 49 l 384 49 z m 285 -5 l 268 58 l 277 58 l 286 16 q 288 12 288 9 q 288 6 291 3 q 291 9 292 11 q 292 13 292 15 l 304 58 l 313 58 l 324 25 q 325 18 326 14 q 327 9 327 3 q 330 6 330 9 q 330 12 331 16 l 342 58 l 349 58 l 331 -5 l 324 -5 l 312 42 q 310 46 310 49 q 307 46 307 42 l 294 -5 z m 664 28 l 682 28 q 685 28 688 29 q 690 30 693 30 q 696 30 696 34 q 697 36 697 40 q 697 45 694 48 q 693 49 684 49 l 664 49 z m 384 1 l 400 1 q 403 1 405 3 l 409 3 q 411 6 414 7 l 414 13 q 414 16 411 19 q 411 22 408 22 l 397 22 l 384 22 z m 435 -5 l 435 58 l 442 58 l 442 -5 z m 985 25 q 985 12 990 7 q 996 1 1006 1 q 1017 1 1021 7 q 1027 12 1027 27 q 1027 34 1026 39 q 1023 46 1018 48 q 1014 49 1006 49 q 997 49 993 45 q 985 39 985 25 z m 976 25 q 976 42 985 49 q 991 58 1006 58 q 1011 58 1014 56 q 1018 55 1021 54 q 1026 52 1028 49 q 1030 46 1033 42 q 1035 39 1035 27 q 1035 13 1032 9 q 1027 1 1021 -3 q 1015 -6 1006 -6 q 1002 -6 998 -6 q 994 -5 990 -3 q 987 0 984 3 q 982 6 981 9 q 979 13 978 17 q 976 21 976 25 z m 592 -5 l 616 58 l 625 58 l 651 -5 l 642 -5 l 634 13 l 609 13 l 600 -5 z m 459 -5 l 459 58 l 466 58 l 466 1 l 495 1 l 495 -5 z m 892 -5 l 892 3 l 903 3 l 903 -5 z m 748 19 l 748 27 l 774 27 l 774 3 q 768 -3 762 -5 q 759 -5 755 -6 q 751 -6 748 -6 q 739 -6 733 -3 q 729 0 726 2 q 723 4 721 9 q 720 13 718 17 q 717 21 717 25 q 717 31 718 34 q 720 37 721 42 q 724 51 732 54 q 735 55 740 56 q 744 58 748 58 q 756 58 760 55 q 766 54 768 49 q 772 45 774 40 l 766 39 q 766 40 762 45 q 762 48 756 49 l 748 49 l 739 49 q 735 48 732 45 q 732 43 727 39 q 727 36 726 33 q 726 30 726 27 q 726 16 729 13 q 735 4 736 3 q 741 1 748 1 q 754 1 759 3 q 762 6 764 6 q 765 6 766 7 l 766 19 z m 657 -5 l 657 58 l 684 58 q 688 58 691 56 q 694 55 697 55 q 702 54 703 49 q 706 46 706 40 q 706 33 702 28 q 700 27 696 26 q 693 25 688 22 q 691 22 692 22 q 693 21 694 21 q 696 18 696 16 q 697 13 700 10 l 712 -5 l 702 -5 l 693 7 q 690 10 689 12 q 688 15 687 16 q 687 19 686 19 q 684 19 682 21 l 681 21 q 679 21 679 22 q 679 22 678 22 l 675 22 l 664 22 l 664 -5 z m 505 -5 l 505 58 l 514 58 l 514 1 l 544 1 l 544 -5 z m 961 16 l 969 15 q 966 3 960 0 q 954 -6 943 -6 q 934 -6 928 -3 q 924 0 922 3 q 921 6 918 9 q 915 21 915 27 q 915 33 918 45 q 925 52 928 54 q 933 55 936 56 q 939 58 943 58 q 948 58 952 56 q 957 55 960 54 q 963 51 965 48 q 967 45 969 40 l 960 39 q 960 45 954 48 q 951 49 943 49 q 934 49 931 48 q 928 46 928 44 q 927 42 924 39 q 924 36 923 33 q 922 30 922 27 q 922 18 927 13 q 927 10 928 8 q 930 6 931 3 q 936 1 943 1 q 951 1 955 6 q 960 10 961 16 z m 1047 -5 l 1047 58 l 1059 58 l 1074 13 q 1074 10 1076 8 q 1077 6 1077 3 q 1077 4 1080 13 l 1093 58 l 1105 58 l 1105 -5 l 1098 -5 l 1098 46 l 1080 -5 l 1072 -5 l 1054 48 l 1054 -5 z m 610 21 l 631 21 l 624 39 q 622 42 622 44 q 622 46 619 49 q 619 45 616 39 z m 352 -5 l 352 3 l 363 3 l 363 -5 z m 844 -5 l 844 58 l 852 58 l 852 1 l 883 1 l 883 -5 z m 787 -5 l 787 58 l 832 58 l 832 49 l 795 49 l 795 30 l 829 30 l 829 22 l 795 22 l 795 1 l 832 1 l 832 -5 z m 565 -5 l 565 21 l 541 58 l 552 58 l 564 39 q 567 30 570 28 q 571 30 572 33 q 574 36 577 39 l 589 58 l 598 58 l 573 21 l 573 -5 z m 376 -5 l 376 58 l 400 58 q 403 58 406 56 q 408 55 409 55 q 415 54 417 49 q 420 46 420 40 q 420 36 417 34 q 415 28 411 28 q 415 27 420 22 q 423 16 423 13 q 423 10 422 8 q 421 7 421 6 q 420 0 415 0 q 414 -3 412 -3 q 411 -3 409 -5 l 400 -5 z m 205 -5 l 187 58 l 196 58 l 205 16 q 207 12 207 9 q 207 6 208 3 q 210 10 210 15 l 222 58 l 232 58 l 241 25 q 243 18 244 14 q 246 9 246 3 q 247 6 247 9 q 247 12 249 16 l 259 58 l 267 58 l 249 -5 l 241 -5 l 229 42 q 228 46 228 49 q 226 46 226 42 l 213 -5 z m 123 -5 l 105 58 l 115 58 l 123 16 q 123 9 127 3 q 129 10 129 15 l 141 58 l 150 58 l 160 25 q 162 18 162 14 q 163 9 163 3 q 166 6 166 9 q 166 12 168 16 l 177 58 l 186 58 l 168 -5 l 160 -5 l 148 42 q 147 46 147 49 q 144 46 144 42 l 130 -5 z m 384 30 l 397 30 q 403 30 405 33 q 409 33 409 34 q 411 36 411 40 q 411 45 409 46 l 408 46 q 406 46 406 47 q 406 48 405 48 q 403 49 396 49 l 384 49 z m 285 -5 l 268 58 l 277 58 l 286 16 q 288 12 288 9 q 288 6 291 3 q 291 9 292 11 q 292 13 292 15 l 304 58 l 313 58 l 324 25 q 325 18 326 14 q 327 9 327 3 q 330 6 330 9 q 330 12 331 16 l 342 58 l 349 58 l 331 -5 l 324 -5 l 312 42 q 310 46 310 49 q 307 46 307 42 l 294 -5 z m 664 28 l 682 28 q 685 28 688 29 q 690 30 693 30 q 696 30 696 34 q 697 36 697 40 q 697 45 694 48 q 693 49 684 49 l 664 49 z m 384 1 l 400 1 q 403 1 405 3 l 409 3 q 411 6 414 7 l 414 13 q 414 16 411 19 q 411 22 408 22 l 397 22 l 384 22 z m 435 -5 l 435 58 l 442 58 l 442 -5 z m 985 25 q 985 12 990 7 q 996 1 1006 1 q 1017 1 1021 7 q 1027 12 1027 27 q 1027 34 1026 39 q 1023 46 1018 48 q 1014 49 1006 49 q 997 49 993 45 q 985 39 985 25 z m 976 25 q 976 42 985 49 q 991 58 1006 58 q 1011 58 1014 56 q 1018 55 1021 54 q 1026 52 1028 49 q 1030 46 1033 42 q 1035 39 1035 27 q 1035 13 1032 9 q 1027 1 1021 -3 q 1015 -6 1006 -6 q 1002 -6 998 -6 q 994 -5 990 -3 q 987 0 984 3 q 982 6 981 9 q 979 13 978 17 q 976 21 976 25 z m 592 -5 l 616 58 l 625 58 l 651 -5 l 642 -5 l 634 13 l 609 13 l 600 -5 z m 459 -5 l 459 58 l 466 58 l 466 1 l 495 1 l 495 -5 z m 892 -5 l 892 3 l 903 3 l 903 -5 z m 748 19 l 748 27 l 774 27 l 774 3 q 768 -3 762 -5 q 759 -5 755 -6 q 751 -6 748 -6 q 739 -6 733 -3 q 729 0 726 2 q 723 4 721 9 q 720 13 718 17 q 717 21 717 25 q 717 31 718 34 q 720 37 721 42 q 724 51 732 54 q 735 55 740 56 q 744 58 748 58 q 756 58 760 55 q 766 54 768 49 q 772 45 774 40 l 766 39 q 766 40 762 45 q 762 48 756 49 l 748 49 l 739 49 q 735 48 732 45 q 732 43 727 39 q 727 36 726 33 q 726 30 726 27 q 726 16 729 13 q 735 4 736 3 q 741 1 748 1 q 754 1 759 3 q 762 6 764 6 q 765 6 766 7 l 766 19 z m 657 -5 l 657 58 l 684 58 q 688 58 691 56 q 694 55 697 55 q 702 54 703 49 q 706 46 706 40 q 706 33 702 28 q 700 27 696 26 q 693 25 688 22 q 691 22 692 22 q 693 21 694 21 q 696 18 696 16 q 697 13 700 10 l 712 -5 l 702 -5 l 693 7 q 690 10 689 12 q 688 15 687 16 q 687 19 686 19 q 684 19 682 21 l 681 21 q 679 21 679 22 q 679 22 678 22 l 675 22 l 664 22 l 664 -5 z m 505 -5 l 505 58 l 514 58 l 514 1 l 544 1 l 544 -5 z m 961 16 l 969 15 q 966 3 960 0 q 954 -6 943 -6 q 934 -6 928 -3 q 924 0 922 3 q 921 6 918 9 q 915 21 915 27 q 915 33 918 45 q 925 52 928 54 q 933 55 936 56 q 939 58 943 58 q 948 58 952 56 q 957 55 960 54 q 963 51 965 48 q 967 45 969 40 l 960 39 q 960 45 954 48 q 951 49 943 49 q 934 49 931 48 q 928 46 928 44 q 927 42 924 39 q 924 36 923 33 q 922 30 922 27 q 922 18 927 13 q 927 10 928 8 q 930 6 931 3 q 936 1 943 1 q 951 1 955 6 q 960 10 961 16 z m 1047 -5 l 1047 58 l 1059 58 l 1074 13 q 1074 10 1076 8 q 1077 6 1077 3 q 1077 4 1080 13 l 1093 58 l 1105 58 l 1105 -5 l 1098 -5 l 1098 46 l 1080 -5 l 1072 -5 l 1054 48 l 1054 -5 z m 610 21 l 631 21 l 624 39 q 622 42 622 44 q 622 46 619 49 q 619 45 616 39 z m 352 -5 l 352 3 l 363 3 l 363 -5 z m 844 -5 l 844 58 l 852 58 l 852 1 l 883 1 l 883 -5 z m 787 -5 l 787 58 l 832 58 l 832 49 l 795 49 l 795 30 l 829 30 l 829 22 l 795 22 l 795 1 l 832 1 l 832 -5 z m 565 -5 l 565 21 l 541 58 l 552 58 l 564 39 q 567 30 570 28 q 571 30 572 33 q 574 36 577 39 l 589 58 l 598 58 l 573 21 l 573 -5 z m 376 -5 l 376 58 l 400 58 q 403 58 406 56 q 408 55 409 55 q 415 54 417 49 q 420 46 420 40 q 420 36 417 34 q 415 28 411 28 q 415 27 420 22 q 423 16 423 13 q 423 10 422 8 q 421 7 421 6 q 420 0 415 0 q 414 -3 412 -3 q 411 -3 409 -5 l 400 -5 z m 205 -5 l 187 58 l 196 58 l 205 16 q 207 12 207 9 q 207 6 208 3 q 210 10 210 15 l 222 58 l 232 58 l 241 25 q 243 18 244 14 q 246 9 246 3 q 247 6 247 9 q 247 12 249 16 l 259 58 l 267 58 l 249 -5 l 241 -5 l 229 42 q 228 46 228 49 q 226 46 226 42 l 213 -5 z m 123 -5 l 105 58 l 115 58 l 123 16 q 123 9 127 3 q 129 10 129 15 l 141 58 l 150 58 l 160 25 q 162 18 162 14 q 163 9 163 3 q 166 6 166 9 q 166 12 168 16 l 177 58 l 186 58 l 168 -5 l 160 -5 l 148 42 q 147 46 147 49 q 144 46 144 42 l 130 -5 z m 384 30 l 397 30 q 403 30 405 33 q 409 33 409 34 q 411 36 411 40 q 411 45 409 46 l 408 46 q 406 46 406 47 q 406 48 405 48 q 403 49 396 49 l 384 49 z m 285 -5 l 268 58 l 277 58 l 286 16 q 288 12 288 9 q 288 6 291 3 q 291 9 292 11 q 292 13 292 15 l 304 58 l 313 58 l 324 25 q 325 18 326 14 q 327 9 327 3 q 330 6 330 9 q 330 12 331 16 l 342 58 l 349 58 l 331 -5 l 324 -5 l 312 42 q 310 46 310 49 q 307 46 307 42 l 294 -5 z m 664 28 l 682 28 q 685 28 688 29 q 690 30 693 30 q 696 30 696 34 q 697 36 697 40 q 697 45 694 48 q 693 49 684 49 l 664 49 z m 384 1 l 400 1 q 403 1 405 3 l 409 3 q 411 6 414 7 l 414 13 q 414 16 411 19 q 411 22 408 22 l 397 22 l 384 22 z m 435 -5 l 435 58 l 442 58 l 442 -5 z m 985 25 q 985 12 990 7 q 996 1 1006 1 q 1017 1 1021 7 q 1027 12 1027 27 q 1027 34 1026 39 q 1023 46 1018 48 q 1014 49 1006 49 q 997 49 993 45 q 985 39 985 25 z m 976 25 q 976 42 985 49 q 991 58 1006 58 q 1011 58 1014 56 q 1018 55 1021 54 q 1026 52 1028 49 q 1030 46 1033 42 q 1035 39 1035 27 q 1035 13 1032 9 q 1027 1 1021 -3 q 1015 -6 1006 -6 q 1002 -6 998 -6 q 994 -5 990 -3 q 987 0 984 3 q 982 6 981 9 q 979 13 978 17 q 976 21 976 25 z m 592 -5 l 616 58 l 625 58 l 651 -5 l 642 -5 l 634 13 l 609 13 l 600 -5 z m 459 -5 l 459 58 l 466 58 l 466 1 l 495 1 l 495 -5 z m 892 -5 l 892 3 l 903 3 l 903 -5 z m 748 19 l 748 27 l 774 27 l 774 3 q 768 -3 762 -5 q 759 -5 755 -6 q 751 -6 748 -6 q 739 -6 733 -3 q 729 0 726 2 q 723 4 721 9 q 720 13 718 17 q 717 21 717 25 q 717 31 718 34 q 720 37 721 42 q 724 51 732 54 q 735 55 740 56 q 744 58 748 58 q 756 58 760 55 q 766 54 768 49 q 772 45 774 40 l 766 39 q 766 40 762 45 q 762 48 756 49 l 748 49 l 739 49 q 735 48 732 45 q 732 43 727 39 q 727 36 726 33 q 726 30 726 27 q 726 16 729 13 q 735 4 736 3 q 741 1 748 1 q 754 1 759 3 q 762 6 764 6 q 765 6 766 7 l 766 19 z m 657 -5 l 657 58 l 684 58 q 688 58 691 56 q 694 55 697 55 q 702 54 703 49 q 706 46 706 40 q 706 33 702 28 q 700 27 696 26 q 693 25 688 22 q 691 22 692 22 q 693 21 694 21 q 696 18 696 16 q 697 13 700 10 l 712 -5 l 702 -5 l 693 7 q 690 10 689 12 q 688 15 687 16 q 687 19 686 19 q 684 19 682 21 l 681 21 q 679 21 679 22 q 679 22 678 22 l 675 22 l 664 22 l 664 -5 z m 505 -5 l 505 58 l 514 58 l 514 1 l 544 1 l 544 -5 z m 961 16 l 969 15 q 966 3 960 0 q 954 -6 943 -6 q 934 -6 928 -3 q 924 0 922 3 q 921 6 918 9 q 915 21 915 27 q 915 33 918 45 q 925 52 928 54 q 933 55 936 56 q 939 58 943 58 q 948 58 952 56 q 957 55 960 54 q 963 51 965 48 q 967 45 969 40 l 960 39 q 960 45 954 48 q 951 49 943 49 q 934 49 931 48 q 928 46 928 44 q 927 42 924 39 q 924 36 923 33 q 922 30 922 27 q 922 18 927 13 q 927 10 928 8 q 930 6 931 3 q 936 1 943 1 q 951 1 955 6 q 960 10 961 16 z m 1047 -5 l 1047 58 l 1059 58 l 1074 13 q 1074 10 1076 8 q 1077 6 1077 3 q 1077 4 1080 13 l 1093 58 l 1105 58 l 1105 -5 l 1098 -5 l 1098 46 l 1080 -5 l 1072 -5 l 1054 48 l 1054 -5 z m 175 111 l 187 106 q 184 93 174 84 q 162 75 148 75 q 135 75 123 81 q 111 90 109 99 q 103 109 103 124 q 103 141 109 151 q 114 162 124 166 q 135 172 148 172 q 165 172 171 165 q 181 162 186 145 l 174 144 q 168 156 163 157 q 157 163 148 163 q 136 163 130 157 q 121 151 118 144 q 117 138 117 124 q 117 111 121 105 q 124 94 130 91 q 138 85 147 85 q 159 85 166 93 q 169 96 172 100 q 174 105 175 111 z m 199 123 q 199 135 202 144 q 205 153 213 159 q 219 166 227 169 q 235 172 244 172 q 258 172 268 166 q 277 162 285 150 q 291 135 291 124 q 291 117 290 111 q 288 105 285 99 q 277 87 267 81 q 255 75 244 75 q 237 75 232 76 q 226 78 220 81 q 210 87 205 99 q 199 109 199 123 z m 213 123 q 213 105 220 94 q 231 85 244 85 q 259 85 267 97 q 277 108 277 124 q 277 130 276 134 q 274 139 273 144 q 270 154 261 157 q 256 163 244 163 q 232 163 222 153 q 213 145 213 123 z m 306 78 l 306 171 l 324 171 l 346 105 q 351 96 351 91 q 354 94 357 106 l 381 171 l 396 171 l 396 78 l 384 78 l 384 156 l 357 78 l 345 78 l 318 157 l 318 78 z m 417 78 l 417 171 l 453 171 l 466 171 q 474 171 478 166 q 480 165 486 157 q 487 154 488 151 q 489 148 489 144 q 489 135 481 124 q 474 117 453 117 l 429 117 l 429 78 z m 429 126 l 454 126 q 468 126 469 132 q 475 133 475 144 q 475 151 474 153 q 468 159 463 159 q 462 162 453 162 l 429 162 z m 505 78 l 505 171 l 517 171 l 517 87 l 564 87 l 564 78 z m 579 78 l 579 171 l 648 171 l 648 162 l 591 162 l 591 132 l 643 132 l 643 120 l 591 120 l 591 87 l 649 87 l 649 78 z m 690 78 l 690 162 l 658 162 l 658 171 l 735 171 l 735 162 l 703 162 l 703 78 z m 748 78 l 748 171 l 817 171 l 817 162 l 760 162 l 760 132 l 813 132 l 813 120 l 760 120 l 760 87 l 819 87 l 819 78 z m 870 106 l 882 108 q 882 100 885 97 q 888 91 895 88 q 898 87 909 87 q 912 87 916 87 q 919 87 922 88 q 927 88 930 94 q 931 97 931 103 q 931 108 930 111 q 928 112 926 113 q 924 114 921 117 q 919 117 904 120 q 897 123 892 124 q 888 124 885 126 q 879 129 876 136 q 873 138 872 141 q 871 144 871 147 q 871 156 877 162 q 879 165 882 166 q 885 168 889 171 q 892 172 907 172 q 918 172 924 169 q 928 166 931 164 q 934 163 936 159 q 942 154 942 145 l 930 144 q 927 156 922 157 q 918 162 907 162 q 892 162 889 157 q 885 153 885 147 q 885 142 889 139 q 889 139 907 132 q 915 130 920 128 q 925 127 928 126 q 933 124 935 122 q 937 120 940 117 q 943 112 943 103 q 943 93 940 88 q 934 82 928 79 q 924 78 920 76 q 915 75 909 75 q 903 75 897 76 q 891 78 888 79 q 880 81 873 91 q 870 97 870 106 z m 961 78 l 961 171 l 1029 171 l 1029 162 l 975 162 l 975 132 l 1027 132 l 1027 120 l 975 120 l 975 87 l 1032 87 l 1032 78 z m 1074 78 l 1074 162 l 1044 162 l 1044 171 l 1117 171 l 1117 162 l 1086 162 l 1086 78 z m 112 190 l 112 283 l 150 283 l 163 283 q 166 283 175 280 q 177 279 179 276 q 181 273 183 270 q 186 267 186 259 q 186 246 177 237 q 172 229 150 229 l 127 229 l 127 190 z m 127 241 l 150 241 q 163 241 168 244 q 174 250 174 256 q 174 259 172 262 q 171 265 169 268 q 165 273 162 273 q 160 274 150 274 l 127 274 z m 201 190 l 201 283 l 268 283 l 268 274 l 214 274 l 214 244 l 265 244 l 265 234 l 214 234 l 214 202 l 271 202 l 271 190 z m 288 190 l 288 283 l 331 283 q 345 283 351 282 q 358 279 361 274 q 364 262 364 259 q 364 249 358 243 q 352 237 337 234 q 340 231 342 231 q 343 231 345 229 q 352 222 355 216 l 372 190 l 357 190 l 343 210 q 342 214 340 217 q 337 220 336 223 q 333 225 332 227 q 331 229 330 229 q 327 231 324 231 q 322 234 316 234 l 303 234 l 303 190 z m 303 243 l 327 243 q 339 243 342 244 q 346 249 349 250 q 351 253 351 259 q 351 265 346 270 q 342 274 331 274 l 303 274 z m 381 222 l 391 222 q 391 219 392 216 q 394 213 396 210 q 397 208 400 206 q 402 204 405 204 q 414 201 420 201 q 423 201 426 201 q 429 201 430 202 q 439 205 441 208 q 441 210 442 212 q 442 214 442 216 q 442 222 441 223 q 436 226 430 229 q 429 231 425 231 q 421 231 415 234 q 402 235 396 240 q 388 246 385 249 q 384 253 384 261 q 384 264 384 268 q 385 271 388 274 q 390 280 400 283 q 403 286 417 286 q 429 286 435 283 q 444 279 447 273 q 453 264 453 259 l 441 256 q 438 267 433 270 q 427 276 417 276 q 405 276 400 270 q 396 267 396 261 q 396 255 400 253 q 402 250 417 247 q 430 241 439 241 q 442 238 445 236 q 448 234 450 231 q 454 226 454 217 q 454 210 450 204 q 447 199 444 197 q 442 195 439 192 q 427 189 420 189 q 409 189 397 192 q 393 195 390 197 q 387 199 384 204 q 382 208 382 212 q 381 216 381 222 z m 468 237 q 468 258 480 273 q 493 286 513 286 q 519 286 524 284 q 529 283 537 280 q 543 277 546 272 q 549 268 552 262 q 558 252 558 237 q 558 223 552 211 q 546 201 537 195 q 525 189 513 189 q 499 189 489 196 q 475 204 474 214 q 468 222 468 237 z m 480 237 q 480 219 489 210 q 498 201 513 201 q 528 201 537 210 q 544 220 544 237 q 544 243 544 249 q 543 255 540 259 q 535 267 531 270 q 523 276 513 276 q 505 276 500 274 q 496 271 489 267 q 480 258 480 237 z m 573 190 l 573 283 l 586 283 l 636 211 l 636 283 l 648 283 l 648 190 l 636 190 l 585 264 l 585 190 z m 658 190 l 694 283 l 708 283 l 747 190 l 732 190 l 721 220 l 682 220 l 670 190 z m 684 229 l 717 229 l 708 255 q 705 261 704 266 q 702 271 700 274 q 700 270 698 266 q 697 261 696 256 z m 754 190 l 754 283 l 768 283 l 768 202 l 814 202 l 814 190 z m 922 283 l 934 283 l 934 231 q 934 214 931 208 q 928 199 921 195 q 913 189 898 189 q 883 189 877 195 q 873 196 870 200 q 867 204 864 208 q 862 211 862 231 l 862 283 l 873 283 l 873 231 q 873 216 876 211 q 879 205 883 204 q 886 202 889 202 q 892 201 897 201 q 909 201 916 205 q 922 211 922 231 z m 951 222 l 963 222 q 963 219 964 216 q 966 213 967 210 q 969 208 971 206 q 973 204 976 204 q 985 201 990 201 q 1000 201 1005 202 q 1008 204 1012 208 q 1014 210 1014 216 q 1014 222 1012 223 q 1009 225 1008 226 q 1008 228 1005 229 q 1002 231 998 231 q 993 231 987 234 q 981 235 976 236 q 970 237 969 240 q 961 243 960 249 q 955 253 955 261 q 955 267 960 274 q 961 280 970 283 q 976 286 988 286 q 993 286 998 286 q 1003 286 1006 283 q 1015 279 1020 273 q 1021 270 1022 266 q 1024 262 1024 259 l 1012 256 q 1009 261 1008 264 q 1008 268 1005 270 q 1000 276 988 276 q 975 276 973 270 q 967 268 967 261 q 967 256 970 253 q 973 250 988 247 q 1005 241 1009 241 q 1014 238 1017 236 q 1020 234 1021 231 q 1026 228 1026 217 q 1026 208 1021 204 q 1018 199 1016 197 q 1014 195 1009 192 q 1000 189 993 189 q 985 189 980 190 q 975 190 970 192 q 967 195 964 197 q 960 199 957 204 q 954 208 952 212 q 951 216 951 222 z m 1044 190 l 1044 283 l 1111 283 l 1111 274 l 1057 274 l 1057 244 l 1107 244 l 1107 234 l 1057 234 l 1057 202 l 1113 202 l 1113 190 z m 307 388 q 307 403 285 406 q 282 406 278 407 q 273 408 267 408 l 258 397 l 234 372 q 228 364 222 358 q 217 352 210 348 q 219 345 232 343 q 235 343 240 343 q 246 343 250 345 q 273 346 285 357 q 307 375 307 388 z m 324 433 q 324 439 316 439 q 313 439 291 432 l 274 417 q 271 414 268 408 l 294 412 q 300 412 310 420 q 324 429 324 433 z m 343 460 q 343 457 339 457 q 336 457 335 458 q 334 459 331 459 q 316 456 297 436 q 300 439 304 440 q 307 442 310 444 q 321 445 330 444 q 336 444 336 436 l 336 430 q 328 417 294 409 q 321 406 321 391 q 321 373 292 354 q 282 348 270 344 q 259 340 247 339 q 228 334 217 336 q 208 336 198 340 q 189 334 181 334 l 178 334 q 169 337 163 339 l 168 339 q 180 339 187 345 l 187 346 q 177 340 165 340 q 148 340 139 349 q 124 360 124 381 q 124 387 126 392 q 127 397 130 405 q 141 427 166 444 q 174 451 182 454 q 190 456 198 457 q 214 457 220 451 q 213 456 205 456 q 196 456 186 450 q 171 444 169 441 q 154 433 139 415 q 126 394 126 379 q 126 372 128 368 q 129 363 132 358 q 138 349 148 346 q 153 345 156 344 q 159 343 162 343 q 168 343 172 344 q 177 346 183 349 q 166 361 166 382 q 169 402 190 417 l 187 412 q 184 412 181 406 q 172 397 172 387 q 172 367 195 354 q 207 361 207 363 q 210 367 213 370 q 216 373 219 376 q 222 379 222 384 q 223 388 226 393 l 226 391 q 226 384 225 379 l 243 400 q 289 453 319 462 q 306 466 298 466 q 279 465 256 453 q 229 439 229 420 q 229 414 234 409 q 235 408 235 406 q 226 412 226 421 q 226 438 246 454 q 270 472 297 469 q 306 469 324 463 l 330 463 q 337 463 342 460 z m 346 363 q 345 357 334 346 q 324 340 316 340 q 309 340 309 349 q 309 357 318 369 l 316 369 q 315 367 310 367 q 310 367 309 369 q 313 369 324 379 l 325 379 l 330 385 q 334 390 334 393 l 339 393 q 343 393 343 391 q 343 385 334 375 l 324 364 q 315 351 315 346 q 315 342 321 342 q 328 342 339 357 q 340 358 342 359 q 343 360 346 363 z m 354 405 q 348 396 339 396 q 334 396 328 400 l 333 400 q 343 400 346 411 l 346 414 l 354 411 q 355 409 354 405 z m 406 433 q 406 426 360 370 l 358 370 q 345 354 345 345 q 345 340 349 340 q 358 340 369 355 q 370 357 372 358 q 373 358 375 361 q 375 354 363 345 q 355 339 346 339 q 337 340 337 348 q 336 355 367 394 l 385 417 l 394 426 q 399 432 402 441 q 406 438 406 433 z m 432 433 q 432 427 384 370 q 369 352 369 345 q 369 340 375 340 q 381 340 394 355 l 400 361 q 399 354 387 345 q 379 339 370 339 q 361 340 361 348 q 361 357 391 394 l 409 417 l 418 426 q 426 435 427 441 q 432 438 432 433 z m 403 333 q 379 328 366 315 q 355 301 355 298 q 355 292 361 292 q 363 291 372 294 q 375 297 378 300 q 382 304 387 309 z m 447 430 q 444 409 427 393 q 427 391 426 391 q 426 391 426 390 q 421 384 416 378 q 411 373 406 366 q 403 363 403 360 q 402 363 405 369 q 396 355 396 348 q 396 343 400 343 q 402 343 408 346 q 430 364 439 397 l 439 393 l 439 388 q 442 385 442 381 q 442 378 435 366 l 423 346 l 409 328 q 414 331 426 337 l 424 336 q 421 333 416 329 q 411 325 406 318 l 394 303 l 388 295 q 379 286 369 283 q 360 283 355 289 q 346 292 352 303 q 354 304 356 307 q 357 310 360 313 l 361 315 l 351 313 q 376 331 393 333 q 394 333 396 334 q 397 334 399 334 l 400 334 l 403 334 l 412 348 q 406 342 402 341 q 397 340 394 340 q 387 340 387 348 q 387 366 418 394 l 421 396 l 436 411 q 439 417 442 422 q 445 426 447 430 z m 618 453 q 609 456 603 456 q 588 456 575 452 q 562 448 549 441 q 543 438 539 434 q 535 430 531 427 q 549 426 579 408 q 612 441 636 450 z m 649 447 q 643 445 636 443 q 630 441 622 433 q 618 430 600 412 l 589 402 l 604 393 q 607 397 613 404 q 619 411 627 420 z m 663 472 q 663 471 661 469 q 661 459 657 448 l 658 447 l 657 447 q 649 429 637 417 l 613 388 q 616 387 618 387 q 619 387 622 385 q 622 382 621 382 q 618 382 616 383 q 615 384 612 385 q 594 366 592 349 q 589 343 589 340 q 589 334 595 334 q 607 334 621 354 l 627 363 q 642 384 646 400 l 646 405 q 646 403 648 402 l 648 400 q 645 379 633 361 l 613 322 q 613 328 618 342 q 600 328 591 328 q 577 328 580 346 q 580 355 586 366 q 592 378 601 391 l 586 399 l 573 385 q 568 379 560 370 q 552 361 540 346 q 516 322 498 322 l 493 322 q 489 322 480 327 q 480 327 483 327 q 496 324 510 337 q 498 331 481 331 q 465 331 454 339 l 456 339 q 441 349 441 370 q 441 385 447 393 q 456 417 481 433 q 490 441 498 443 q 507 445 516 447 q 531 447 537 441 l 535 441 q 532 444 522 444 q 507 444 484 430 q 468 418 456 405 q 442 384 442 367 q 442 343 465 336 q 474 333 478 333 q 510 334 547 375 l 576 405 q 553 418 525 418 l 523 418 q 520 412 520 405 q 522 405 528 396 q 517 402 517 411 q 517 415 519 418 q 504 415 499 412 q 472 402 475 381 q 475 367 484 357 l 487 354 q 469 372 469 385 q 469 405 487 418 q 502 429 525 429 q 546 453 577 457 q 585 459 601 459 q 609 459 624 456 l 642 451 l 651 451 l 652 450 q 658 460 661 475 l 663 475 z m 682 375 q 682 370 681 367 q 673 360 668 354 q 663 348 658 340 l 660 340 l 661 340 q 660 339 658 339 q 657 339 657 337 q 649 337 649 340 q 649 346 663 360 q 673 373 673 376 q 675 381 669 385 q 651 360 637 354 l 631 351 l 628 352 q 634 352 648 367 q 661 379 666 387 q 666 388 665 388 q 664 388 664 390 q 664 391 675 400 q 675 402 676 402 l 678 400 q 678 399 670 388 q 682 384 682 375 z m 726 379 q 726 388 720 385 q 714 385 711 382 q 706 379 697 367 q 688 355 688 348 q 687 345 691 345 q 700 348 706 355 q 712 367 712 372 q 712 375 711 375 q 717 375 717 367 l 715 364 q 718 367 720 371 q 723 375 726 378 z m 754 393 q 748 393 741 385 q 735 378 729 369 q 723 360 715 348 q 708 333 702 324 q 696 316 694 313 q 675 289 664 289 q 655 288 651 295 q 651 303 651 303 q 651 310 657 316 q 654 315 649 315 q 664 330 682 334 q 684 334 684 335 q 685 336 688 336 l 690 334 q 661 325 655 307 q 654 304 654 300 q 654 298 655 297 q 655 295 657 295 q 669 294 685 318 l 696 333 l 702 342 q 697 340 694 340 q 682 340 682 352 q 682 366 702 384 q 711 393 718 393 q 729 393 729 381 l 730 381 l 738 390 q 745 397 751 397 q 756 397 759 393 z m 781 382 q 781 373 765 364 q 763 363 762 363 l 760 363 q 756 363 751 370 q 754 367 759 367 q 769 373 772 384 l 772 387 l 772 388 l 772 390 q 766 390 753 376 l 753 375 q 748 369 748 365 q 747 361 747 358 q 745 360 745 367 q 742 361 741 357 q 738 351 738 346 q 738 345 739 343 q 739 340 745 340 q 760 346 771 355 q 774 358 778 361 q 775 357 772 353 q 769 349 762 345 q 750 337 741 340 q 741 339 739 340 q 730 340 730 349 q 730 364 747 379 q 756 393 771 393 q 774 393 775 391 q 781 387 781 382 z m 841 433 q 841 427 793 370 q 780 354 780 345 q 780 340 784 340 q 793 340 804 355 q 805 357 806 358 q 808 358 810 361 q 810 354 798 345 q 790 339 780 339 q 772 342 772 348 q 772 360 801 394 l 819 417 l 828 426 q 837 435 837 441 q 841 438 841 433 z m 922 387 q 897 396 895 415 q 888 411 880 407 q 873 403 868 399 q 840 372 840 349 q 840 340 844 339 l 847 339 l 850 339 q 873 339 892 354 q 898 360 906 368 q 915 375 922 387 z m 952 430 l 940 430 q 922 429 897 417 q 900 396 925 391 l 936 405 z m 979 457 q 960 457 944 454 q 928 451 916 444 q 924 451 935 456 q 946 460 960 463 q 930 465 907 445 q 903 442 897 430 q 907 433 917 434 q 927 436 939 435 q 942 435 946 435 q 951 435 958 433 q 961 438 966 444 q 972 450 979 457 z m 1074 459 q 1071 454 1067 450 q 1063 447 1056 444 q 1044 436 1033 436 l 1030 436 q 1029 436 1027 438 q 1029 439 1029 440 q 1029 442 1032 445 q 1018 456 994 456 l 988 448 l 973 430 q 985 429 996 428 q 1006 426 1015 426 q 1036 426 1044 430 q 1038 424 1021 421 q 1008 418 994 423 l 970 427 q 964 420 959 414 q 954 409 951 403 l 940 388 l 948 388 q 985 391 991 406 l 993 406 q 988 397 973 390 q 966 387 959 386 q 952 384 946 384 l 939 384 q 928 372 922 363 q 915 354 909 348 q 889 327 873 327 q 865 328 856 328 q 871 328 888 343 q 867 334 855 334 l 846 336 l 858 324 q 846 330 838 337 q 837 337 831 340 q 813 354 811 375 q 811 382 811 388 q 811 394 814 400 q 819 414 826 424 q 834 433 844 444 q 870 466 889 466 q 900 466 907 460 l 906 459 q 901 463 892 463 q 873 460 852 444 q 834 429 825 414 q 813 393 813 375 q 816 348 837 340 q 834 349 835 358 q 838 381 852 397 q 868 418 897 430 q 900 433 900 439 l 913 453 q 933 469 964 469 q 972 469 977 469 q 982 469 990 468 l 991 468 q 1002 475 1010 479 q 1018 483 1027 481 q 1033 481 1036 478 q 1020 475 1020 475 q 1017 474 1013 472 q 1009 471 1005 468 q 1011 466 1017 466 q 1023 465 1030 462 q 1045 457 1054 457 q 1068 457 1074 459 z m 982 354 q 978 358 978 364 q 978 367 978 370 q 979 372 979 375 q 964 355 966 346 q 966 343 969 343 q 972 343 982 354 z m 1002 385 q 1002 388 999 388 q 996 388 993 387 q 991 385 988 379 q 981 364 981 360 q 981 355 982 354 l 987 358 l 987 360 l 987 358 q 988 360 988 360 q 988 361 990 363 q 993 372 993 375 q 993 376 991 378 q 994 372 994 370 q 999 375 1002 385 z m 1008 381 q 1008 373 997 358 q 984 345 978 340 l 966 340 q 957 340 957 348 q 957 360 973 379 q 984 393 997 393 q 1008 393 1008 381 z m 1057 384 q 1059 381 1051 367 q 1042 355 1039 352 l 1021 336 q 1011 325 1008 313 q 1009 331 1021 345 q 1027 351 1030 356 q 1033 360 1036 366 q 1038 367 1039 372 l 1039 367 q 1039 367 1038 364 q 1041 367 1047 379 q 1047 381 1048 382 q 1048 382 1048 384 q 1048 391 1041 388 q 1041 388 1029 379 q 1026 372 1020 366 q 1015 361 1009 354 q 1002 345 1000 340 q 999 339 993 327 q 993 330 992 334 q 991 337 993 340 q 996 351 1006 361 l 1015 372 q 1023 382 1023 388 q 1023 390 1022 392 q 1021 393 1021 394 q 1030 391 1030 385 q 1039 393 1050 393 q 1056 390 1057 384 z m 1116 405 l 1093 405 q 1092 402 1084 393 q 1075 384 1063 367 q 1060 367 1057 360 q 1051 352 1051 345 q 1051 340 1054 340 q 1062 340 1075 355 l 1077 357 q 1078 358 1078 359 q 1078 360 1080 361 q 1080 354 1069 345 q 1062 339 1051 339 q 1044 342 1042 348 q 1042 351 1048 363 l 1066 384 l 1083 405 l 1057 408 q 1051 409 1042 409 l 1029 409 q 1011 409 993 402 l 991 402 q 1006 417 1038 417 q 1039 417 1050 414 q 1062 412 1083 409 l 1087 408 q 1092 415 1096 420 q 1099 426 1102 430 q 1105 429 1105 423 q 1105 418 1102 415 l 1096 406 l 1108 405 l 1117 405 l 1119 405 l 1123 405 z m 1126 385 q 1126 381 1116 376 l 1114 375 q 1119 379 1119 387 l 1119 393 l 1114 393 q 1107 393 1105 387 q 1105 384 1110 361 q 1111 340 1086 340 q 1072 340 1069 349 q 1068 351 1068 354 q 1068 366 1086 369 l 1092 367 l 1089 367 q 1083 367 1080 364 q 1075 357 1075 354 q 1075 342 1087 342 q 1099 342 1099 358 q 1099 366 1098 370 q 1096 375 1096 381 q 1096 396 1110 396 q 1113 396 1114 395 q 1116 394 1119 394 q 1125 391 1125 390 q 1126 388 1126 385 z"},"r":{"x_min":0,"x_max":295,"ha":295,"o":"m 94 169 l 146 244 q 147 246 154 254 q 161 263 170 272 q 180 281 192 288 q 205 295 218 294 q 236 293 243 286 q 250 279 252 271 q 254 261 250 243 q 246 225 240 204 q 233 184 227 164 q 221 144 219 130 q 212 102 220 96 q 227 91 243 102 q 259 112 280 134 q 302 157 323 184 q 323 183 326 180 q 329 176 330 170 q 332 164 331 156 q 330 148 323 139 q 295 104 264 82 q 232 59 190 59 q 170 59 154 68 q 137 78 134 100 q 134 106 136 117 q 138 128 142 140 q 146 153 150 166 q 154 180 157 190 q 162 205 158 206 q 155 206 148 200 q 142 194 135 185 q 128 176 125 171 q 116 154 100 130 q 84 107 73 88 l 67 65 q 55 21 41 10 q 27 -1 4 0 q -11 1 -20 10 q -28 19 -24 36 q -19 60 -12 90 q -5 119 4 151 q 14 183 25 214 q 36 246 49 275 q 54 287 66 292 q 79 296 92 295 q 106 294 116 290 q 125 286 124 282 z"},"2":{"x_min":0,"x_max":1219,"ha":1219,"o":"m 876 781 l 739 657 l 775 471 l 615 565 l 450 471 l 489 652 l 351 781 l 537 801 l 615 972 l 690 802 z m 682 576 l 639 834 l 586 834 l 541 576 l 564 562 l 583 576 l 592 634 l 631 634 l 642 576 l 663 562 z m 628 672 l 598 672 l 612 774 z m 610 21 l 631 21 l 624 39 q 622 42 622 44 q 622 46 619 49 q 619 45 616 39 z m 352 -5 l 352 3 l 363 3 l 363 -5 z m 844 -5 l 844 58 l 852 58 l 852 1 l 883 1 l 883 -5 z m 787 -5 l 787 58 l 832 58 l 832 49 l 795 49 l 795 30 l 829 30 l 829 22 l 795 22 l 795 1 l 832 1 l 832 -5 z m 565 -5 l 565 21 l 541 58 l 552 58 l 564 39 q 567 30 570 28 q 571 30 572 33 q 574 36 577 39 l 589 58 l 598 58 l 573 21 l 573 -5 z m 376 -5 l 376 58 l 400 58 q 403 58 406 56 q 408 55 409 55 q 415 54 417 49 q 420 46 420 40 q 420 36 417 34 q 415 28 411 28 q 415 27 420 22 q 423 16 423 13 q 423 10 422 8 q 421 7 421 6 q 420 0 415 0 q 414 -3 412 -3 q 411 -3 409 -5 l 400 -5 z m 205 -5 l 187 58 l 196 58 l 205 16 q 207 12 207 9 q 207 6 208 3 q 210 10 210 15 l 222 58 l 232 58 l 241 25 q 243 18 244 14 q 246 9 246 3 q 247 6 247 9 q 247 12 249 16 l 259 58 l 267 58 l 249 -5 l 241 -5 l 229 42 q 228 46 228 49 q 226 46 226 42 l 213 -5 z m 123 -5 l 105 58 l 115 58 l 123 16 q 123 9 127 3 q 129 10 129 15 l 141 58 l 150 58 l 160 25 q 162 18 162 14 q 163 9 163 3 q 166 6 166 9 q 166 12 168 16 l 177 58 l 186 58 l 168 -5 l 160 -5 l 148 42 q 147 46 147 49 q 144 46 144 42 l 130 -5 z m 384 30 l 397 30 q 403 30 405 33 q 409 33 409 34 q 411 36 411 40 q 411 45 409 46 l 408 46 q 406 46 406 47 q 406 48 405 48 q 403 49 396 49 l 384 49 z m 285 -5 l 268 58 l 277 58 l 286 16 q 288 12 288 9 q 288 6 291 3 q 291 9 292 11 q 292 13 292 15 l 304 58 l 313 58 l 324 25 q 325 18 326 14 q 327 9 327 3 q 330 6 330 9 q 330 12 331 16 l 342 58 l 349 58 l 331 -5 l 324 -5 l 312 42 q 310 46 310 49 q 307 46 307 42 l 294 -5 z m 664 28 l 682 28 q 685 28 688 29 q 690 30 693 30 q 696 30 696 34 q 697 36 697 40 q 697 45 694 48 q 693 49 684 49 l 664 49 z m 384 1 l 400 1 q 403 1 405 3 l 409 3 q 411 6 414 7 l 414 13 q 414 16 411 19 q 411 22 408 22 l 397 22 l 384 22 z m 435 -5 l 435 58 l 442 58 l 442 -5 z m 985 25 q 985 12 990 7 q 996 1 1006 1 q 1017 1 1021 7 q 1027 12 1027 27 q 1027 34 1026 39 q 1023 46 1018 48 q 1014 49 1006 49 q 997 49 993 45 q 985 39 985 25 z m 976 25 q 976 42 985 49 q 991 58 1006 58 q 1011 58 1014 56 q 1018 55 1021 54 q 1026 52 1028 49 q 1030 46 1033 42 q 1035 39 1035 27 q 1035 13 1032 9 q 1027 1 1021 -3 q 1015 -6 1006 -6 q 1002 -6 998 -6 q 994 -5 990 -3 q 987 0 984 3 q 982 6 981 9 q 979 13 978 17 q 976 21 976 25 z m 592 -5 l 616 58 l 625 58 l 651 -5 l 642 -5 l 634 13 l 609 13 l 600 -5 z m 459 -5 l 459 58 l 466 58 l 466 1 l 495 1 l 495 -5 z m 892 -5 l 892 3 l 903 3 l 903 -5 z m 748 19 l 748 27 l 774 27 l 774 3 q 768 -3 762 -5 q 759 -5 755 -6 q 751 -6 748 -6 q 739 -6 733 -3 q 729 0 726 2 q 723 4 721 9 q 720 13 718 17 q 717 21 717 25 q 717 31 718 34 q 720 37 721 42 q 724 51 732 54 q 735 55 740 56 q 744 58 748 58 q 756 58 760 55 q 766 54 768 49 q 772 45 774 40 l 766 39 q 766 40 762 45 q 762 48 756 49 l 748 49 l 739 49 q 735 48 732 45 q 732 43 727 39 q 727 36 726 33 q 726 30 726 27 q 726 16 729 13 q 735 4 736 3 q 741 1 748 1 q 754 1 759 3 q 762 6 764 6 q 765 6 766 7 l 766 19 z m 657 -5 l 657 58 l 684 58 q 688 58 691 56 q 694 55 697 55 q 702 54 703 49 q 706 46 706 40 q 706 33 702 28 q 700 27 696 26 q 693 25 688 22 q 691 22 692 22 q 693 21 694 21 q 696 18 696 16 q 697 13 700 10 l 712 -5 l 702 -5 l 693 7 q 690 10 689 12 q 688 15 687 16 q 687 19 686 19 q 684 19 682 21 l 681 21 q 679 21 679 22 q 679 22 678 22 l 675 22 l 664 22 l 664 -5 z m 505 -5 l 505 58 l 514 58 l 514 1 l 544 1 l 544 -5 z m 961 16 l 969 15 q 966 3 960 0 q 954 -6 943 -6 q 934 -6 928 -3 q 924 0 922 3 q 921 6 918 9 q 915 21 915 27 q 915 33 918 45 q 925 52 928 54 q 933 55 936 56 q 939 58 943 58 q 948 58 952 56 q 957 55 960 54 q 963 51 965 48 q 967 45 969 40 l 960 39 q 960 45 954 48 q 951 49 943 49 q 934 49 931 48 q 928 46 928 44 q 927 42 924 39 q 924 36 923 33 q 922 30 922 27 q 922 18 927 13 q 927 10 928 8 q 930 6 931 3 q 936 1 943 1 q 951 1 955 6 q 960 10 961 16 z m 1047 -5 l 1047 58 l 1059 58 l 1074 13 q 1074 10 1076 8 q 1077 6 1077 3 q 1077 4 1080 13 l 1093 58 l 1105 58 l 1105 -5 l 1098 -5 l 1098 46 l 1080 -5 l 1072 -5 l 1054 48 l 1054 -5 z m 610 21 l 631 21 l 624 39 q 622 42 622 44 q 622 46 619 49 q 619 45 616 39 z m 352 -5 l 352 3 l 363 3 l 363 -5 z m 844 -5 l 844 58 l 852 58 l 852 1 l 883 1 l 883 -5 z m 787 -5 l 787 58 l 832 58 l 832 49 l 795 49 l 795 30 l 829 30 l 829 22 l 795 22 l 795 1 l 832 1 l 832 -5 z m 565 -5 l 565 21 l 541 58 l 552 58 l 564 39 q 567 30 570 28 q 571 30 572 33 q 574 36 577 39 l 589 58 l 598 58 l 573 21 l 573 -5 z m 376 -5 l 376 58 l 400 58 q 403 58 406 56 q 408 55 409 55 q 415 54 417 49 q 420 46 420 40 q 420 36 417 34 q 415 28 411 28 q 415 27 420 22 q 423 16 423 13 q 423 10 422 8 q 421 7 421 6 q 420 0 415 0 q 414 -3 412 -3 q 411 -3 409 -5 l 400 -5 z m 205 -5 l 187 58 l 196 58 l 205 16 q 207 12 207 9 q 207 6 208 3 q 210 10 210 15 l 222 58 l 232 58 l 241 25 q 243 18 244 14 q 246 9 246 3 q 247 6 247 9 q 247 12 249 16 l 259 58 l 267 58 l 249 -5 l 241 -5 l 229 42 q 228 46 228 49 q 226 46 226 42 l 213 -5 z m 123 -5 l 105 58 l 115 58 l 123 16 q 123 9 127 3 q 129 10 129 15 l 141 58 l 150 58 l 160 25 q 162 18 162 14 q 163 9 163 3 q 166 6 166 9 q 166 12 168 16 l 177 58 l 186 58 l 168 -5 l 160 -5 l 148 42 q 147 46 147 49 q 144 46 144 42 l 130 -5 z m 384 30 l 397 30 q 403 30 405 33 q 409 33 409 34 q 411 36 411 40 q 411 45 409 46 l 408 46 q 406 46 406 47 q 406 48 405 48 q 403 49 396 49 l 384 49 z m 285 -5 l 268 58 l 277 58 l 286 16 q 288 12 288 9 q 288 6 291 3 q 291 9 292 11 q 292 13 292 15 l 304 58 l 313 58 l 324 25 q 325 18 326 14 q 327 9 327 3 q 330 6 330 9 q 330 12 331 16 l 342 58 l 349 58 l 331 -5 l 324 -5 l 312 42 q 310 46 310 49 q 307 46 307 42 l 294 -5 z m 664 28 l 682 28 q 685 28 688 29 q 690 30 693 30 q 696 30 696 34 q 697 36 697 40 q 697 45 694 48 q 693 49 684 49 l 664 49 z m 384 1 l 400 1 q 403 1 405 3 l 409 3 q 411 6 414 7 l 414 13 q 414 16 411 19 q 411 22 408 22 l 397 22 l 384 22 z m 435 -5 l 435 58 l 442 58 l 442 -5 z m 985 25 q 985 12 990 7 q 996 1 1006 1 q 1017 1 1021 7 q 1027 12 1027 27 q 1027 34 1026 39 q 1023 46 1018 48 q 1014 49 1006 49 q 997 49 993 45 q 985 39 985 25 z m 976 25 q 976 42 985 49 q 991 58 1006 58 q 1011 58 1014 56 q 1018 55 1021 54 q 1026 52 1028 49 q 1030 46 1033 42 q 1035 39 1035 27 q 1035 13 1032 9 q 1027 1 1021 -3 q 1015 -6 1006 -6 q 1002 -6 998 -6 q 994 -5 990 -3 q 987 0 984 3 q 982 6 981 9 q 979 13 978 17 q 976 21 976 25 z m 592 -5 l 616 58 l 625 58 l 651 -5 l 642 -5 l 634 13 l 609 13 l 600 -5 z m 459 -5 l 459 58 l 466 58 l 466 1 l 495 1 l 495 -5 z m 892 -5 l 892 3 l 903 3 l 903 -5 z m 748 19 l 748 27 l 774 27 l 774 3 q 768 -3 762 -5 q 759 -5 755 -6 q 751 -6 748 -6 q 739 -6 733 -3 q 729 0 726 2 q 723 4 721 9 q 720 13 718 17 q 717 21 717 25 q 717 31 718 34 q 720 37 721 42 q 724 51 732 54 q 735 55 740 56 q 744 58 748 58 q 756 58 760 55 q 766 54 768 49 q 772 45 774 40 l 766 39 q 766 40 762 45 q 762 48 756 49 l 748 49 l 739 49 q 735 48 732 45 q 732 43 727 39 q 727 36 726 33 q 726 30 726 27 q 726 16 729 13 q 735 4 736 3 q 741 1 748 1 q 754 1 759 3 q 762 6 764 6 q 765 6 766 7 l 766 19 z m 657 -5 l 657 58 l 684 58 q 688 58 691 56 q 694 55 697 55 q 702 54 703 49 q 706 46 706 40 q 706 33 702 28 q 700 27 696 26 q 693 25 688 22 q 691 22 692 22 q 693 21 694 21 q 696 18 696 16 q 697 13 700 10 l 712 -5 l 702 -5 l 693 7 q 690 10 689 12 q 688 15 687 16 q 687 19 686 19 q 684 19 682 21 l 681 21 q 679 21 679 22 q 679 22 678 22 l 675 22 l 664 22 l 664 -5 z m 505 -5 l 505 58 l 514 58 l 514 1 l 544 1 l 544 -5 z m 961 16 l 969 15 q 966 3 960 0 q 954 -6 943 -6 q 934 -6 928 -3 q 924 0 922 3 q 921 6 918 9 q 915 21 915 27 q 915 33 918 45 q 925 52 928 54 q 933 55 936 56 q 939 58 943 58 q 948 58 952 56 q 957 55 960 54 q 963 51 965 48 q 967 45 969 40 l 960 39 q 960 45 954 48 q 951 49 943 49 q 934 49 931 48 q 928 46 928 44 q 927 42 924 39 q 924 36 923 33 q 922 30 922 27 q 922 18 927 13 q 927 10 928 8 q 930 6 931 3 q 936 1 943 1 q 951 1 955 6 q 960 10 961 16 z m 1047 -5 l 1047 58 l 1059 58 l 1074 13 q 1074 10 1076 8 q 1077 6 1077 3 q 1077 4 1080 13 l 1093 58 l 1105 58 l 1105 -5 l 1098 -5 l 1098 46 l 1080 -5 l 1072 -5 l 1054 48 l 1054 -5 z m 610 21 l 631 21 l 624 39 q 622 42 622 44 q 622 46 619 49 q 619 45 616 39 z m 352 -5 l 352 3 l 363 3 l 363 -5 z m 844 -5 l 844 58 l 852 58 l 852 1 l 883 1 l 883 -5 z m 787 -5 l 787 58 l 832 58 l 832 49 l 795 49 l 795 30 l 829 30 l 829 22 l 795 22 l 795 1 l 832 1 l 832 -5 z m 565 -5 l 565 21 l 541 58 l 552 58 l 564 39 q 567 30 570 28 q 571 30 572 33 q 574 36 577 39 l 589 58 l 598 58 l 573 21 l 573 -5 z m 376 -5 l 376 58 l 400 58 q 403 58 406 56 q 408 55 409 55 q 415 54 417 49 q 420 46 420 40 q 420 36 417 34 q 415 28 411 28 q 415 27 420 22 q 423 16 423 13 q 423 10 422 8 q 421 7 421 6 q 420 0 415 0 q 414 -3 412 -3 q 411 -3 409 -5 l 400 -5 z m 205 -5 l 187 58 l 196 58 l 205 16 q 207 12 207 9 q 207 6 208 3 q 210 10 210 15 l 222 58 l 232 58 l 241 25 q 243 18 244 14 q 246 9 246 3 q 247 6 247 9 q 247 12 249 16 l 259 58 l 267 58 l 249 -5 l 241 -5 l 229 42 q 228 46 228 49 q 226 46 226 42 l 213 -5 z m 123 -5 l 105 58 l 115 58 l 123 16 q 123 9 127 3 q 129 10 129 15 l 141 58 l 150 58 l 160 25 q 162 18 162 14 q 163 9 163 3 q 166 6 166 9 q 166 12 168 16 l 177 58 l 186 58 l 168 -5 l 160 -5 l 148 42 q 147 46 147 49 q 144 46 144 42 l 130 -5 z m 384 30 l 397 30 q 403 30 405 33 q 409 33 409 34 q 411 36 411 40 q 411 45 409 46 l 408 46 q 406 46 406 47 q 406 48 405 48 q 403 49 396 49 l 384 49 z m 285 -5 l 268 58 l 277 58 l 286 16 q 288 12 288 9 q 288 6 291 3 q 291 9 292 11 q 292 13 292 15 l 304 58 l 313 58 l 324 25 q 325 18 326 14 q 327 9 327 3 q 330 6 330 9 q 330 12 331 16 l 342 58 l 349 58 l 331 -5 l 324 -5 l 312 42 q 310 46 310 49 q 307 46 307 42 l 294 -5 z m 664 28 l 682 28 q 685 28 688 29 q 690 30 693 30 q 696 30 696 34 q 697 36 697 40 q 697 45 694 48 q 693 49 684 49 l 664 49 z m 384 1 l 400 1 q 403 1 405 3 l 409 3 q 411 6 414 7 l 414 13 q 414 16 411 19 q 411 22 408 22 l 397 22 l 384 22 z m 435 -5 l 435 58 l 442 58 l 442 -5 z m 985 25 q 985 12 990 7 q 996 1 1006 1 q 1017 1 1021 7 q 1027 12 1027 27 q 1027 34 1026 39 q 1023 46 1018 48 q 1014 49 1006 49 q 997 49 993 45 q 985 39 985 25 z m 976 25 q 976 42 985 49 q 991 58 1006 58 q 1011 58 1014 56 q 1018 55 1021 54 q 1026 52 1028 49 q 1030 46 1033 42 q 1035 39 1035 27 q 1035 13 1032 9 q 1027 1 1021 -3 q 1015 -6 1006 -6 q 1002 -6 998 -6 q 994 -5 990 -3 q 987 0 984 3 q 982 6 981 9 q 979 13 978 17 q 976 21 976 25 z m 592 -5 l 616 58 l 625 58 l 651 -5 l 642 -5 l 634 13 l 609 13 l 600 -5 z m 459 -5 l 459 58 l 466 58 l 466 1 l 495 1 l 495 -5 z m 892 -5 l 892 3 l 903 3 l 903 -5 z m 748 19 l 748 27 l 774 27 l 774 3 q 768 -3 762 -5 q 759 -5 755 -6 q 751 -6 748 -6 q 739 -6 733 -3 q 729 0 726 2 q 723 4 721 9 q 720 13 718 17 q 717 21 717 25 q 717 31 718 34 q 720 37 721 42 q 724 51 732 54 q 735 55 740 56 q 744 58 748 58 q 756 58 760 55 q 766 54 768 49 q 772 45 774 40 l 766 39 q 766 40 762 45 q 762 48 756 49 l 748 49 l 739 49 q 735 48 732 45 q 732 43 727 39 q 727 36 726 33 q 726 30 726 27 q 726 16 729 13 q 735 4 736 3 q 741 1 748 1 q 754 1 759 3 q 762 6 764 6 q 765 6 766 7 l 766 19 z m 657 -5 l 657 58 l 684 58 q 688 58 691 56 q 694 55 697 55 q 702 54 703 49 q 706 46 706 40 q 706 33 702 28 q 700 27 696 26 q 693 25 688 22 q 691 22 692 22 q 693 21 694 21 q 696 18 696 16 q 697 13 700 10 l 712 -5 l 702 -5 l 693 7 q 690 10 689 12 q 688 15 687 16 q 687 19 686 19 q 684 19 682 21 l 681 21 q 679 21 679 22 q 679 22 678 22 l 675 22 l 664 22 l 664 -5 z m 505 -5 l 505 58 l 514 58 l 514 1 l 544 1 l 544 -5 z m 961 16 l 969 15 q 966 3 960 0 q 954 -6 943 -6 q 934 -6 928 -3 q 924 0 922 3 q 921 6 918 9 q 915 21 915 27 q 915 33 918 45 q 925 52 928 54 q 933 55 936 56 q 939 58 943 58 q 948 58 952 56 q 957 55 960 54 q 963 51 965 48 q 967 45 969 40 l 960 39 q 960 45 954 48 q 951 49 943 49 q 934 49 931 48 q 928 46 928 44 q 927 42 924 39 q 924 36 923 33 q 922 30 922 27 q 922 18 927 13 q 927 10 928 8 q 930 6 931 3 q 936 1 943 1 q 951 1 955 6 q 960 10 961 16 z m 1047 -5 l 1047 58 l 1059 58 l 1074 13 q 1074 10 1076 8 q 1077 6 1077 3 q 1077 4 1080 13 l 1093 58 l 1105 58 l 1105 -5 l 1098 -5 l 1098 46 l 1080 -5 l 1072 -5 l 1054 48 l 1054 -5 z m 175 111 l 187 106 q 184 93 174 84 q 162 75 148 75 q 135 75 123 81 q 111 90 109 99 q 103 109 103 124 q 103 141 109 151 q 114 162 124 166 q 135 172 148 172 q 165 172 171 165 q 181 162 186 145 l 174 144 q 168 156 163 157 q 157 163 148 163 q 136 163 130 157 q 121 151 118 144 q 117 138 117 124 q 117 111 121 105 q 124 94 130 91 q 138 85 147 85 q 159 85 166 93 q 169 96 172 100 q 174 105 175 111 z m 199 123 q 199 135 202 144 q 205 153 213 159 q 219 166 227 169 q 235 172 244 172 q 258 172 268 166 q 277 162 285 150 q 291 135 291 124 q 291 117 290 111 q 288 105 285 99 q 277 87 267 81 q 255 75 244 75 q 237 75 232 76 q 226 78 220 81 q 210 87 205 99 q 199 109 199 123 z m 213 123 q 213 105 220 94 q 231 85 244 85 q 259 85 267 97 q 277 108 277 124 q 277 130 276 134 q 274 139 273 144 q 270 154 261 157 q 256 163 244 163 q 232 163 222 153 q 213 145 213 123 z m 306 78 l 306 171 l 324 171 l 346 105 q 351 96 351 91 q 354 94 357 106 l 381 171 l 396 171 l 396 78 l 384 78 l 384 156 l 357 78 l 345 78 l 318 157 l 318 78 z m 417 78 l 417 171 l 453 171 l 466 171 q 474 171 478 166 q 480 165 486 157 q 487 154 488 151 q 489 148 489 144 q 489 135 481 124 q 474 117 453 117 l 429 117 l 429 78 z m 429 126 l 454 126 q 468 126 469 132 q 475 133 475 144 q 475 151 474 153 q 468 159 463 159 q 462 162 453 162 l 429 162 z m 505 78 l 505 171 l 517 171 l 517 87 l 564 87 l 564 78 z m 579 78 l 579 171 l 648 171 l 648 162 l 591 162 l 591 132 l 643 132 l 643 120 l 591 120 l 591 87 l 649 87 l 649 78 z m 690 78 l 690 162 l 658 162 l 658 171 l 735 171 l 735 162 l 703 162 l 703 78 z m 748 78 l 748 171 l 817 171 l 817 162 l 760 162 l 760 132 l 813 132 l 813 120 l 760 120 l 760 87 l 819 87 l 819 78 z m 870 106 l 882 108 q 882 100 885 97 q 888 91 895 88 q 898 87 909 87 q 912 87 916 87 q 919 87 922 88 q 927 88 930 94 q 931 97 931 103 q 931 108 930 111 q 928 112 926 113 q 924 114 921 117 q 919 117 904 120 q 897 123 892 124 q 888 124 885 126 q 879 129 876 136 q 873 138 872 141 q 871 144 871 147 q 871 156 877 162 q 879 165 882 166 q 885 168 889 171 q 892 172 907 172 q 918 172 924 169 q 928 166 931 164 q 934 163 936 159 q 942 154 942 145 l 930 144 q 927 156 922 157 q 918 162 907 162 q 892 162 889 157 q 885 153 885 147 q 885 142 889 139 q 889 139 907 132 q 915 130 920 128 q 925 127 928 126 q 933 124 935 122 q 937 120 940 117 q 943 112 943 103 q 943 93 940 88 q 934 82 928 79 q 924 78 920 76 q 915 75 909 75 q 903 75 897 76 q 891 78 888 79 q 880 81 873 91 q 870 97 870 106 z m 961 78 l 961 171 l 1029 171 l 1029 162 l 975 162 l 975 132 l 1027 132 l 1027 120 l 975 120 l 975 87 l 1032 87 l 1032 78 z m 1074 78 l 1074 162 l 1044 162 l 1044 171 l 1117 171 l 1117 162 l 1086 162 l 1086 78 z m 112 190 l 112 283 l 150 283 l 163 283 q 166 283 175 280 q 177 279 179 276 q 181 273 183 270 q 186 267 186 259 q 186 246 177 237 q 172 229 150 229 l 127 229 l 127 190 z m 127 241 l 150 241 q 163 241 168 244 q 174 250 174 256 q 174 259 172 262 q 171 265 169 268 q 165 273 162 273 q 160 274 150 274 l 127 274 z m 201 190 l 201 283 l 268 283 l 268 274 l 214 274 l 214 244 l 265 244 l 265 234 l 214 234 l 214 202 l 271 202 l 271 190 z m 288 190 l 288 283 l 331 283 q 345 283 351 282 q 358 279 361 274 q 364 262 364 259 q 364 249 358 243 q 352 237 337 234 q 340 231 342 231 q 343 231 345 229 q 352 222 355 216 l 372 190 l 357 190 l 343 210 q 342 214 340 217 q 337 220 336 223 q 333 225 332 227 q 331 229 330 229 q 327 231 324 231 q 322 234 316 234 l 303 234 l 303 190 z m 303 243 l 327 243 q 339 243 342 244 q 346 249 349 250 q 351 253 351 259 q 351 265 346 270 q 342 274 331 274 l 303 274 z m 381 222 l 391 222 q 391 219 392 216 q 394 213 396 210 q 397 208 400 206 q 402 204 405 204 q 414 201 420 201 q 423 201 426 201 q 429 201 430 202 q 439 205 441 208 q 441 210 442 212 q 442 214 442 216 q 442 222 441 223 q 436 226 430 229 q 429 231 425 231 q 421 231 415 234 q 402 235 396 240 q 388 246 385 249 q 384 253 384 261 q 384 264 384 268 q 385 271 388 274 q 390 280 400 283 q 403 286 417 286 q 429 286 435 283 q 444 279 447 273 q 453 264 453 259 l 441 256 q 438 267 433 270 q 427 276 417 276 q 405 276 400 270 q 396 267 396 261 q 396 255 400 253 q 402 250 417 247 q 430 241 439 241 q 442 238 445 236 q 448 234 450 231 q 454 226 454 217 q 454 210 450 204 q 447 199 444 197 q 442 195 439 192 q 427 189 420 189 q 409 189 397 192 q 393 195 390 197 q 387 199 384 204 q 382 208 382 212 q 381 216 381 222 z m 468 237 q 468 258 480 273 q 493 286 513 286 q 519 286 524 284 q 529 283 537 280 q 543 277 546 272 q 549 268 552 262 q 558 252 558 237 q 558 223 552 211 q 546 201 537 195 q 525 189 513 189 q 499 189 489 196 q 475 204 474 214 q 468 222 468 237 z m 480 237 q 480 219 489 210 q 498 201 513 201 q 528 201 537 210 q 544 220 544 237 q 544 243 544 249 q 543 255 540 259 q 535 267 531 270 q 523 276 513 276 q 505 276 500 274 q 496 271 489 267 q 480 258 480 237 z m 573 190 l 573 283 l 586 283 l 636 211 l 636 283 l 648 283 l 648 190 l 636 190 l 585 264 l 585 190 z m 658 190 l 694 283 l 708 283 l 747 190 l 732 190 l 721 220 l 682 220 l 670 190 z m 684 229 l 717 229 l 708 255 q 705 261 704 266 q 702 271 700 274 q 700 270 698 266 q 697 261 696 256 z m 754 190 l 754 283 l 768 283 l 768 202 l 814 202 l 814 190 z m 922 283 l 934 283 l 934 231 q 934 214 931 208 q 928 199 921 195 q 913 189 898 189 q 883 189 877 195 q 873 196 870 200 q 867 204 864 208 q 862 211 862 231 l 862 283 l 873 283 l 873 231 q 873 216 876 211 q 879 205 883 204 q 886 202 889 202 q 892 201 897 201 q 909 201 916 205 q 922 211 922 231 z m 951 222 l 963 222 q 963 219 964 216 q 966 213 967 210 q 969 208 971 206 q 973 204 976 204 q 985 201 990 201 q 1000 201 1005 202 q 1008 204 1012 208 q 1014 210 1014 216 q 1014 222 1012 223 q 1009 225 1008 226 q 1008 228 1005 229 q 1002 231 998 231 q 993 231 987 234 q 981 235 976 236 q 970 237 969 240 q 961 243 960 249 q 955 253 955 261 q 955 267 960 274 q 961 280 970 283 q 976 286 988 286 q 993 286 998 286 q 1003 286 1006 283 q 1015 279 1020 273 q 1021 270 1022 266 q 1024 262 1024 259 l 1012 256 q 1009 261 1008 264 q 1008 268 1005 270 q 1000 276 988 276 q 975 276 973 270 q 967 268 967 261 q 967 256 970 253 q 973 250 988 247 q 1005 241 1009 241 q 1014 238 1017 236 q 1020 234 1021 231 q 1026 228 1026 217 q 1026 208 1021 204 q 1018 199 1016 197 q 1014 195 1009 192 q 1000 189 993 189 q 985 189 980 190 q 975 190 970 192 q 967 195 964 197 q 960 199 957 204 q 954 208 952 212 q 951 216 951 222 z m 1044 190 l 1044 283 l 1111 283 l 1111 274 l 1057 274 l 1057 244 l 1107 244 l 1107 234 l 1057 234 l 1057 202 l 1113 202 l 1113 190 z m 307 388 q 307 403 285 406 q 282 406 278 407 q 273 408 267 408 l 258 397 l 234 372 q 228 364 222 358 q 217 352 210 348 q 219 345 232 343 q 235 343 240 343 q 246 343 250 345 q 273 346 285 357 q 307 375 307 388 z m 324 433 q 324 439 316 439 q 313 439 291 432 l 274 417 q 271 414 268 408 l 294 412 q 300 412 310 420 q 324 429 324 433 z m 343 460 q 343 457 339 457 q 336 457 335 458 q 334 459 331 459 q 316 456 297 436 q 300 439 304 440 q 307 442 310 444 q 321 445 330 444 q 336 444 336 436 l 336 430 q 328 417 294 409 q 321 406 321 391 q 321 373 292 354 q 282 348 270 344 q 259 340 247 339 q 228 334 217 336 q 208 336 198 340 q 189 334 181 334 l 178 334 q 169 337 163 339 l 168 339 q 180 339 187 345 l 187 346 q 177 340 165 340 q 148 340 139 349 q 124 360 124 381 q 124 387 126 392 q 127 397 130 405 q 141 427 166 444 q 174 451 182 454 q 190 456 198 457 q 214 457 220 451 q 213 456 205 456 q 196 456 186 450 q 171 444 169 441 q 154 433 139 415 q 126 394 126 379 q 126 372 128 368 q 129 363 132 358 q 138 349 148 346 q 153 345 156 344 q 159 343 162 343 q 168 343 172 344 q 177 346 183 349 q 166 361 166 382 q 169 402 190 417 l 187 412 q 184 412 181 406 q 172 397 172 387 q 172 367 195 354 q 207 361 207 363 q 210 367 213 370 q 216 373 219 376 q 222 379 222 384 q 223 388 226 393 l 226 391 q 226 384 225 379 l 243 400 q 289 453 319 462 q 306 466 298 466 q 279 465 256 453 q 229 439 229 420 q 229 414 234 409 q 235 408 235 406 q 226 412 226 421 q 226 438 246 454 q 270 472 297 469 q 306 469 324 463 l 330 463 q 337 463 342 460 z m 346 363 q 345 357 334 346 q 324 340 316 340 q 309 340 309 349 q 309 357 318 369 l 316 369 q 315 367 310 367 q 310 367 309 369 q 313 369 324 379 l 325 379 l 330 385 q 334 390 334 393 l 339 393 q 343 393 343 391 q 343 385 334 375 l 324 364 q 315 351 315 346 q 315 342 321 342 q 328 342 339 357 q 340 358 342 359 q 343 360 346 363 z m 354 405 q 348 396 339 396 q 334 396 328 400 l 333 400 q 343 400 346 411 l 346 414 l 354 411 q 355 409 354 405 z m 406 433 q 406 426 360 370 l 358 370 q 345 354 345 345 q 345 340 349 340 q 358 340 369 355 q 370 357 372 358 q 373 358 375 361 q 375 354 363 345 q 355 339 346 339 q 337 340 337 348 q 336 355 367 394 l 385 417 l 394 426 q 399 432 402 441 q 406 438 406 433 z m 432 433 q 432 427 384 370 q 369 352 369 345 q 369 340 375 340 q 381 340 394 355 l 400 361 q 399 354 387 345 q 379 339 370 339 q 361 340 361 348 q 361 357 391 394 l 409 417 l 418 426 q 426 435 427 441 q 432 438 432 433 z m 403 333 q 379 328 366 315 q 355 301 355 298 q 355 292 361 292 q 363 291 372 294 q 375 297 378 300 q 382 304 387 309 z m 447 430 q 444 409 427 393 q 427 391 426 391 q 426 391 426 390 q 421 384 416 378 q 411 373 406 366 q 403 363 403 360 q 402 363 405 369 q 396 355 396 348 q 396 343 400 343 q 402 343 408 346 q 430 364 439 397 l 439 393 l 439 388 q 442 385 442 381 q 442 378 435 366 l 423 346 l 409 328 q 414 331 426 337 l 424 336 q 421 333 416 329 q 411 325 406 318 l 394 303 l 388 295 q 379 286 369 283 q 360 283 355 289 q 346 292 352 303 q 354 304 356 307 q 357 310 360 313 l 361 315 l 351 313 q 376 331 393 333 q 394 333 396 334 q 397 334 399 334 l 400 334 l 403 334 l 412 348 q 406 342 402 341 q 397 340 394 340 q 387 340 387 348 q 387 366 418 394 l 421 396 l 436 411 q 439 417 442 422 q 445 426 447 430 z m 618 453 q 609 456 603 456 q 588 456 575 452 q 562 448 549 441 q 543 438 539 434 q 535 430 531 427 q 549 426 579 408 q 612 441 636 450 z m 649 447 q 643 445 636 443 q 630 441 622 433 q 618 430 600 412 l 589 402 l 604 393 q 607 397 613 404 q 619 411 627 420 z m 663 472 q 663 471 661 469 q 661 459 657 448 l 658 447 l 657 447 q 649 429 637 417 l 613 388 q 616 387 618 387 q 619 387 622 385 q 622 382 621 382 q 618 382 616 383 q 615 384 612 385 q 594 366 592 349 q 589 343 589 340 q 589 334 595 334 q 607 334 621 354 l 627 363 q 642 384 646 400 l 646 405 q 646 403 648 402 l 648 400 q 645 379 633 361 l 613 322 q 613 328 618 342 q 600 328 591 328 q 577 328 580 346 q 580 355 586 366 q 592 378 601 391 l 586 399 l 573 385 q 568 379 560 370 q 552 361 540 346 q 516 322 498 322 l 493 322 q 489 322 480 327 q 480 327 483 327 q 496 324 510 337 q 498 331 481 331 q 465 331 454 339 l 456 339 q 441 349 441 370 q 441 385 447 393 q 456 417 481 433 q 490 441 498 443 q 507 445 516 447 q 531 447 537 441 l 535 441 q 532 444 522 444 q 507 444 484 430 q 468 418 456 405 q 442 384 442 367 q 442 343 465 336 q 474 333 478 333 q 510 334 547 375 l 576 405 q 553 418 525 418 l 523 418 q 520 412 520 405 q 522 405 528 396 q 517 402 517 411 q 517 415 519 418 q 504 415 499 412 q 472 402 475 381 q 475 367 484 357 l 487 354 q 469 372 469 385 q 469 405 487 418 q 502 429 525 429 q 546 453 577 457 q 585 459 601 459 q 609 459 624 456 l 642 451 l 651 451 l 652 450 q 658 460 661 475 l 663 475 z m 682 375 q 682 370 681 367 q 673 360 668 354 q 663 348 658 340 l 660 340 l 661 340 q 660 339 658 339 q 657 339 657 337 q 649 337 649 340 q 649 346 663 360 q 673 373 673 376 q 675 381 669 385 q 651 360 637 354 l 631 351 l 628 352 q 634 352 648 367 q 661 379 666 387 q 666 388 665 388 q 664 388 664 390 q 664 391 675 400 q 675 402 676 402 l 678 400 q 678 399 670 388 q 682 384 682 375 z m 726 379 q 726 388 720 385 q 714 385 711 382 q 706 379 697 367 q 688 355 688 348 q 687 345 691 345 q 700 348 706 355 q 712 367 712 372 q 712 375 711 375 q 717 375 717 367 l 715 364 q 718 367 720 371 q 723 375 726 378 z m 754 393 q 748 393 741 385 q 735 378 729 369 q 723 360 715 348 q 708 333 702 324 q 696 316 694 313 q 675 289 664 289 q 655 288 651 295 q 651 303 651 303 q 651 310 657 316 q 654 315 649 315 q 664 330 682 334 q 684 334 684 335 q 685 336 688 336 l 690 334 q 661 325 655 307 q 654 304 654 300 q 654 298 655 297 q 655 295 657 295 q 669 294 685 318 l 696 333 l 702 342 q 697 340 694 340 q 682 340 682 352 q 682 366 702 384 q 711 393 718 393 q 729 393 729 381 l 730 381 l 738 390 q 745 397 751 397 q 756 397 759 393 z m 781 382 q 781 373 765 364 q 763 363 762 363 l 760 363 q 756 363 751 370 q 754 367 759 367 q 769 373 772 384 l 772 387 l 772 388 l 772 390 q 766 390 753 376 l 753 375 q 748 369 748 365 q 747 361 747 358 q 745 360 745 367 q 742 361 741 357 q 738 351 738 346 q 738 345 739 343 q 739 340 745 340 q 760 346 771 355 q 774 358 778 361 q 775 357 772 353 q 769 349 762 345 q 750 337 741 340 q 741 339 739 340 q 730 340 730 349 q 730 364 747 379 q 756 393 771 393 q 774 393 775 391 q 781 387 781 382 z m 841 433 q 841 427 793 370 q 780 354 780 345 q 780 340 784 340 q 793 340 804 355 q 805 357 806 358 q 808 358 810 361 q 810 354 798 345 q 790 339 780 339 q 772 342 772 348 q 772 360 801 394 l 819 417 l 828 426 q 837 435 837 441 q 841 438 841 433 z m 922 387 q 897 396 895 415 q 888 411 880 407 q 873 403 868 399 q 840 372 840 349 q 840 340 844 339 l 847 339 l 850 339 q 873 339 892 354 q 898 360 906 368 q 915 375 922 387 z m 952 430 l 940 430 q 922 429 897 417 q 900 396 925 391 l 936 405 z m 979 457 q 960 457 944 454 q 928 451 916 444 q 924 451 935 456 q 946 460 960 463 q 930 465 907 445 q 903 442 897 430 q 907 433 917 434 q 927 436 939 435 q 942 435 946 435 q 951 435 958 433 q 961 438 966 444 q 972 450 979 457 z m 1074 459 q 1071 454 1067 450 q 1063 447 1056 444 q 1044 436 1033 436 l 1030 436 q 1029 436 1027 438 q 1029 439 1029 440 q 1029 442 1032 445 q 1018 456 994 456 l 988 448 l 973 430 q 985 429 996 428 q 1006 426 1015 426 q 1036 426 1044 430 q 1038 424 1021 421 q 1008 418 994 423 l 970 427 q 964 420 959 414 q 954 409 951 403 l 940 388 l 948 388 q 985 391 991 406 l 993 406 q 988 397 973 390 q 966 387 959 386 q 952 384 946 384 l 939 384 q 928 372 922 363 q 915 354 909 348 q 889 327 873 327 q 865 328 856 328 q 871 328 888 343 q 867 334 855 334 l 846 336 l 858 324 q 846 330 838 337 q 837 337 831 340 q 813 354 811 375 q 811 382 811 388 q 811 394 814 400 q 819 414 826 424 q 834 433 844 444 q 870 466 889 466 q 900 466 907 460 l 906 459 q 901 463 892 463 q 873 460 852 444 q 834 429 825 414 q 813 393 813 375 q 816 348 837 340 q 834 349 835 358 q 838 381 852 397 q 868 418 897 430 q 900 433 900 439 l 913 453 q 933 469 964 469 q 972 469 977 469 q 982 469 990 468 l 991 468 q 1002 475 1010 479 q 1018 483 1027 481 q 1033 481 1036 478 q 1020 475 1020 475 q 1017 474 1013 472 q 1009 471 1005 468 q 1011 466 1017 466 q 1023 465 1030 462 q 1045 457 1054 457 q 1068 457 1074 459 z m 982 354 q 978 358 978 364 q 978 367 978 370 q 979 372 979 375 q 964 355 966 346 q 966 343 969 343 q 972 343 982 354 z m 1002 385 q 1002 388 999 388 q 996 388 993 387 q 991 385 988 379 q 981 364 981 360 q 981 355 982 354 l 987 358 l 987 360 l 987 358 q 988 360 988 360 q 988 361 990 363 q 993 372 993 375 q 993 376 991 378 q 994 372 994 370 q 999 375 1002 385 z m 1008 381 q 1008 373 997 358 q 984 345 978 340 l 966 340 q 957 340 957 348 q 957 360 973 379 q 984 393 997 393 q 1008 393 1008 381 z m 1057 384 q 1059 381 1051 367 q 1042 355 1039 352 l 1021 336 q 1011 325 1008 313 q 1009 331 1021 345 q 1027 351 1030 356 q 1033 360 1036 366 q 1038 367 1039 372 l 1039 367 q 1039 367 1038 364 q 1041 367 1047 379 q 1047 381 1048 382 q 1048 382 1048 384 q 1048 391 1041 388 q 1041 388 1029 379 q 1026 372 1020 366 q 1015 361 1009 354 q 1002 345 1000 340 q 999 339 993 327 q 993 330 992 334 q 991 337 993 340 q 996 351 1006 361 l 1015 372 q 1023 382 1023 388 q 1023 390 1022 392 q 1021 393 1021 394 q 1030 391 1030 385 q 1039 393 1050 393 q 1056 390 1057 384 z m 1116 405 l 1093 405 q 1092 402 1084 393 q 1075 384 1063 367 q 1060 367 1057 360 q 1051 352 1051 345 q 1051 340 1054 340 q 1062 340 1075 355 l 1077 357 q 1078 358 1078 359 q 1078 360 1080 361 q 1080 354 1069 345 q 1062 339 1051 339 q 1044 342 1042 348 q 1042 351 1048 363 l 1066 384 l 1083 405 l 1057 408 q 1051 409 1042 409 l 1029 409 q 1011 409 993 402 l 991 402 q 1006 417 1038 417 q 1039 417 1050 414 q 1062 412 1083 409 l 1087 408 q 1092 415 1096 420 q 1099 426 1102 430 q 1105 429 1105 423 q 1105 418 1102 415 l 1096 406 l 1108 405 l 1117 405 l 1119 405 l 1123 405 z m 1126 385 q 1126 381 1116 376 l 1114 375 q 1119 379 1119 387 l 1119 393 l 1114 393 q 1107 393 1105 387 q 1105 384 1110 361 q 1111 340 1086 340 q 1072 340 1069 349 q 1068 351 1068 354 q 1068 366 1086 369 l 1092 367 l 1089 367 q 1083 367 1080 364 q 1075 357 1075 354 q 1075 342 1087 342 q 1099 342 1099 358 q 1099 366 1098 370 q 1096 375 1096 381 q 1096 396 1110 396 q 1113 396 1114 395 q 1116 394 1119 394 q 1125 391 1125 390 q 1126 388 1126 385 z"}}}
